# MagicaVoxel @ Ephtracy

# group
g MathuoMon-21

# material
mtllib MathuoMon-21.mtl
usemtl palette

# normals
vn -1 0 0
vn 1 0 0
vn 0 0 1
vn 0 0 -1
vn 0 -1 0
vn 0 1 0

# texcoords
vt 0.822266 0.5
vt 0.869141 0.5
vt 0.873047 0.5
vt 0.916016 0.5
vt 0.927734 0.5
vt 0.962891 0.5
vt 0.974609 0.5

# verts
v -7.5 33 1.5
v -7.5 33 -1.5
v -7.5 34 1.5
v -7.5 34 -1.5
v -6.5 23 0.5
v -6.5 23 -0.5
v -6.5 33 0.5
v -6.5 33 -0.5
v -5.5 34 1.5
v -5.5 34 -1.5
v -5.5 35 1.5
v -5.5 35 -1.5
v -3.5 35 1.5
v -3.5 35 -1.5
v -3.5 36 1.5
v -3.5 36 -1.5
v -1.5 0 -0.5
v -1.5 0 -1.5
v -1.5 1 -0.5
v -1.5 1 -1.5
v -1.5 2 -0.5
v -1.5 2 -1.5
v -1.5 4 -0.5
v -1.5 4 -1.5
v -1.5 5 -0.5
v -1.5 5 -1.5
v -1.5 6 -0.5
v -1.5 6 -1.5
v -1.5 7 -0.5
v -1.5 7 -1.5
v -1.5 23 -0.5
v -1.5 23 -1.5
v -1.5 25 -0.5
v -1.5 27 -0.5
v -1.5 35 -0.5
v -1.5 35 -1.5
v -1.5 36 1.5
v -1.5 36 -1.5
v -1.5 37 1.5
v -1.5 37 -1.5
v 0.5 35 1.5
v 0.5 35 0.5
v 0.5 36 1.5
v 0.5 36 0.5
v 2.5 34 1.5
v 2.5 34 0.5
v 2.5 34 -0.5
v 2.5 34 -1.5
v 2.5 35 1.5
v 2.5 35 0.5
v 2.5 35 -0.5
v 2.5 35 -1.5
v 4.5 33 1.5
v 4.5 33 0.5
v 4.5 33 -0.5
v 4.5 33 -1.5
v 4.5 34 1.5
v 4.5 34 0.5
v 4.5 34 -0.5
v 4.5 34 -1.5
v -5.5 33 1.5
v -5.5 33 0.5
v -5.5 33 -0.5
v -5.5 33 -1.5
v -5.5 34 1.5
v -5.5 34 0.5
v -5.5 34 -0.5
v -5.5 34 -1.5
v -3.5 34 1.5
v -3.5 34 0.5
v -3.5 34 -0.5
v -3.5 34 -1.5
v -3.5 35 1.5
v -3.5 35 0.5
v -3.5 35 -0.5
v -3.5 35 -1.5
v -1.5 35 1.5
v -1.5 35 0.5
v -1.5 36 1.5
v -1.5 36 0.5
v 0.5 0 -0.5
v 0.5 0 -1.5
v 0.5 2 -0.5
v 0.5 2 -1.5
v 0.5 3 -0.5
v 0.5 3 -1.5
v 0.5 4 -0.5
v 0.5 4 -1.5
v 0.5 5 -0.5
v 0.5 5 -1.5
v 0.5 18 -0.5
v 0.5 18 -1.5
v 0.5 19 -0.5
v 0.5 19 -1.5
v 0.5 20 -0.5
v 0.5 20 -1.5
v 0.5 21 -0.5
v 0.5 21 -1.5
v 0.5 23 -0.5
v 0.5 23 -1.5
v 0.5 26 -0.5
v 0.5 28 -0.5
v 0.5 29 -0.5
v 0.5 30 -0.5
v 0.5 31 -0.5
v 0.5 33 -0.5
v 0.5 35 -0.5
v 0.5 35 -1.5
v 0.5 36 1.5
v 0.5 36 -1.5
v 0.5 37 1.5
v 0.5 37 -1.5
v 2.5 35 1.5
v 2.5 35 -1.5
v 2.5 36 1.5
v 2.5 36 -1.5
v 4.5 34 1.5
v 4.5 34 -1.5
v 4.5 35 1.5
v 4.5 35 -1.5
v 5.5 23 0.5
v 5.5 23 -0.5
v 5.5 33 0.5
v 5.5 33 -0.5
v 6.5 33 1.5
v 6.5 33 -1.5
v 6.5 34 1.5
v 6.5 34 -1.5
v -7.5 33 1.5
v -7.5 34 1.5
v -5.5 33 1.5
v -5.5 34 1.5
v -5.5 35 1.5
v -3.5 34 1.5
v -3.5 35 1.5
v -3.5 36 1.5
v -1.5 35 1.5
v -1.5 36 1.5
v -1.5 37 1.5
v 0.5 35 1.5
v 0.5 36 1.5
v 0.5 37 1.5
v 2.5 34 1.5
v 2.5 35 1.5
v 2.5 36 1.5
v 4.5 33 1.5
v 4.5 34 1.5
v 4.5 35 1.5
v 6.5 33 1.5
v 6.5 34 1.5
v -6.5 23 0.5
v -6.5 33 0.5
v -5.5 25 0.5
v -5.5 27 0.5
v -5.5 29 0.5
v -5.5 30 0.5
v -5.5 31 0.5
v -5.5 33 0.5
v -5.5 34 0.5
v -4.5 25 0.5
v -4.5 27 0.5
v -4.5 29 0.5
v -4.5 30 0.5
v -4.5 31 0.5
v -3.5 27 0.5
v -3.5 28 0.5
v -3.5 29 0.5
v -3.5 33 0.5
v -3.5 34 0.5
v -3.5 35 0.5
v -2.5 25 0.5
v -2.5 27 0.5
v -2.5 28 0.5
v -2.5 29 0.5
v -2.5 33 0.5
v -1.5 25 0.5
v -1.5 27 0.5
v -1.5 29 0.5
v -1.5 32 0.5
v -1.5 33 0.5
v -1.5 35 0.5
v -1.5 36 0.5
v -0.5 24 0.5
v -0.5 25 0.5
v -0.5 26 0.5
v -0.5 27 0.5
v -0.5 29 0.5
v -0.5 32 0.5
v -0.5 33 0.5
v 0.5 24 0.5
v 0.5 25 0.5
v 0.5 26 0.5
v 0.5 28 0.5
v 0.5 29 0.5
v 0.5 30 0.5
v 0.5 31 0.5
v 0.5 33 0.5
v 0.5 35 0.5
v 0.5 36 0.5
v 1.5 26 0.5
v 1.5 28 0.5
v 1.5 29 0.5
v 1.5 30 0.5
v 1.5 31 0.5
v 1.5 33 0.5
v 2.5 25 0.5
v 2.5 27 0.5
v 2.5 28 0.5
v 2.5 29 0.5
v 2.5 30 0.5
v 2.5 31 0.5
v 2.5 34 0.5
v 2.5 35 0.5
v 3.5 25 0.5
v 3.5 27 0.5
v 3.5 28 0.5
v 3.5 29 0.5
v 3.5 30 0.5
v 3.5 31 0.5
v 3.5 32 0.5
v 3.5 33 0.5
v 4.5 29 0.5
v 4.5 30 0.5
v 4.5 31 0.5
v 4.5 32 0.5
v 4.5 33 0.5
v 4.5 34 0.5
v 5.5 23 0.5
v 5.5 33 0.5
v -1.5 0 -0.5
v -1.5 1 -0.5
v -1.5 2 -0.5
v -1.5 4 -0.5
v -1.5 5 -0.5
v -1.5 6 -0.5
v -1.5 7 -0.5
v -1.5 23 -0.5
v -0.5 1 -0.5
v -0.5 2 -0.5
v -0.5 3 -0.5
v -0.5 6 -0.5
v -0.5 7 -0.5
v -0.5 18 -0.5
v -0.5 19 -0.5
v -0.5 20 -0.5
v -0.5 21 -0.5
v 0.5 0 -0.5
v 0.5 2 -0.5
v 0.5 3 -0.5
v 0.5 4 -0.5
v 0.5 5 -0.5
v 0.5 18 -0.5
v 0.5 19 -0.5
v 0.5 20 -0.5
v 0.5 21 -0.5
v 0.5 23 -0.5
v -6.5 23 -0.5
v -6.5 33 -0.5
v -5.5 25 -0.5
v -5.5 27 -0.5
v -5.5 29 -0.5
v -5.5 30 -0.5
v -5.5 31 -0.5
v -5.5 33 -0.5
v -5.5 34 -0.5
v -4.5 25 -0.5
v -4.5 27 -0.5
v -4.5 29 -0.5
v -4.5 30 -0.5
v -4.5 31 -0.5
v -3.5 27 -0.5
v -3.5 28 -0.5
v -3.5 29 -0.5
v -3.5 33 -0.5
v -3.5 34 -0.5
v -3.5 35 -0.5
v -2.5 25 -0.5
v -2.5 27 -0.5
v -2.5 28 -0.5
v -2.5 29 -0.5
v -2.5 33 -0.5
v -1.5 23 -0.5
v -1.5 25 -0.5
v -1.5 27 -0.5
v -1.5 35 -0.5
v 0.5 23 -0.5
v 0.5 26 -0.5
v 0.5 28 -0.5
v 0.5 29 -0.5
v 0.5 30 -0.5
v 0.5 31 -0.5
v 0.5 33 -0.5
v 0.5 35 -0.5
v 1.5 26 -0.5
v 1.5 28 -0.5
v 1.5 29 -0.5
v 1.5 30 -0.5
v 1.5 31 -0.5
v 1.5 33 -0.5
v 2.5 25 -0.5
v 2.5 27 -0.5
v 2.5 28 -0.5
v 2.5 29 -0.5
v 2.5 30 -0.5
v 2.5 31 -0.5
v 2.5 34 -0.5
v 2.5 35 -0.5
v 3.5 25 -0.5
v 3.5 27 -0.5
v 3.5 28 -0.5
v 3.5 29 -0.5
v 3.5 30 -0.5
v 3.5 31 -0.5
v 3.5 32 -0.5
v 3.5 33 -0.5
v 4.5 29 -0.5
v 4.5 30 -0.5
v 4.5 31 -0.5
v 4.5 32 -0.5
v 4.5 33 -0.5
v 4.5 34 -0.5
v 5.5 23 -0.5
v 5.5 33 -0.5
v -7.5 33 -1.5
v -7.5 34 -1.5
v -5.5 33 -1.5
v -5.5 34 -1.5
v -5.5 35 -1.5
v -3.5 34 -1.5
v -3.5 35 -1.5
v -3.5 36 -1.5
v -1.5 0 -1.5
v -1.5 1 -1.5
v -1.5 2 -1.5
v -1.5 4 -1.5
v -1.5 5 -1.5
v -1.5 6 -1.5
v -1.5 7 -1.5
v -1.5 23 -1.5
v -1.5 35 -1.5
v -1.5 36 -1.5
v -1.5 37 -1.5
v -0.5 1 -1.5
v -0.5 2 -1.5
v -0.5 3 -1.5
v -0.5 6 -1.5
v -0.5 7 -1.5
v -0.5 18 -1.5
v -0.5 19 -1.5
v -0.5 20 -1.5
v -0.5 21 -1.5
v 0.5 0 -1.5
v 0.5 2 -1.5
v 0.5 3 -1.5
v 0.5 4 -1.5
v 0.5 5 -1.5
v 0.5 18 -1.5
v 0.5 19 -1.5
v 0.5 20 -1.5
v 0.5 21 -1.5
v 0.5 23 -1.5
v 0.5 35 -1.5
v 0.5 36 -1.5
v 0.5 37 -1.5
v 2.5 34 -1.5
v 2.5 35 -1.5
v 2.5 36 -1.5
v 4.5 33 -1.5
v 4.5 34 -1.5
v 4.5 35 -1.5
v 6.5 33 -1.5
v 6.5 34 -1.5
v -1.5 0 -0.5
v 0.5 0 -0.5
v -1.5 0 -1.5
v 0.5 0 -1.5
v -6.5 23 0.5
v 5.5 23 0.5
v -6.5 23 -0.5
v -1.5 23 -0.5
v 0.5 23 -0.5
v 5.5 23 -0.5
v -7.5 33 1.5
v -5.5 33 1.5
v 4.5 33 1.5
v 6.5 33 1.5
v -6.5 33 0.5
v -5.5 33 0.5
v 4.5 33 0.5
v 5.5 33 0.5
v -6.5 33 -0.5
v -5.5 33 -0.5
v 4.5 33 -0.5
v 5.5 33 -0.5
v -7.5 33 -1.5
v -5.5 33 -1.5
v 4.5 33 -1.5
v 6.5 33 -1.5
v -5.5 34 1.5
v -3.5 34 1.5
v 2.5 34 1.5
v 4.5 34 1.5
v -5.5 34 0.5
v -3.5 34 0.5
v 2.5 34 0.5
v 4.5 34 0.5
v -5.5 34 -0.5
v -3.5 34 -0.5
v 2.5 34 -0.5
v 4.5 34 -0.5
v -5.5 34 -1.5
v -3.5 34 -1.5
v 2.5 34 -1.5
v 4.5 34 -1.5
v -3.5 35 1.5
v -1.5 35 1.5
v 0.5 35 1.5
v 2.5 35 1.5
v -3.5 35 0.5
v -1.5 35 0.5
v 0.5 35 0.5
v 2.5 35 0.5
v -3.5 35 -0.5
v -1.5 35 -0.5
v 0.5 35 -0.5
v 2.5 35 -0.5
v -3.5 35 -1.5
v -1.5 35 -1.5
v 0.5 35 -1.5
v 2.5 35 -1.5
v -1.5 36 1.5
v 0.5 36 1.5
v -1.5 36 0.5
v 0.5 36 0.5
v -7.5 34 1.5
v -5.5 34 1.5
v 4.5 34 1.5
v 6.5 34 1.5
v -7.5 34 -1.5
v -5.5 34 -1.5
v 4.5 34 -1.5
v 6.5 34 -1.5
v -5.5 35 1.5
v -3.5 35 1.5
v 2.5 35 1.5
v 4.5 35 1.5
v -5.5 35 -1.5
v -3.5 35 -1.5
v 2.5 35 -1.5
v 4.5 35 -1.5
v -3.5 36 1.5
v -1.5 36 1.5
v 0.5 36 1.5
v 2.5 36 1.5
v -3.5 36 -1.5
v -1.5 36 -1.5
v 0.5 36 -1.5
v 2.5 36 -1.5
v -1.5 37 1.5
v 0.5 37 1.5
v -1.5 37 -1.5
v 0.5 37 -1.5

# faces
f 3/4/1 2/4/1 1/4/1
f 4/4/1 2/4/1 3/4/1
f 7/3/1 6/3/1 5/3/1
f 8/3/1 6/3/1 7/3/1
f 11/4/1 10/4/1 9/4/1
f 12/4/1 10/4/1 11/4/1
f 15/4/1 14/4/1 13/4/1
f 16/4/1 14/4/1 15/4/1
f 19/6/1 18/6/1 17/6/1
f 20/6/1 18/6/1 19/6/1
f 21/5/1 20/5/1 19/5/1
f 22/5/1 20/5/1 21/5/1
f 23/6/1 22/6/1 21/6/1
f 24/6/1 22/6/1 23/6/1
f 25/5/1 24/5/1 23/5/1
f 26/5/1 24/5/1 25/5/1
f 27/6/1 26/6/1 25/6/1
f 28/6/1 26/6/1 27/6/1
f 29/5/1 28/5/1 27/5/1
f 30/5/1 28/5/1 29/5/1
f 31/6/1 30/6/1 29/6/1
f 32/6/1 30/6/1 31/6/1
f 33/5/1 32/5/1 31/5/1
f 34/5/1 32/5/1 33/5/1
f 35/5/1 32/5/1 34/5/1
f 36/5/1 32/5/1 35/5/1
f 39/4/1 38/4/1 37/4/1
f 40/4/1 38/4/1 39/4/1
f 43/4/1 42/4/1 41/4/1
f 44/4/1 42/4/1 43/4/1
f 49/4/1 46/4/1 45/4/1
f 50/4/1 46/4/1 49/4/1
f 51/4/1 48/4/1 47/4/1
f 52/4/1 48/4/1 51/4/1
f 57/4/1 54/4/1 53/4/1
f 58/4/1 54/4/1 57/4/1
f 59/4/1 56/4/1 55/4/1
f 60/4/1 56/4/1 59/4/1
f 61/4/2 62/4/2 65/4/2
f 65/4/2 62/4/2 66/4/2
f 63/4/2 64/4/2 67/4/2
f 67/4/2 64/4/2 68/4/2
f 69/4/2 70/4/2 73/4/2
f 73/4/2 70/4/2 74/4/2
f 71/4/2 72/4/2 75/4/2
f 75/4/2 72/4/2 76/4/2
f 77/4/2 78/4/2 79/4/2
f 79/4/2 78/4/2 80/4/2
f 81/6/2 82/6/2 83/6/2
f 83/6/2 82/6/2 84/6/2
f 83/5/2 84/5/2 85/5/2
f 85/5/2 84/5/2 86/5/2
f 85/6/2 86/6/2 87/6/2
f 87/6/2 86/6/2 88/6/2
f 87/5/2 88/5/2 89/5/2
f 89/5/2 88/5/2 90/5/2
f 89/6/2 90/6/2 91/6/2
f 91/6/2 90/6/2 92/6/2
f 91/5/2 92/5/2 93/5/2
f 93/5/2 92/5/2 94/5/2
f 93/6/2 94/6/2 95/6/2
f 95/6/2 94/6/2 96/6/2
f 95/5/2 96/5/2 97/5/2
f 97/5/2 96/5/2 98/5/2
f 97/6/2 98/6/2 99/6/2
f 99/6/2 98/6/2 100/6/2
f 99/5/2 100/5/2 101/5/2
f 101/5/2 100/5/2 102/5/2
f 102/5/2 100/5/2 103/5/2
f 103/5/2 100/5/2 104/5/2
f 104/5/2 100/5/2 105/5/2
f 105/5/2 100/5/2 106/5/2
f 106/5/2 100/5/2 107/5/2
f 107/5/2 100/5/2 108/5/2
f 109/4/2 110/4/2 111/4/2
f 111/4/2 110/4/2 112/4/2
f 113/4/2 114/4/2 115/4/2
f 115/4/2 114/4/2 116/4/2
f 117/4/2 118/4/2 119/4/2
f 119/4/2 118/4/2 120/4/2
f 121/3/2 122/3/2 123/3/2
f 123/3/2 122/3/2 124/3/2
f 125/4/2 126/4/2 127/4/2
f 127/4/2 126/4/2 128/4/2
f 131/4/3 130/4/3 129/4/3
f 132/4/3 130/4/3 131/4/3
f 134/4/3 133/4/3 132/4/3
f 135/4/3 133/4/3 134/4/3
f 137/4/3 136/4/3 135/4/3
f 138/4/3 136/4/3 137/4/3
f 141/4/3 139/4/3 138/4/3
f 142/4/3 139/4/3 141/4/3
f 144/4/3 141/4/3 140/4/3
f 145/4/3 141/4/3 144/4/3
f 147/4/3 144/4/3 143/4/3
f 148/4/3 144/4/3 147/4/3
f 149/4/3 147/4/3 146/4/3
f 150/4/3 147/4/3 149/4/3
f 153/3/3 152/3/3 151/3/3
f 154/3/3 152/3/3 153/3/3
f 155/3/3 152/3/3 154/3/3
f 156/3/3 152/3/3 155/3/3
f 157/3/3 152/3/3 156/3/3
f 158/3/3 152/3/3 157/3/3
f 160/3/3 153/3/3 151/3/3
f 160/1/3 154/1/3 153/1/3
f 161/2/3 155/2/3 154/2/3
f 161/1/3 154/1/3 160/1/3
f 162/7/3 156/7/3 155/7/3
f 162/2/3 155/2/3 161/2/3
f 163/2/3 157/2/3 156/2/3
f 163/7/3 156/7/3 162/7/3
f 164/3/3 159/3/3 158/3/3
f 164/2/3 157/2/3 163/2/3
f 164/3/3 158/3/3 157/3/3
f 165/3/3 163/3/3 162/3/3
f 165/3/3 162/3/3 161/3/3
f 165/3/3 164/3/3 163/3/3
f 165/3/3 161/3/3 160/3/3
f 166/3/3 164/3/3 165/3/3
f 167/3/3 164/3/3 166/3/3
f 168/3/3 159/3/3 164/3/3
f 168/3/3 164/3/3 167/3/3
f 169/3/3 159/3/3 168/3/3
f 171/3/3 160/3/3 151/3/3
f 171/3/3 165/3/3 160/3/3
f 172/2/3 166/2/3 165/2/3
f 172/3/3 165/3/3 171/3/3
f 173/3/3 167/3/3 166/3/3
f 173/2/3 166/2/3 172/2/3
f 174/2/3 168/2/3 167/2/3
f 174/3/3 167/3/3 173/3/3
f 175/3/3 170/3/3 169/3/3
f 175/2/3 168/2/3 174/2/3
f 175/3/3 169/3/3 168/3/3
f 176/2/3 172/2/3 171/2/3
f 176/3/3 171/3/3 151/3/3
f 177/3/3 174/3/3 173/3/3
f 177/2/3 172/2/3 176/2/3
f 177/3/3 173/3/3 172/3/3
f 177/3/3 175/3/3 174/3/3
f 178/3/3 175/3/3 177/3/3
f 179/3/3 175/3/3 178/3/3
f 180/3/3 170/3/3 175/3/3
f 180/3/3 175/3/3 179/3/3
f 181/3/3 170/3/3 180/3/3
f 183/3/3 176/3/3 151/3/3
f 183/3/3 177/3/3 176/3/3
f 184/3/3 177/3/3 183/3/3
f 185/3/3 177/3/3 184/3/3
f 186/2/3 178/2/3 177/2/3
f 186/3/3 177/3/3 185/3/3
f 187/7/3 179/7/3 178/7/3
f 187/2/3 178/2/3 186/2/3
f 188/2/3 180/2/3 179/2/3
f 188/7/3 179/7/3 187/7/3
f 189/3/3 182/3/3 181/3/3
f 189/2/3 180/2/3 188/2/3
f 189/3/3 181/3/3 180/3/3
f 190/2/3 184/2/3 183/2/3
f 190/3/3 183/3/3 151/3/3
f 191/7/3 185/7/3 184/7/3
f 191/2/3 184/2/3 190/2/3
f 192/3/3 186/3/3 185/3/3
f 192/7/3 185/7/3 191/7/3
f 192/3/3 188/3/3 187/3/3
f 192/3/3 189/3/3 188/3/3
f 192/3/3 187/3/3 186/3/3
f 193/3/3 189/3/3 192/3/3
f 194/3/3 189/3/3 193/3/3
f 195/3/3 189/3/3 194/3/3
f 196/3/3 189/3/3 195/3/3
f 197/3/3 182/3/3 189/3/3
f 197/3/3 189/3/3 196/3/3
f 198/3/3 182/3/3 197/3/3
f 199/3/3 182/3/3 198/3/3
f 200/3/3 191/3/3 190/3/3
f 200/3/3 192/3/3 191/3/3
f 200/2/3 193/2/3 192/2/3
f 201/7/3 194/7/3 193/7/3
f 201/2/3 193/2/3 200/2/3
f 202/2/3 195/2/3 194/2/3
f 202/7/3 194/7/3 201/7/3
f 203/7/3 196/7/3 195/7/3
f 203/2/3 195/2/3 202/2/3
f 204/2/3 197/2/3 196/2/3
f 204/7/3 196/7/3 203/7/3
f 205/3/3 198/3/3 197/3/3
f 205/2/3 197/2/3 204/2/3
f 206/3/3 202/3/3 201/3/3
f 206/3/3 204/3/3 203/3/3
f 206/3/3 205/3/3 204/3/3
f 206/3/3 201/3/3 200/3/3
f 206/3/3 200/3/3 190/3/3
f 206/3/3 203/3/3 202/3/3
f 207/3/3 205/3/3 206/3/3
f 208/3/3 205/3/3 207/3/3
f 209/3/3 205/3/3 208/3/3
f 210/3/3 205/3/3 209/3/3
f 211/3/3 205/3/3 210/3/3
f 212/3/3 198/3/3 205/3/3
f 212/3/3 205/3/3 211/3/3
f 213/3/3 198/3/3 212/3/3
f 214/3/3 206/3/3 190/3/3
f 214/2/3 207/2/3 206/2/3
f 215/3/3 208/3/3 207/3/3
f 215/2/3 207/2/3 214/2/3
f 216/2/3 209/2/3 208/2/3
f 216/3/3 208/3/3 215/3/3
f 217/3/3 210/3/3 209/3/3
f 217/2/3 209/2/3 216/2/3
f 218/2/3 211/2/3 210/2/3
f 218/3/3 210/3/3 217/3/3
f 219/3/3 212/3/3 211/3/3
f 219/2/3 211/2/3 218/2/3
f 220/3/3 212/3/3 219/3/3
f 221/3/3 212/3/3 220/3/3
f 222/3/3 217/3/3 216/3/3
f 222/2/3 218/2/3 217/2/3
f 222/3/3 215/3/3 214/3/3
f 222/3/3 216/3/3 215/3/3
f 223/7/3 219/7/3 218/7/3
f 223/2/3 218/2/3 222/2/3
f 224/1/3 220/1/3 219/1/3
f 224/7/3 219/7/3 223/7/3
f 225/2/3 221/2/3 220/2/3
f 225/1/3 220/1/3 224/1/3
f 226/3/3 212/3/3 221/3/3
f 226/2/3 221/2/3 225/2/3
f 227/3/3 212/3/3 226/3/3
f 228/3/3 190/3/3 151/3/3
f 228/3/3 225/3/3 224/3/3
f 228/3/3 226/3/3 225/3/3
f 228/3/3 222/3/3 214/3/3
f 228/3/3 223/3/3 222/3/3
f 228/3/3 214/3/3 190/3/3
f 228/3/3 224/3/3 223/3/3
f 229/3/3 226/3/3 228/3/3
f 238/6/3 231/6/3 230/6/3
f 238/5/3 232/5/3 231/5/3
f 239/6/3 233/6/3 232/6/3
f 239/5/3 232/5/3 238/5/3
f 240/6/3 233/6/3 239/6/3
f 241/5/3 236/5/3 235/5/3
f 241/6/3 235/6/3 234/6/3
f 242/6/3 237/6/3 236/6/3
f 242/5/3 236/5/3 241/5/3
f 243/6/3 237/6/3 242/6/3
f 244/6/3 237/6/3 243/6/3
f 245/6/3 237/6/3 244/6/3
f 246/6/3 237/6/3 245/6/3
f 247/6/3 238/6/3 230/6/3
f 247/6/3 239/6/3 238/6/3
f 248/5/3 240/5/3 239/5/3
f 248/6/3 239/6/3 247/6/3
f 249/6/3 233/6/3 240/6/3
f 249/5/3 240/5/3 248/5/3
f 250/5/3 234/5/3 233/5/3
f 250/6/3 233/6/3 249/6/3
f 251/6/3 241/6/3 234/6/3
f 251/5/3 234/5/3 250/5/3
f 251/6/3 242/6/3 241/6/3
f 251/6/3 243/6/3 242/6/3
f 252/5/3 244/5/3 243/5/3
f 252/6/3 243/6/3 251/6/3
f 253/6/3 245/6/3 244/6/3
f 253/5/3 244/5/3 252/5/3
f 254/5/3 246/5/3 245/5/3
f 254/6/3 245/6/3 253/6/3
f 255/6/3 237/6/3 246/6/3
f 255/5/3 246/5/3 254/5/3
f 256/6/3 237/6/3 255/6/3
f 257/3/4 258/3/4 259/3/4
f 259/3/4 258/3/4 260/3/4
f 260/3/4 258/3/4 261/3/4
f 261/3/4 258/3/4 262/3/4
f 262/3/4 258/3/4 263/3/4
f 263/3/4 258/3/4 264/3/4
f 257/3/4 259/3/4 266/3/4
f 259/1/4 260/1/4 266/1/4
f 260/2/4 261/2/4 267/2/4
f 266/1/4 260/1/4 267/1/4
f 261/7/4 262/7/4 268/7/4
f 267/2/4 261/2/4 268/2/4
f 262/2/4 263/2/4 269/2/4
f 268/7/4 262/7/4 269/7/4
f 264/3/4 265/3/4 270/3/4
f 269/2/4 263/2/4 270/2/4
f 263/3/4 264/3/4 270/3/4
f 268/3/4 269/3/4 271/3/4
f 267/3/4 268/3/4 271/3/4
f 269/3/4 270/3/4 271/3/4
f 266/3/4 267/3/4 271/3/4
f 271/3/4 270/3/4 272/3/4
f 272/3/4 270/3/4 273/3/4
f 270/3/4 265/3/4 274/3/4
f 273/3/4 270/3/4 274/3/4
f 274/3/4 265/3/4 275/3/4
f 257/3/4 266/3/4 277/3/4
f 266/3/4 271/3/4 277/3/4
f 271/2/4 272/2/4 278/2/4
f 277/3/4 271/3/4 278/3/4
f 272/3/4 273/3/4 279/3/4
f 278/2/4 272/2/4 279/2/4
f 273/2/4 274/2/4 280/2/4
f 279/3/4 273/3/4 280/3/4
f 275/3/4 276/3/4 281/3/4
f 280/2/4 274/2/4 281/2/4
f 274/3/4 275/3/4 281/3/4
f 257/3/4 277/3/4 282/3/4
f 277/2/4 278/2/4 283/2/4
f 282/3/4 277/3/4 283/3/4
f 279/3/4 280/3/4 284/3/4
f 283/2/4 278/2/4 284/2/4
f 278/3/4 279/3/4 284/3/4
f 280/3/4 281/3/4 284/3/4
f 281/3/4 276/3/4 285/3/4
f 284/3/4 281/3/4 285/3/4
f 286/3/4 287/3/4 294/3/4
f 287/2/4 288/2/4 294/2/4
f 288/7/4 289/7/4 295/7/4
f 294/2/4 288/2/4 295/2/4
f 289/2/4 290/2/4 296/2/4
f 295/7/4 289/7/4 296/7/4
f 290/7/4 291/7/4 297/7/4
f 296/2/4 290/2/4 297/2/4
f 291/2/4 292/2/4 298/2/4
f 297/7/4 291/7/4 298/7/4
f 292/3/4 293/3/4 299/3/4
f 298/2/4 292/2/4 299/2/4
f 297/3/4 298/3/4 300/3/4
f 296/3/4 297/3/4 300/3/4
f 298/3/4 299/3/4 300/3/4
f 295/3/4 296/3/4 300/3/4
f 294/3/4 295/3/4 300/3/4
f 286/3/4 294/3/4 300/3/4
f 300/3/4 299/3/4 301/3/4
f 301/3/4 299/3/4 302/3/4
f 302/3/4 299/3/4 303/3/4
f 303/3/4 299/3/4 304/3/4
f 304/3/4 299/3/4 305/3/4
f 299/3/4 293/3/4 306/3/4
f 305/3/4 299/3/4 306/3/4
f 306/3/4 293/3/4 307/3/4
f 286/3/4 300/3/4 308/3/4
f 300/2/4 301/2/4 308/2/4
f 301/3/4 302/3/4 309/3/4
f 308/2/4 301/2/4 309/2/4
f 302/2/4 303/2/4 310/2/4
f 309/3/4 302/3/4 310/3/4
f 303/3/4 304/3/4 311/3/4
f 310/2/4 303/2/4 311/2/4
f 304/2/4 305/2/4 312/2/4
f 311/3/4 304/3/4 312/3/4
f 305/3/4 306/3/4 313/3/4
f 312/2/4 305/2/4 313/2/4
f 313/3/4 306/3/4 314/3/4
f 314/3/4 306/3/4 315/3/4
f 310/3/4 311/3/4 316/3/4
f 311/2/4 312/2/4 316/2/4
f 308/3/4 309/3/4 316/3/4
f 309/3/4 310/3/4 316/3/4
f 312/7/4 313/7/4 317/7/4
f 316/2/4 312/2/4 317/2/4
f 313/1/4 314/1/4 318/1/4
f 317/7/4 313/7/4 318/7/4
f 314/2/4 315/2/4 319/2/4
f 318/1/4 314/1/4 319/1/4
f 315/3/4 306/3/4 320/3/4
f 319/2/4 315/2/4 320/2/4
f 320/3/4 306/3/4 321/3/4
f 318/3/4 319/3/4 322/3/4
f 317/3/4 318/3/4 322/3/4
f 319/3/4 320/3/4 322/3/4
f 308/3/4 316/3/4 322/3/4
f 316/3/4 317/3/4 322/3/4
f 286/3/4 308/3/4 322/3/4
f 322/3/4 320/3/4 323/3/4
f 324/4/4 325/4/4 326/4/4
f 326/4/4 325/4/4 327/4/4
f 327/4/4 328/4/4 329/4/4
f 329/4/4 328/4/4 330/4/4
f 330/4/4 331/4/4 340/4/4
f 340/4/4 331/4/4 341/4/4
f 332/6/4 333/6/4 343/6/4
f 333/5/4 334/5/4 343/5/4
f 334/6/4 335/6/4 344/6/4
f 343/5/4 334/5/4 344/5/4
f 344/6/4 335/6/4 345/6/4
f 336/6/4 337/6/4 346/6/4
f 337/5/4 338/5/4 346/5/4
f 338/6/4 339/6/4 347/6/4
f 346/5/4 338/5/4 347/5/4
f 347/6/4 339/6/4 348/6/4
f 348/6/4 339/6/4 349/6/4
f 349/6/4 339/6/4 350/6/4
f 350/6/4 339/6/4 351/6/4
f 332/6/4 343/6/4 352/6/4
f 343/6/4 344/6/4 352/6/4
f 344/5/4 345/5/4 353/5/4
f 352/6/4 344/6/4 353/6/4
f 345/6/4 335/6/4 354/6/4
f 353/5/4 345/5/4 354/5/4
f 335/5/4 336/5/4 355/5/4
f 354/6/4 335/6/4 355/6/4
f 336/6/4 346/6/4 356/6/4
f 355/5/4 336/5/4 356/5/4
f 346/6/4 347/6/4 356/6/4
f 347/6/4 348/6/4 356/6/4
f 348/5/4 349/5/4 357/5/4
f 356/6/4 348/6/4 357/6/4
f 349/6/4 350/6/4 358/6/4
f 357/5/4 349/5/4 358/5/4
f 350/5/4 351/5/4 359/5/4
f 358/6/4 350/6/4 359/6/4
f 351/6/4 339/6/4 360/6/4
f 359/5/4 351/5/4 360/5/4
f 340/5/4 341/5/4 361/5/4
f 360/6/4 339/6/4 361/6/4
f 339/5/4 340/5/4 361/5/4
f 361/5/4 341/5/4 362/5/4
f 341/4/4 342/4/4 363/4/4
f 362/5/4 341/5/4 363/5/4
f 363/4/4 342/4/4 364/4/4
f 362/4/4 363/4/4 366/4/4
f 366/4/4 363/4/4 367/4/4
f 365/4/4 366/4/4 369/4/4
f 369/4/4 366/4/4 370/4/4
f 368/4/4 369/4/4 371/4/4
f 371/4/4 369/4/4 372/4/4
f 375/6/5 374/6/5 373/6/5
f 376/6/5 374/6/5 375/6/5
f 379/3/5 378/3/5 377/3/5
f 380/3/5 378/3/5 379/3/5
f 381/3/5 378/3/5 380/3/5
f 382/3/5 378/3/5 381/3/5
f 387/4/5 384/4/5 383/4/5
f 388/4/5 384/4/5 387/4/5
f 389/4/5 386/4/5 385/4/5
f 390/4/5 386/4/5 389/4/5
f 391/4/5 387/4/5 383/4/5
f 394/4/5 386/4/5 390/4/5
f 395/4/5 392/4/5 391/4/5
f 395/4/5 391/4/5 383/4/5
f 396/4/5 392/4/5 395/4/5
f 397/4/5 394/4/5 393/4/5
f 398/4/5 386/4/5 394/4/5
f 398/4/5 394/4/5 397/4/5
f 403/4/5 400/4/5 399/4/5
f 404/4/5 400/4/5 403/4/5
f 405/4/5 402/4/5 401/4/5
f 406/4/5 402/4/5 405/4/5
f 411/4/5 408/4/5 407/4/5
f 412/4/5 408/4/5 411/4/5
f 413/4/5 410/4/5 409/4/5
f 414/4/5 410/4/5 413/4/5
f 419/4/5 416/4/5 415/4/5
f 420/4/5 416/4/5 419/4/5
f 421/4/5 418/4/5 417/4/5
f 422/4/5 418/4/5 421/4/5
f 427/4/5 424/4/5 423/4/5
f 428/4/5 424/4/5 427/4/5
f 429/4/5 426/4/5 425/4/5
f 430/4/5 426/4/5 429/4/5
f 433/4/5 432/4/5 431/4/5
f 434/4/5 432/4/5 433/4/5
f 435/4/6 436/4/6 439/4/6
f 439/4/6 436/4/6 440/4/6
f 437/4/6 438/4/6 441/4/6
f 441/4/6 438/4/6 442/4/6
f 443/4/6 444/4/6 447/4/6
f 447/4/6 444/4/6 448/4/6
f 445/4/6 446/4/6 449/4/6
f 449/4/6 446/4/6 450/4/6
f 451/4/6 452/4/6 455/4/6
f 455/4/6 452/4/6 456/4/6
f 453/4/6 454/4/6 457/4/6
f 457/4/6 454/4/6 458/4/6
f 459/4/6 460/4/6 461/4/6
f 461/4/6 460/4/6 462/4/6
