# MagicaVoxel @ Ephtracy

# group
g MathuoMon-14

# material
mtllib MathuoMon-14.mtl
usemtl palette

# normals
vn -1 0 0
vn 1 0 0
vn 0 0 1
vn 0 0 -1
vn 0 -1 0
vn 0 1 0

# texcoords
vt 0.826172 0.5
vt 0.869141 0.5
vt 0.873047 0.5

# verts
v -63 0 63
v -63 0 -63
v -63 28 63
v -63 28 -63
v 46 28 63
v 46 28 10
v 46 29 63
v 46 29 10
v 48 27 63
v 48 27 12
v 48 29 63
v 48 29 12
v 50 23 63
v 50 23 15
v 50 27 63
v 50 27 15
v 51 16 63
v 51 16 16
v 51 23 63
v 51 23 16
v 52 6 63
v 52 6 28
v 52 9 28
v 52 9 25
v 52 15 25
v 52 15 17
v 52 16 63
v 52 16 17
v 53 6 28
v 53 6 20
v 53 9 28
v 53 9 25
v 53 9 20
v 53 9 18
v 53 15 25
v 53 15 18
v 55 6 20
v 55 6 18
v 55 9 20
v 55 9 18
v 58 9 18
v 58 9 17
v 58 15 18
v 58 15 17
v 59 8 18
v 59 8 17
v 59 9 18
v 59 9 17
v 62 6 18
v 62 6 17
v 62 8 18
v 62 8 17
v 63 0 63
v 63 0 -63
v 63 6 63
v 63 6 17
v 63 6 10
v 63 6 -63
v 63 16 17
v 63 16 16
v 63 23 16
v 63 23 15
v 63 27 15
v 63 27 12
v 63 28 10
v 63 28 -63
v 63 29 12
v 63 29 10
v -63 0 63
v -63 28 63
v 46 28 63
v 46 29 63
v 47 27 63
v 47 28 63
v 48 26 63
v 48 27 63
v 48 29 63
v 49 0 63
v 49 26 63
v 50 23 63
v 50 27 63
v 51 0 63
v 51 6 63
v 51 16 63
v 51 23 63
v 52 6 63
v 52 16 63
v 63 0 63
v 63 6 63
v 52 6 28
v 52 9 28
v 53 6 28
v 53 9 28
v 52 9 25
v 52 15 25
v 53 9 25
v 53 15 25
v 53 6 20
v 53 9 20
v 55 6 20
v 55 9 20
v 53 9 18
v 53 15 18
v 55 6 18
v 55 9 18
v 58 9 18
v 58 15 18
v 59 8 18
v 59 9 18
v 62 6 18
v 62 8 18
v 52 15 17
v 52 16 17
v 58 9 17
v 58 15 17
v 59 8 17
v 59 9 17
v 62 6 17
v 62 8 17
v 63 6 17
v 63 16 17
v 51 16 16
v 51 23 16
v 63 16 16
v 63 23 16
v 50 23 15
v 50 27 15
v 63 23 15
v 63 27 15
v 48 27 12
v 48 29 12
v 63 27 12
v 63 29 12
v 46 28 10
v 46 29 10
v 63 28 10
v 63 29 10
v -63 0 -63
v -63 28 -63
v 51 0 -63
v 51 6 -63
v 63 0 -63
v 63 6 -63
v 63 28 -63
v -63 0 63
v 49 0 63
v 51 0 63
v 63 0 63
v 49 0 -62
v 51 0 -62
v -63 0 -63
v 51 0 -63
v 63 0 -63
v 52 6 63
v 63 6 63
v 52 6 28
v 53 6 28
v 53 6 20
v 55 6 20
v 55 6 18
v 62 6 18
v 62 6 17
v 63 6 17
v 59 8 18
v 62 8 18
v 59 8 17
v 62 8 17
v 52 9 28
v 53 9 28
v 52 9 25
v 53 9 25
v 53 9 20
v 55 9 20
v 53 9 18
v 55 9 18
v 58 9 18
v 59 9 18
v 58 9 17
v 59 9 17
v 52 15 25
v 53 15 25
v 53 15 18
v 58 15 18
v 52 15 17
v 58 15 17
v 51 16 63
v 52 16 63
v 52 16 17
v 63 16 17
v 51 16 16
v 63 16 16
v 50 23 63
v 51 23 63
v 51 23 16
v 63 23 16
v 50 23 15
v 63 23 15
v 48 27 63
v 50 27 63
v 50 27 15
v 63 27 15
v 48 27 12
v 63 27 12
v -63 28 63
v 46 28 63
v 46 28 10
v 63 28 10
v -63 28 -63
v 63 28 -63
v 46 29 63
v 48 29 63
v 48 29 12
v 63 29 12
v 46 29 10
v 63 29 10

# faces
f 3/1/1 2/1/1 1/1/1
f 4/1/1 2/1/1 3/1/1
f 7/2/1 6/2/1 5/2/1
f 8/2/1 6/2/1 7/2/1
f 9/2/2 10/2/2 11/2/2
f 11/2/2 10/2/2 12/2/2
f 13/2/2 14/2/2 15/2/2
f 15/2/2 14/2/2 16/2/2
f 17/2/2 18/2/2 19/2/2
f 19/2/2 18/2/2 20/2/2
f 21/2/2 22/2/2 23/2/2
f 23/2/2 24/2/2 25/2/2
f 21/2/2 23/2/2 27/2/2
f 25/2/2 26/2/2 27/2/2
f 23/2/2 25/2/2 27/2/2
f 27/2/2 26/2/2 28/2/2
f 29/2/2 30/2/2 31/2/2
f 31/2/2 30/2/2 32/2/2
f 32/2/2 30/2/2 33/2/2
f 33/2/2 34/2/2 35/2/2
f 32/2/2 33/2/2 35/2/2
f 35/2/2 34/2/2 36/2/2
f 37/2/2 38/2/2 39/2/2
f 39/2/2 38/2/2 40/2/2
f 41/2/2 42/2/2 43/2/2
f 43/2/2 42/2/2 44/2/2
f 45/2/2 46/2/2 47/2/2
f 47/2/2 46/2/2 48/2/2
f 49/2/2 50/2/2 51/2/2
f 51/2/2 50/2/2 52/2/2
f 53/3/2 54/3/2 55/3/2
f 55/3/2 54/3/2 56/3/2
f 56/3/2 54/3/2 57/3/2
f 57/3/2 54/3/2 58/3/2
f 56/2/2 57/2/2 59/2/2
f 59/2/2 57/2/2 60/2/2
f 60/2/2 57/2/2 61/2/2
f 61/2/2 57/2/2 62/2/2
f 62/2/2 57/2/2 63/2/2
f 63/2/2 57/2/2 64/2/2
f 57/1/2 58/1/2 65/1/2
f 64/2/2 57/2/2 65/2/2
f 65/1/2 58/1/2 66/1/2
f 64/2/2 65/2/2 67/2/2
f 67/2/2 65/2/2 68/2/2
f 71/1/3 70/1/3 69/1/3
f 73/1/3 71/1/3 69/1/3
f 74/2/3 72/2/3 71/2/3
f 74/1/3 71/1/3 73/1/3
f 75/1/3 73/1/3 69/1/3
f 76/2/3 74/2/3 73/2/3
f 76/1/3 73/1/3 75/1/3
f 77/2/3 72/2/3 74/2/3
f 77/2/3 74/2/3 76/2/3
f 78/1/3 75/1/3 69/1/3
f 79/2/3 76/2/3 75/2/3
f 79/1/3 75/1/3 78/1/3
f 80/2/3 79/2/3 78/2/3
f 81/2/3 76/2/3 79/2/3
f 81/2/3 79/2/3 80/2/3
f 82/2/3 80/2/3 78/2/3
f 83/2/3 80/2/3 82/2/3
f 84/2/3 80/2/3 83/2/3
f 85/2/3 80/2/3 84/2/3
f 86/3/3 83/3/3 82/3/3
f 86/2/3 84/2/3 83/2/3
f 87/2/3 84/2/3 86/2/3
f 88/3/3 86/3/3 82/3/3
f 89/3/3 86/3/3 88/3/3
f 92/2/3 91/2/3 90/2/3
f 93/2/3 91/2/3 92/2/3
f 96/2/3 95/2/3 94/2/3
f 97/2/3 95/2/3 96/2/3
f 100/2/3 99/2/3 98/2/3
f 101/2/3 99/2/3 100/2/3
f 105/2/3 103/2/3 102/2/3
f 106/2/3 103/2/3 105/2/3
f 106/2/3 105/2/3 104/2/3
f 107/2/3 103/2/3 106/2/3
f 108/2/3 106/2/3 104/2/3
f 109/2/3 106/2/3 108/2/3
f 110/2/3 108/2/3 104/2/3
f 111/2/3 108/2/3 110/2/3
f 115/2/3 113/2/3 112/2/3
f 117/2/3 115/2/3 114/2/3
f 119/2/3 117/2/3 116/2/3
f 120/2/3 119/2/3 118/2/3
f 121/2/3 113/2/3 115/2/3
f 121/2/3 119/2/3 120/2/3
f 121/2/3 115/2/3 117/2/3
f 121/2/3 117/2/3 119/2/3
f 124/2/3 123/2/3 122/2/3
f 125/2/3 123/2/3 124/2/3
f 128/2/3 127/2/3 126/2/3
f 129/2/3 127/2/3 128/2/3
f 132/2/3 131/2/3 130/2/3
f 133/2/3 131/2/3 132/2/3
f 134/2/4 135/2/4 136/2/4
f 136/2/4 135/2/4 137/2/4
f 138/1/4 139/1/4 140/1/4
f 140/1/4 139/1/4 141/1/4
f 140/3/4 141/3/4 142/3/4
f 141/1/4 139/1/4 143/1/4
f 142/3/4 141/3/4 143/3/4
f 143/1/4 139/1/4 144/1/4
f 149/1/5 146/1/5 145/1/5
f 149/2/5 147/2/5 146/2/5
f 150/3/5 148/3/5 147/3/5
f 150/2/5 147/2/5 149/2/5
f 151/1/5 149/1/5 145/1/5
f 151/1/5 150/1/5 149/1/5
f 152/3/5 148/3/5 150/3/5
f 152/1/5 150/1/5 151/1/5
f 153/3/5 148/3/5 152/3/5
f 154/3/6 155/3/6 156/3/6
f 156/3/6 155/3/6 157/3/6
f 157/3/6 155/3/6 158/3/6
f 158/3/6 155/3/6 159/3/6
f 159/3/6 155/3/6 160/3/6
f 160/3/6 155/3/6 161/3/6
f 161/3/6 155/3/6 162/3/6
f 162/3/6 155/3/6 163/3/6
f 164/2/6 165/2/6 166/2/6
f 166/2/6 165/2/6 167/2/6
f 168/2/6 169/2/6 170/2/6
f 170/2/6 169/2/6 171/2/6
f 172/2/6 173/2/6 174/2/6
f 174/2/6 173/2/6 175/2/6
f 176/2/6 177/2/6 178/2/6
f 178/2/6 177/2/6 179/2/6
f 180/2/6 181/2/6 182/2/6
f 180/2/6 182/2/6 184/2/6
f 182/2/6 183/2/6 184/2/6
f 184/2/6 183/2/6 185/2/6
f 186/2/6 187/2/6 188/2/6
f 186/2/6 188/2/6 190/2/6
f 188/2/6 189/2/6 190/2/6
f 190/2/6 189/2/6 191/2/6
f 192/2/6 193/2/6 194/2/6
f 192/2/6 194/2/6 196/2/6
f 194/2/6 195/2/6 196/2/6
f 196/2/6 195/2/6 197/2/6
f 198/2/6 199/2/6 200/2/6
f 198/2/6 200/2/6 202/2/6
f 200/2/6 201/2/6 202/2/6
f 202/2/6 201/2/6 203/2/6
f 204/1/6 205/1/6 206/1/6
f 204/1/6 206/1/6 208/1/6
f 206/1/6 207/1/6 208/1/6
f 208/1/6 207/1/6 209/1/6
f 210/2/6 211/2/6 212/2/6
f 210/2/6 212/2/6 214/2/6
f 212/2/6 213/2/6 214/2/6
f 214/2/6 213/2/6 215/2/6
