# MagicaVoxel @ Ephtracy

# group
g MathuoMon-18

# material
mtllib MathuoMon-18.mtl
usemtl palette

# normals
vn -1 0 0
vn 1 0 0
vn 0 0 1
vn 0 0 -1
vn 0 -1 0
vn 0 1 0

# texcoords
vt 0.916016 0.5
vt 0.927734 0.5
vt 0.962891 0.5

# verts
v -6.5 33 1.5
v -6.5 33 0.5
v -6.5 34 1.5
v -6.5 34 0.5
v -5.5 23 0.5
v -5.5 23 -0.5
v -5.5 24 0.5
v -5.5 24 -0.5
v -5.5 32 0.5
v -5.5 32 -0.5
v -5.5 33 0.5
v -5.5 33 -0.5
v -5.5 34 1.5
v -5.5 34 0.5
v -5.5 34 -0.5
v -5.5 35 1.5
v -5.5 35 0.5
v -3.5 34 0.5
v -3.5 34 -0.5
v -3.5 35 1.5
v -3.5 35 0.5
v -3.5 35 -0.5
v -3.5 36 1.5
v -3.5 36 0.5
v -1.5 0 -0.5
v -1.5 0 -1.5
v -1.5 1 -0.5
v -1.5 1 -1.5
v -1.5 2 -0.5
v -1.5 2 -1.5
v -1.5 4 -0.5
v -1.5 4 -1.5
v -1.5 5 -0.5
v -1.5 5 -1.5
v -1.5 6 -0.5
v -1.5 6 -1.5
v -1.5 7 -0.5
v -1.5 7 -1.5
v -1.5 23 -0.5
v -1.5 31 -0.5
v -1.5 33 -0.5
v -1.5 35 0.5
v -1.5 35 -0.5
v -1.5 36 1.5
v -1.5 36 0.5
v -1.5 36 -0.5
v -1.5 36 -1.5
v -1.5 37 1.5
v -1.5 37 -0.5
v 0.5 35 1.5
v 0.5 35 0.5
v 0.5 36 1.5
v 0.5 36 0.5
v 2.5 34 1.5
v 2.5 34 0.5
v 2.5 35 1.5
v 2.5 35 0.5
v 4.5 33 1.5
v 4.5 33 0.5
v 4.5 34 1.5
v 4.5 34 0.5
v -5.5 33 1.5
v -5.5 33 0.5
v -5.5 34 1.5
v -5.5 34 0.5
v -3.5 34 1.5
v -3.5 34 0.5
v -3.5 35 1.5
v -3.5 35 0.5
v -1.5 35 1.5
v -1.5 35 0.5
v -1.5 36 1.5
v -1.5 36 0.5
v 0.5 0 -0.5
v 0.5 0 -1.5
v 0.5 2 -0.5
v 0.5 2 -1.5
v 0.5 3 -0.5
v 0.5 3 -1.5
v 0.5 4 -0.5
v 0.5 4 -1.5
v 0.5 5 -0.5
v 0.5 5 -1.5
v 0.5 18 -0.5
v 0.5 18 -1.5
v 0.5 19 -0.5
v 0.5 19 -1.5
v 0.5 20 -0.5
v 0.5 20 -1.5
v 0.5 21 -0.5
v 0.5 21 -1.5
v 0.5 23 -0.5
v 0.5 24 -0.5
v 0.5 25 -0.5
v 0.5 27 -0.5
v 0.5 28 -0.5
v 0.5 29 -0.5
v 0.5 30 -0.5
v 0.5 35 0.5
v 0.5 35 -0.5
v 0.5 36 1.5
v 0.5 36 0.5
v 0.5 36 -0.5
v 0.5 36 -1.5
v 0.5 37 1.5
v 0.5 37 -0.5
v 2.5 34 0.5
v 2.5 34 -0.5
v 2.5 35 1.5
v 2.5 35 0.5
v 2.5 35 -0.5
v 2.5 36 1.5
v 2.5 36 0.5
v 4.5 23 0.5
v 4.5 23 -0.5
v 4.5 24 0.5
v 4.5 24 -0.5
v 4.5 33 0.5
v 4.5 33 -0.5
v 4.5 34 1.5
v 4.5 34 0.5
v 4.5 34 -0.5
v 4.5 35 1.5
v 4.5 35 0.5
v 5.5 33 1.5
v 5.5 33 0.5
v 5.5 34 1.5
v 5.5 34 0.5
v -6.5 33 1.5
v -6.5 34 1.5
v -5.5 33 1.5
v -5.5 34 1.5
v -5.5 35 1.5
v -3.5 34 1.5
v -3.5 35 1.5
v -3.5 36 1.5
v -1.5 35 1.5
v -1.5 36 1.5
v -1.5 37 1.5
v 0.5 35 1.5
v 0.5 36 1.5
v 0.5 37 1.5
v 2.5 34 1.5
v 2.5 35 1.5
v 2.5 36 1.5
v 4.5 33 1.5
v 4.5 34 1.5
v 4.5 35 1.5
v 5.5 33 1.5
v 5.5 34 1.5
v -5.5 23 0.5
v -5.5 24 0.5
v -5.5 32 0.5
v -5.5 33 0.5
v -5.5 34 0.5
v -4.5 23 0.5
v -4.5 24 0.5
v -4.5 25 0.5
v -4.5 32 0.5
v -4.5 33 0.5
v -3.5 24 0.5
v -3.5 25 0.5
v -3.5 27 0.5
v -3.5 28 0.5
v -3.5 34 0.5
v -3.5 35 0.5
v -2.5 27 0.5
v -2.5 28 0.5
v -2.5 31 0.5
v -2.5 33 0.5
v -1.5 26 0.5
v -1.5 27 0.5
v -1.5 28 0.5
v -1.5 29 0.5
v -1.5 31 0.5
v -1.5 32 0.5
v -1.5 35 0.5
v -1.5 36 0.5
v -0.5 23 0.5
v -0.5 24 0.5
v -0.5 27 0.5
v -0.5 28 0.5
v -0.5 30 0.5
v -0.5 32 0.5
v -0.5 33 0.5
v 0.5 23 0.5
v 0.5 24 0.5
v 0.5 25 0.5
v 0.5 26 0.5
v 0.5 27 0.5
v 0.5 28 0.5
v 0.5 29 0.5
v 0.5 30 0.5
v 0.5 32 0.5
v 0.5 35 0.5
v 0.5 36 0.5
v 1.5 23 0.5
v 1.5 24 0.5
v 1.5 25 0.5
v 1.5 27 0.5
v 1.5 28 0.5
v 1.5 29 0.5
v 1.5 30 0.5
v 2.5 24 0.5
v 2.5 26 0.5
v 2.5 34 0.5
v 2.5 35 0.5
v 3.5 24 0.5
v 3.5 26 0.5
v 3.5 33 0.5
v 3.5 34 0.5
v 4.5 23 0.5
v 4.5 24 0.5
v 4.5 33 0.5
v 4.5 34 0.5
v -1.5 0 -0.5
v -1.5 1 -0.5
v -1.5 2 -0.5
v -1.5 4 -0.5
v -1.5 5 -0.5
v -1.5 6 -0.5
v -1.5 7 -0.5
v -1.5 23 -0.5
v -0.5 1 -0.5
v -0.5 2 -0.5
v -0.5 3 -0.5
v -0.5 6 -0.5
v -0.5 7 -0.5
v -0.5 18 -0.5
v -0.5 19 -0.5
v -0.5 20 -0.5
v -0.5 21 -0.5
v -0.5 23 -0.5
v 0.5 0 -0.5
v 0.5 2 -0.5
v 0.5 3 -0.5
v 0.5 4 -0.5
v 0.5 5 -0.5
v 0.5 18 -0.5
v 0.5 19 -0.5
v 0.5 20 -0.5
v 0.5 21 -0.5
v 0.5 23 -0.5
v -6.5 33 0.5
v -6.5 34 0.5
v -5.5 33 0.5
v -5.5 34 0.5
v -5.5 35 0.5
v -3.5 34 0.5
v -3.5 35 0.5
v -3.5 36 0.5
v -1.5 35 0.5
v -1.5 36 0.5
v 0.5 35 0.5
v 0.5 36 0.5
v 2.5 34 0.5
v 2.5 35 0.5
v 2.5 36 0.5
v 3.5 34 0.5
v 4.5 33 0.5
v 4.5 34 0.5
v 4.5 35 0.5
v 5.5 33 0.5
v 5.5 34 0.5
v -5.5 23 -0.5
v -5.5 24 -0.5
v -5.5 32 -0.5
v -5.5 33 -0.5
v -5.5 34 -0.5
v -4.5 23 -0.5
v -4.5 24 -0.5
v -4.5 25 -0.5
v -4.5 32 -0.5
v -4.5 33 -0.5
v -3.5 24 -0.5
v -3.5 25 -0.5
v -3.5 27 -0.5
v -3.5 28 -0.5
v -3.5 34 -0.5
v -3.5 35 -0.5
v -2.5 27 -0.5
v -2.5 28 -0.5
v -2.5 31 -0.5
v -2.5 33 -0.5
v -1.5 23 -0.5
v -1.5 31 -0.5
v -1.5 33 -0.5
v -1.5 35 -0.5
v -1.5 36 -0.5
v -1.5 37 -0.5
v 0.5 23 -0.5
v 0.5 24 -0.5
v 0.5 25 -0.5
v 0.5 27 -0.5
v 0.5 28 -0.5
v 0.5 29 -0.5
v 0.5 30 -0.5
v 0.5 35 -0.5
v 0.5 36 -0.5
v 0.5 37 -0.5
v 1.5 23 -0.5
v 1.5 24 -0.5
v 1.5 25 -0.5
v 1.5 27 -0.5
v 1.5 28 -0.5
v 1.5 29 -0.5
v 1.5 30 -0.5
v 2.5 24 -0.5
v 2.5 26 -0.5
v 2.5 34 -0.5
v 2.5 35 -0.5
v 3.5 24 -0.5
v 3.5 26 -0.5
v 3.5 33 -0.5
v 3.5 34 -0.5
v 4.5 23 -0.5
v 4.5 24 -0.5
v 4.5 33 -0.5
v 4.5 34 -0.5
v -1.5 0 -1.5
v -1.5 1 -1.5
v -1.5 2 -1.5
v -1.5 4 -1.5
v -1.5 5 -1.5
v -1.5 6 -1.5
v -1.5 7 -1.5
v -1.5 36 -1.5
v -0.5 1 -1.5
v -0.5 2 -1.5
v -0.5 3 -1.5
v -0.5 6 -1.5
v -0.5 7 -1.5
v -0.5 18 -1.5
v -0.5 19 -1.5
v -0.5 20 -1.5
v -0.5 21 -1.5
v 0.5 0 -1.5
v 0.5 2 -1.5
v 0.5 3 -1.5
v 0.5 4 -1.5
v 0.5 5 -1.5
v 0.5 18 -1.5
v 0.5 19 -1.5
v 0.5 20 -1.5
v 0.5 21 -1.5
v 0.5 36 -1.5
v -1.5 0 -0.5
v 0.5 0 -0.5
v -1.5 0 -1.5
v 0.5 0 -1.5
v -5.5 23 0.5
v -4.5 23 0.5
v -0.5 23 0.5
v 0.5 23 0.5
v 1.5 23 0.5
v 4.5 23 0.5
v -5.5 23 -0.5
v -4.5 23 -0.5
v -1.5 23 -0.5
v -0.5 23 -0.5
v 0.5 23 -0.5
v 1.5 23 -0.5
v 4.5 23 -0.5
v -6.5 33 1.5
v -5.5 33 1.5
v 4.5 33 1.5
v 5.5 33 1.5
v -6.5 33 0.5
v -5.5 33 0.5
v 4.5 33 0.5
v 5.5 33 0.5
v -5.5 34 1.5
v -3.5 34 1.5
v 2.5 34 1.5
v 4.5 34 1.5
v -5.5 34 0.5
v -3.5 34 0.5
v 2.5 34 0.5
v 3.5 34 0.5
v 4.5 34 0.5
v -3.5 35 1.5
v -1.5 35 1.5
v 0.5 35 1.5
v 2.5 35 1.5
v -3.5 35 0.5
v -1.5 35 0.5
v 0.5 35 0.5
v 2.5 35 0.5
v -1.5 36 1.5
v 0.5 36 1.5
v -1.5 36 0.5
v 0.5 36 0.5
v -6.5 34 1.5
v -5.5 34 1.5
v 4.5 34 1.5
v 5.5 34 1.5
v -6.5 34 0.5
v -5.5 34 0.5
v -3.5 34 0.5
v 2.5 34 0.5
v 3.5 34 0.5
v 4.5 34 0.5
v 5.5 34 0.5
v -5.5 34 -0.5
v -3.5 34 -0.5
v 2.5 34 -0.5
v 3.5 34 -0.5
v 4.5 34 -0.5
v -5.5 35 1.5
v -3.5 35 1.5
v 2.5 35 1.5
v 4.5 35 1.5
v -5.5 35 0.5
v -3.5 35 0.5
v -1.5 35 0.5
v 0.5 35 0.5
v 2.5 35 0.5
v 4.5 35 0.5
v -3.5 35 -0.5
v -1.5 35 -0.5
v 0.5 35 -0.5
v 2.5 35 -0.5
v -3.5 36 1.5
v -1.5 36 1.5
v 0.5 36 1.5
v 2.5 36 1.5
v -3.5 36 0.5
v -1.5 36 0.5
v 0.5 36 0.5
v 2.5 36 0.5
v -1.5 36 -0.5
v 0.5 36 -0.5
v -1.5 36 -1.5
v 0.5 36 -1.5
v -1.5 37 1.5
v 0.5 37 1.5
v -1.5 37 -0.5
v 0.5 37 -0.5

# faces
f 3/1/1 2/1/1 1/1/1
f 4/1/1 2/1/1 3/1/1
f 7/2/1 6/2/1 5/2/1
f 8/2/1 6/2/1 7/2/1
f 9/3/1 8/3/1 7/3/1
f 10/3/1 8/3/1 9/3/1
f 11/2/1 10/2/1 9/2/1
f 12/2/1 10/2/1 11/2/1
f 14/3/1 12/3/1 11/3/1
f 15/3/1 12/3/1 14/3/1
f 16/1/1 14/1/1 13/1/1
f 17/1/1 14/1/1 16/1/1
f 21/3/1 19/3/1 18/3/1
f 22/3/1 19/3/1 21/3/1
f 23/1/1 21/1/1 20/1/1
f 24/1/1 21/1/1 23/1/1
f 27/3/1 26/3/1 25/3/1
f 28/3/1 26/3/1 27/3/1
f 29/2/1 28/2/1 27/2/1
f 30/2/1 28/2/1 29/2/1
f 31/3/1 30/3/1 29/3/1
f 32/3/1 30/3/1 31/3/1
f 33/2/1 32/2/1 31/2/1
f 34/2/1 32/2/1 33/2/1
f 35/3/1 34/3/1 33/3/1
f 36/3/1 34/3/1 35/3/1
f 37/2/1 36/2/1 35/2/1
f 38/2/1 36/2/1 37/2/1
f 39/3/1 38/3/1 37/3/1
f 40/3/1 38/3/1 39/3/1
f 41/3/1 38/3/1 40/3/1
f 43/3/1 38/3/1 41/3/1
f 45/3/1 43/3/1 42/3/1
f 46/3/1 38/3/1 43/3/1
f 46/3/1 43/3/1 45/3/1
f 47/3/1 38/3/1 46/3/1
f 48/1/1 45/1/1 44/1/1
f 48/1/1 46/1/1 45/1/1
f 49/1/1 46/1/1 48/1/1
f 52/1/1 51/1/1 50/1/1
f 53/1/1 51/1/1 52/1/1
f 56/1/1 55/1/1 54/1/1
f 57/1/1 55/1/1 56/1/1
f 60/1/1 59/1/1 58/1/1
f 61/1/1 59/1/1 60/1/1
f 62/1/2 63/1/2 64/1/2
f 64/1/2 63/1/2 65/1/2
f 66/1/2 67/1/2 68/1/2
f 68/1/2 67/1/2 69/1/2
f 70/1/2 71/1/2 72/1/2
f 72/1/2 71/1/2 73/1/2
f 74/3/2 75/3/2 76/3/2
f 76/3/2 75/3/2 77/3/2
f 76/2/2 77/2/2 78/2/2
f 78/2/2 77/2/2 79/2/2
f 78/3/2 79/3/2 80/3/2
f 80/3/2 79/3/2 81/3/2
f 80/2/2 81/2/2 82/2/2
f 82/2/2 81/2/2 83/2/2
f 82/3/2 83/3/2 84/3/2
f 84/3/2 83/3/2 85/3/2
f 84/2/2 85/2/2 86/2/2
f 86/2/2 85/2/2 87/2/2
f 86/3/2 87/3/2 88/3/2
f 88/3/2 87/3/2 89/3/2
f 88/2/2 89/2/2 90/2/2
f 90/2/2 89/2/2 91/2/2
f 90/3/2 91/3/2 92/3/2
f 92/3/2 91/3/2 93/3/2
f 93/3/2 91/3/2 94/3/2
f 94/3/2 91/3/2 95/3/2
f 95/3/2 91/3/2 96/3/2
f 96/3/2 91/3/2 97/3/2
f 97/3/2 91/3/2 98/3/2
f 98/3/2 91/3/2 100/3/2
f 99/3/2 100/3/2 102/3/2
f 100/3/2 91/3/2 103/3/2
f 102/3/2 100/3/2 103/3/2
f 103/3/2 91/3/2 104/3/2
f 101/1/2 102/1/2 105/1/2
f 102/1/2 103/1/2 105/1/2
f 105/1/2 103/1/2 106/1/2
f 107/3/2 108/3/2 110/3/2
f 110/3/2 108/3/2 111/3/2
f 109/1/2 110/1/2 112/1/2
f 112/1/2 110/1/2 113/1/2
f 114/2/2 115/2/2 116/2/2
f 116/2/2 115/2/2 117/2/2
f 116/3/2 117/3/2 118/3/2
f 118/3/2 117/3/2 119/3/2
f 118/2/2 119/2/2 121/2/2
f 121/2/2 119/2/2 122/2/2
f 120/1/2 121/1/2 123/1/2
f 123/1/2 121/1/2 124/1/2
f 125/1/2 126/1/2 127/1/2
f 127/1/2 126/1/2 128/1/2
f 131/1/3 130/1/3 129/1/3
f 132/1/3 130/1/3 131/1/3
f 134/1/3 133/1/3 132/1/3
f 135/1/3 133/1/3 134/1/3
f 137/1/3 136/1/3 135/1/3
f 138/1/3 136/1/3 137/1/3
f 141/1/3 139/1/3 138/1/3
f 142/1/3 139/1/3 141/1/3
f 144/1/3 141/1/3 140/1/3
f 145/1/3 141/1/3 144/1/3
f 147/1/3 144/1/3 143/1/3
f 148/1/3 144/1/3 147/1/3
f 149/1/3 147/1/3 146/1/3
f 150/1/3 147/1/3 149/1/3
f 156/2/3 152/2/3 151/2/3
f 157/3/3 153/3/3 152/3/3
f 157/2/3 152/2/3 156/2/3
f 158/3/3 153/3/3 157/3/3
f 159/2/3 154/2/3 153/2/3
f 159/3/3 153/3/3 158/3/3
f 160/3/3 155/3/3 154/3/3
f 160/2/3 154/2/3 159/2/3
f 161/2/3 158/2/3 157/2/3
f 161/3/3 157/3/3 156/3/3
f 162/3/3 159/3/3 158/3/3
f 162/2/3 158/2/3 161/2/3
f 162/3/3 160/3/3 159/3/3
f 163/3/3 160/3/3 162/3/3
f 164/3/3 160/3/3 163/3/3
f 165/3/3 155/3/3 160/3/3
f 165/3/3 160/3/3 164/3/3
f 167/2/3 164/2/3 163/2/3
f 167/3/3 162/3/3 161/3/3
f 167/3/3 163/3/3 162/3/3
f 168/3/3 166/3/3 165/3/3
f 168/2/3 164/2/3 167/2/3
f 168/3/3 165/3/3 164/3/3
f 169/3/3 166/3/3 168/3/3
f 170/3/3 166/3/3 169/3/3
f 171/3/3 167/3/3 161/3/3
f 171/3/3 168/3/3 167/3/3
f 171/3/3 169/3/3 168/3/3
f 172/3/3 169/3/3 171/3/3
f 173/3/3 169/3/3 172/3/3
f 174/3/3 169/3/3 173/3/3
f 175/2/3 170/2/3 169/2/3
f 175/3/3 169/3/3 174/3/3
f 176/2/3 170/2/3 175/2/3
f 177/3/3 166/3/3 170/3/3
f 179/3/3 161/3/3 156/3/3
f 179/3/3 171/3/3 161/3/3
f 180/3/3 171/3/3 179/3/3
f 181/2/3 172/2/3 171/2/3
f 181/3/3 173/3/3 172/3/3
f 182/2/3 174/2/3 173/2/3
f 182/3/3 173/3/3 181/3/3
f 183/3/3 175/3/3 174/3/3
f 183/3/3 176/3/3 175/3/3
f 184/2/3 170/2/3 176/2/3
f 184/3/3 176/3/3 183/3/3
f 185/3/3 178/3/3 177/3/3
f 185/2/3 170/2/3 184/2/3
f 185/3/3 177/3/3 170/3/3
f 186/2/3 180/2/3 179/2/3
f 187/3/3 171/3/3 180/3/3
f 187/2/3 180/2/3 186/2/3
f 188/3/3 171/3/3 187/3/3
f 189/2/3 181/2/3 171/2/3
f 189/3/3 171/3/3 188/3/3
f 189/2/3 182/2/3 181/2/3
f 190/2/3 182/2/3 189/2/3
f 191/2/3 174/2/3 182/2/3
f 191/2/3 182/2/3 190/2/3
f 192/3/3 183/3/3 174/3/3
f 192/2/3 174/2/3 191/2/3
f 193/2/3 184/2/3 183/2/3
f 193/3/3 183/3/3 192/3/3
f 194/3/3 185/3/3 184/3/3
f 194/2/3 184/2/3 193/2/3
f 195/3/3 178/3/3 185/3/3
f 195/3/3 185/3/3 194/3/3
f 196/3/3 178/3/3 195/3/3
f 197/3/3 187/3/3 186/3/3
f 198/2/3 188/2/3 187/2/3
f 198/3/3 187/3/3 197/3/3
f 199/3/3 190/3/3 189/3/3
f 199/2/3 188/2/3 198/2/3
f 199/3/3 189/3/3 188/3/3
f 200/2/3 191/2/3 190/2/3
f 200/3/3 190/3/3 199/3/3
f 201/3/3 192/3/3 191/3/3
f 201/2/3 191/2/3 200/2/3
f 202/2/3 193/2/3 192/2/3
f 202/3/3 192/3/3 201/3/3
f 203/3/3 194/3/3 193/3/3
f 203/2/3 193/2/3 202/2/3
f 203/3/3 195/3/3 194/3/3
f 204/3/3 200/3/3 199/3/3
f 204/3/3 199/3/3 198/3/3
f 204/3/3 203/3/3 202/3/3
f 204/3/3 201/3/3 200/3/3
f 204/3/3 202/3/3 201/3/3
f 204/2/3 198/2/3 197/2/3
f 205/3/3 203/3/3 204/3/3
f 206/3/3 195/3/3 203/3/3
f 206/3/3 203/3/3 205/3/3
f 207/3/3 195/3/3 206/3/3
f 208/2/3 205/2/3 204/2/3
f 208/2/3 204/2/3 197/2/3
f 209/3/3 206/3/3 205/3/3
f 209/2/3 205/2/3 208/2/3
f 210/3/3 206/3/3 209/3/3
f 211/3/3 206/3/3 210/3/3
f 212/2/3 208/2/3 197/2/3
f 213/3/3 209/3/3 208/3/3
f 213/2/3 208/2/3 212/2/3
f 213/3/3 210/3/3 209/3/3
f 214/2/3 211/2/3 210/2/3
f 214/3/3 210/3/3 213/3/3
f 215/2/3 211/2/3 214/2/3
f 224/3/3 217/3/3 216/3/3
f 224/2/3 218/2/3 217/2/3
f 225/3/3 219/3/3 218/3/3
f 225/2/3 218/2/3 224/2/3
f 226/3/3 219/3/3 225/3/3
f 227/2/3 222/2/3 221/2/3
f 227/3/3 221/3/3 220/3/3
f 228/3/3 223/3/3 222/3/3
f 228/2/3 222/2/3 227/2/3
f 229/3/3 223/3/3 228/3/3
f 230/3/3 223/3/3 229/3/3
f 231/3/3 223/3/3 230/3/3
f 232/3/3 223/3/3 231/3/3
f 233/3/3 223/3/3 232/3/3
f 234/3/3 224/3/3 216/3/3
f 234/3/3 225/3/3 224/3/3
f 235/2/3 226/2/3 225/2/3
f 235/3/3 225/3/3 234/3/3
f 236/3/3 219/3/3 226/3/3
f 236/2/3 226/2/3 235/2/3
f 237/2/3 220/2/3 219/2/3
f 237/3/3 219/3/3 236/3/3
f 238/3/3 227/3/3 220/3/3
f 238/2/3 220/2/3 237/2/3
f 238/3/3 228/3/3 227/3/3
f 238/3/3 229/3/3 228/3/3
f 239/2/3 230/2/3 229/2/3
f 239/3/3 229/3/3 238/3/3
f 240/3/3 231/3/3 230/3/3
f 240/2/3 230/2/3 239/2/3
f 241/2/3 232/2/3 231/2/3
f 241/3/3 231/3/3 240/3/3
f 242/3/3 233/3/3 232/3/3
f 242/2/3 232/2/3 241/2/3
f 243/3/3 233/3/3 242/3/3
f 244/1/4 245/1/4 246/1/4
f 246/1/4 245/1/4 247/1/4
f 247/1/4 248/1/4 249/1/4
f 249/1/4 248/1/4 250/1/4
f 250/1/4 251/1/4 252/1/4
f 252/1/4 251/1/4 253/1/4
f 254/1/4 255/1/4 257/1/4
f 257/1/4 255/1/4 258/1/4
f 256/1/4 257/1/4 259/1/4
f 259/1/4 257/1/4 261/1/4
f 261/1/4 257/1/4 262/1/4
f 260/1/4 261/1/4 263/1/4
f 263/1/4 261/1/4 264/1/4
f 265/2/4 266/2/4 270/2/4
f 266/3/4 267/3/4 271/3/4
f 270/2/4 266/2/4 271/2/4
f 271/3/4 267/3/4 272/3/4
f 267/2/4 268/2/4 273/2/4
f 272/3/4 267/3/4 273/3/4
f 268/3/4 269/3/4 274/3/4
f 273/2/4 268/2/4 274/2/4
f 271/2/4 272/2/4 275/2/4
f 270/3/4 271/3/4 275/3/4
f 272/3/4 273/3/4 276/3/4
f 275/2/4 272/2/4 276/2/4
f 273/3/4 274/3/4 276/3/4
f 276/3/4 274/3/4 277/3/4
f 277/3/4 274/3/4 278/3/4
f 274/3/4 269/3/4 279/3/4
f 278/3/4 274/3/4 279/3/4
f 277/2/4 278/2/4 281/2/4
f 275/3/4 276/3/4 281/3/4
f 276/3/4 277/3/4 281/3/4
f 279/3/4 280/3/4 282/3/4
f 281/2/4 278/2/4 282/2/4
f 278/3/4 279/3/4 282/3/4
f 282/3/4 280/3/4 283/3/4
f 283/3/4 280/3/4 284/3/4
f 270/3/4 275/3/4 285/3/4
f 275/3/4 281/3/4 285/3/4
f 281/3/4 282/3/4 285/3/4
f 282/3/4 283/3/4 285/3/4
f 283/2/4 284/2/4 286/2/4
f 285/3/4 283/3/4 286/3/4
f 284/3/4 280/3/4 287/3/4
f 286/2/4 284/2/4 287/2/4
f 287/3/4 280/3/4 288/3/4
f 289/1/4 290/1/4 299/1/4
f 299/1/4 290/1/4 300/1/4
f 291/3/4 292/3/4 301/3/4
f 292/2/4 293/2/4 302/2/4
f 301/3/4 292/3/4 302/3/4
f 293/3/4 294/3/4 303/3/4
f 302/2/4 293/2/4 303/2/4
f 294/2/4 295/2/4 304/2/4
f 303/3/4 294/3/4 304/3/4
f 295/3/4 296/3/4 305/3/4
f 304/2/4 295/2/4 305/2/4
f 296/2/4 297/2/4 306/2/4
f 305/3/4 296/3/4 306/3/4
f 297/3/4 298/3/4 307/3/4
f 306/2/4 297/2/4 307/2/4
f 305/3/4 306/3/4 308/3/4
f 301/2/4 302/2/4 308/2/4
f 306/3/4 307/3/4 308/3/4
f 302/3/4 303/3/4 308/3/4
f 304/3/4 305/3/4 308/3/4
f 303/3/4 304/3/4 308/3/4
f 308/3/4 307/3/4 309/3/4
f 307/3/4 298/3/4 310/3/4
f 309/3/4 307/3/4 310/3/4
f 310/3/4 298/3/4 311/3/4
f 308/2/4 309/2/4 312/2/4
f 301/2/4 308/2/4 312/2/4
f 309/3/4 310/3/4 313/3/4
f 312/2/4 309/2/4 313/2/4
f 313/3/4 310/3/4 314/3/4
f 314/3/4 310/3/4 315/3/4
f 301/2/4 312/2/4 316/2/4
f 312/3/4 313/3/4 317/3/4
f 316/2/4 312/2/4 317/2/4
f 313/3/4 314/3/4 317/3/4
f 314/2/4 315/2/4 318/2/4
f 317/3/4 314/3/4 318/3/4
f 318/2/4 315/2/4 319/2/4
f 320/3/4 321/3/4 328/3/4
f 321/2/4 322/2/4 328/2/4
f 322/3/4 323/3/4 329/3/4
f 328/2/4 322/2/4 329/2/4
f 329/3/4 323/3/4 330/3/4
f 325/2/4 326/2/4 331/2/4
f 324/3/4 325/3/4 331/3/4
f 326/3/4 327/3/4 332/3/4
f 331/2/4 326/2/4 332/2/4
f 332/3/4 327/3/4 333/3/4
f 333/3/4 327/3/4 334/3/4
f 334/3/4 327/3/4 335/3/4
f 335/3/4 327/3/4 336/3/4
f 320/3/4 328/3/4 337/3/4
f 328/3/4 329/3/4 337/3/4
f 329/2/4 330/2/4 338/2/4
f 337/3/4 329/3/4 338/3/4
f 330/3/4 323/3/4 339/3/4
f 338/2/4 330/2/4 339/2/4
f 323/2/4 324/2/4 340/2/4
f 339/3/4 323/3/4 340/3/4
f 324/3/4 331/3/4 341/3/4
f 340/2/4 324/2/4 341/2/4
f 331/3/4 332/3/4 341/3/4
f 332/3/4 333/3/4 341/3/4
f 333/2/4 334/2/4 342/2/4
f 341/3/4 333/3/4 342/3/4
f 334/3/4 335/3/4 343/3/4
f 342/2/4 334/2/4 343/2/4
f 335/2/4 336/2/4 344/2/4
f 343/3/4 335/3/4 344/3/4
f 336/3/4 327/3/4 345/3/4
f 344/2/4 336/2/4 345/2/4
f 345/3/4 327/3/4 346/3/4
f 349/3/5 348/3/5 347/3/5
f 350/3/5 348/3/5 349/3/5
f 357/2/5 352/2/5 351/2/5
f 358/3/5 353/3/5 352/3/5
f 358/2/5 352/2/5 357/2/5
f 359/3/5 353/3/5 358/3/5
f 360/2/5 354/2/5 353/2/5
f 360/3/5 353/3/5 359/3/5
f 361/3/5 355/3/5 354/3/5
f 361/2/5 354/2/5 360/2/5
f 362/2/5 356/2/5 355/2/5
f 362/3/5 355/3/5 361/3/5
f 363/2/5 356/2/5 362/2/5
f 368/1/5 365/1/5 364/1/5
f 369/1/5 365/1/5 368/1/5
f 370/1/5 367/1/5 366/1/5
f 371/1/5 367/1/5 370/1/5
f 376/1/5 373/1/5 372/1/5
f 377/1/5 373/1/5 376/1/5
f 378/1/5 375/1/5 374/1/5
f 379/1/5 375/1/5 378/1/5
f 380/1/5 375/1/5 379/1/5
f 385/1/5 382/1/5 381/1/5
f 386/1/5 382/1/5 385/1/5
f 387/1/5 384/1/5 383/1/5
f 388/1/5 384/1/5 387/1/5
f 391/1/5 390/1/5 389/1/5
f 392/1/5 390/1/5 391/1/5
f 393/1/6 394/1/6 397/1/6
f 397/1/6 394/1/6 398/1/6
f 395/1/6 396/1/6 402/1/6
f 402/1/6 396/1/6 403/1/6
f 398/3/6 399/3/6 404/3/6
f 404/3/6 399/3/6 405/3/6
f 400/3/6 401/3/6 406/3/6
f 401/2/6 402/2/6 407/2/6
f 406/3/6 401/3/6 407/3/6
f 407/2/6 402/2/6 408/2/6
f 409/1/6 410/1/6 413/1/6
f 413/1/6 410/1/6 414/1/6
f 411/1/6 412/1/6 417/1/6
f 417/1/6 412/1/6 418/1/6
f 414/3/6 415/3/6 419/3/6
f 419/3/6 415/3/6 420/3/6
f 416/3/6 417/3/6 421/3/6
f 421/3/6 417/3/6 422/3/6
f 423/1/6 424/1/6 427/1/6
f 427/1/6 424/1/6 428/1/6
f 425/1/6 426/1/6 429/1/6
f 429/1/6 426/1/6 430/1/6
f 431/3/6 432/3/6 433/3/6
f 433/3/6 432/3/6 434/3/6
f 435/1/6 436/1/6 437/1/6
f 437/1/6 436/1/6 438/1/6
