# MagicaVoxel @ Ephtracy

# group
g mathuoHonden-4

# material
mtllib mathuoHonden-4.mtl
usemtl palette

# normals
vn -1 0 0
vn 1 0 0
vn 0 0 1
vn 0 0 -1
vn 0 -1 0
vn 0 1 0

# texcoords
vt 0.837891 0.5
vt 0.892578 0.5

# verts
v -8 22 12
v -8 22 -12
v -8 23 12
v -8 23 -12
v -7 0 9
v -7 0 8
v -7 0 -8
v -7 0 -9
v -7 13 9
v -7 13 8
v -7 13 -8
v -7 13 -9
v -6 6 8
v -6 6 -8
v -6 13 9
v -6 13 8
v -6 13 -8
v -6 13 -9
v -6 14 8
v -6 14 -8
v -6 22 9
v -6 22 8
v -6 22 -8
v -6 22 -9
v -6 23 12
v -6 23 -12
v -6 24 12
v -6 24 -12
v -4 13 8
v -4 13 -8
v -4 14 8
v -4 14 -8
v -4 24 12
v -4 24 -12
v -4 25 12
v -4 25 -12
v -2 13 8
v -2 13 -8
v -2 14 8
v -2 14 -8
v -2 25 12
v -2 25 -12
v -2 26 12
v -2 26 -12
v -1 26 12
v -1 26 -12
v -1 27 12
v -1 27 -12
v 1 13 8
v 1 13 -8
v 1 14 8
v 1 14 -8
v 1 24 12
v 1 24 -12
v 1 25 12
v 1 25 -12
v 3 13 8
v 3 13 -8
v 3 14 8
v 3 14 -8
v 3 23 12
v 3 23 -12
v 3 24 12
v 3 24 -12
v 4 5 9
v 4 5 8
v 4 5 -8
v 4 5 -9
v 4 6 9
v 4 6 8
v 4 6 -8
v 4 6 -9
v 5 0 9
v 5 0 8
v 5 0 -8
v 5 0 -9
v 5 5 9
v 5 5 8
v 5 5 -8
v 5 5 -9
v 5 7 8
v 5 7 -8
v 5 14 9
v 5 14 8
v 5 14 -8
v 5 14 -9
v 5 22 12
v 5 22 9
v 5 22 8
v 5 22 -8
v 5 22 -9
v 5 22 -12
v 5 23 12
v 5 23 -12
v -5 0 9
v -5 0 8
v -5 0 -8
v -5 0 -9
v -5 5 9
v -5 5 8
v -5 5 -8
v -5 5 -9
v -5 7 8
v -5 7 -8
v -5 14 9
v -5 14 8
v -5 14 -8
v -5 14 -9
v -5 22 12
v -5 22 9
v -5 22 8
v -5 22 -8
v -5 22 -9
v -5 22 -12
v -5 23 12
v -5 23 -12
v -4 5 9
v -4 5 8
v -4 5 -8
v -4 5 -9
v -4 6 9
v -4 6 8
v -4 6 -8
v -4 6 -9
v -3 13 8
v -3 13 -8
v -3 14 8
v -3 14 -8
v -3 23 12
v -3 23 -12
v -3 24 12
v -3 24 -12
v -1 13 8
v -1 13 -8
v -1 14 8
v -1 14 -8
v -1 24 12
v -1 24 -12
v -1 25 12
v -1 25 -12
v 1 26 12
v 1 26 -12
v 1 27 12
v 1 27 -12
v 2 13 8
v 2 13 -8
v 2 14 8
v 2 14 -8
v 2 25 12
v 2 25 -12
v 2 26 12
v 2 26 -12
v 4 13 8
v 4 13 -8
v 4 14 8
v 4 14 -8
v 4 24 12
v 4 24 -12
v 4 25 12
v 4 25 -12
v 6 6 8
v 6 6 -8
v 6 13 9
v 6 13 8
v 6 13 -8
v 6 13 -9
v 6 14 8
v 6 14 -8
v 6 22 9
v 6 22 8
v 6 22 -8
v 6 22 -9
v 6 23 12
v 6 23 -12
v 6 24 12
v 6 24 -12
v 7 0 9
v 7 0 8
v 7 0 -8
v 7 0 -9
v 7 13 9
v 7 13 8
v 7 13 -8
v 7 13 -9
v 8 22 12
v 8 22 -12
v 8 23 12
v 8 23 -12
v -8 22 12
v -8 23 12
v -6 23 12
v -6 24 12
v -5 22 12
v -5 23 12
v -4 24 12
v -4 25 12
v -3 23 12
v -3 24 12
v -2 25 12
v -2 26 12
v -1 24 12
v -1 25 12
v -1 26 12
v -1 27 12
v 1 24 12
v 1 25 12
v 1 26 12
v 1 27 12
v 2 25 12
v 2 26 12
v 3 23 12
v 3 24 12
v 4 24 12
v 4 25 12
v 5 22 12
v 5 23 12
v 6 23 12
v 6 24 12
v 8 22 12
v 8 23 12
v -7 0 9
v -7 13 9
v -6 13 9
v -6 22 9
v -5 0 9
v -5 5 9
v -5 14 9
v -5 22 9
v -4 5 9
v -4 6 9
v 4 5 9
v 4 6 9
v 5 0 9
v 5 5 9
v 5 14 9
v 5 22 9
v 6 13 9
v 6 22 9
v 7 0 9
v 7 13 9
v -7 0 -8
v -7 13 -8
v -6 6 -8
v -6 13 -8
v -6 14 -8
v -6 22 -8
v -5 0 -8
v -5 5 -8
v -5 7 -8
v -5 14 -8
v -5 22 -8
v -4 5 -8
v -4 6 -8
v -4 13 -8
v -4 14 -8
v -3 13 -8
v -3 14 -8
v -2 13 -8
v -2 14 -8
v -1 13 -8
v -1 14 -8
v 1 13 -8
v 1 14 -8
v 2 13 -8
v 2 14 -8
v 3 13 -8
v 3 14 -8
v 4 5 -8
v 4 6 -8
v 4 13 -8
v 4 14 -8
v 5 0 -8
v 5 5 -8
v 5 7 -8
v 5 14 -8
v 5 22 -8
v 6 6 -8
v 6 13 -8
v 6 14 -8
v 6 22 -8
v 7 0 -8
v 7 13 -8
v -7 0 8
v -7 13 8
v -6 6 8
v -6 13 8
v -6 14 8
v -6 22 8
v -5 0 8
v -5 5 8
v -5 7 8
v -5 14 8
v -5 22 8
v -4 5 8
v -4 6 8
v -4 13 8
v -4 14 8
v -3 13 8
v -3 14 8
v -2 13 8
v -2 14 8
v -1 13 8
v -1 14 8
v 1 13 8
v 1 14 8
v 2 13 8
v 2 14 8
v 3 13 8
v 3 14 8
v 4 5 8
v 4 6 8
v 4 13 8
v 4 14 8
v 5 0 8
v 5 5 8
v 5 7 8
v 5 14 8
v 5 22 8
v 6 6 8
v 6 13 8
v 6 14 8
v 6 22 8
v 7 0 8
v 7 13 8
v -7 0 -9
v -7 13 -9
v -6 13 -9
v -6 22 -9
v -5 0 -9
v -5 5 -9
v -5 14 -9
v -5 22 -9
v -4 5 -9
v -4 6 -9
v 4 5 -9
v 4 6 -9
v 5 0 -9
v 5 5 -9
v 5 14 -9
v 5 22 -9
v 6 13 -9
v 6 22 -9
v 7 0 -9
v 7 13 -9
v -8 22 -12
v -8 23 -12
v -6 23 -12
v -6 24 -12
v -5 22 -12
v -5 23 -12
v -4 24 -12
v -4 25 -12
v -3 23 -12
v -3 24 -12
v -2 25 -12
v -2 26 -12
v -1 24 -12
v -1 25 -12
v -1 26 -12
v -1 27 -12
v 1 24 -12
v 1 25 -12
v 1 26 -12
v 1 27 -12
v 2 25 -12
v 2 26 -12
v 3 23 -12
v 3 24 -12
v 4 24 -12
v 4 25 -12
v 5 22 -12
v 5 23 -12
v 6 23 -12
v 6 24 -12
v 8 22 -12
v 8 23 -12
v -7 0 9
v -5 0 9
v 5 0 9
v 7 0 9
v -7 0 8
v -5 0 8
v 5 0 8
v 7 0 8
v -7 0 -8
v -5 0 -8
v 5 0 -8
v 7 0 -8
v -7 0 -9
v -5 0 -9
v 5 0 -9
v 7 0 -9
v -5 5 9
v -4 5 9
v 4 5 9
v 5 5 9
v -5 5 8
v -4 5 8
v 4 5 8
v 5 5 8
v -5 5 -8
v -4 5 -8
v 4 5 -8
v 5 5 -8
v -5 5 -9
v -4 5 -9
v 4 5 -9
v 5 5 -9
v -4 6 9
v 4 6 9
v -6 6 8
v -4 6 8
v 4 6 8
v 6 6 8
v -6 6 -8
v -4 6 -8
v 4 6 -8
v 6 6 -8
v -4 6 -9
v 4 6 -9
v -4 13 8
v -3 13 8
v -2 13 8
v -1 13 8
v 1 13 8
v 2 13 8
v 3 13 8
v 4 13 8
v -4 13 -8
v -3 13 -8
v -2 13 -8
v -1 13 -8
v 1 13 -8
v 2 13 -8
v 3 13 -8
v 4 13 -8
v -8 22 12
v -5 22 12
v 5 22 12
v 8 22 12
v -6 22 9
v -5 22 9
v 5 22 9
v 6 22 9
v -6 22 8
v -5 22 8
v 5 22 8
v 6 22 8
v -6 22 -8
v -5 22 -8
v 5 22 -8
v 6 22 -8
v -6 22 -9
v -5 22 -9
v 5 22 -9
v 6 22 -9
v -8 22 -12
v -5 22 -12
v 5 22 -12
v 8 22 -12
v -5 23 12
v -3 23 12
v 3 23 12
v 5 23 12
v -5 23 -12
v -3 23 -12
v 3 23 -12
v 5 23 -12
v -3 24 12
v -1 24 12
v 1 24 12
v 3 24 12
v -3 24 -12
v -1 24 -12
v 1 24 -12
v 3 24 -12
v -1 25 12
v 1 25 12
v -1 25 -12
v 1 25 -12
v -5 7 8
v 5 7 8
v -5 7 -8
v 5 7 -8
v -7 13 9
v -6 13 9
v 6 13 9
v 7 13 9
v -7 13 8
v -6 13 8
v 6 13 8
v 7 13 8
v -7 13 -8
v -6 13 -8
v 6 13 -8
v 7 13 -8
v -7 13 -9
v -6 13 -9
v 6 13 -9
v 7 13 -9
v -5 14 9
v 5 14 9
v -6 14 8
v -5 14 8
v -4 14 8
v -3 14 8
v -2 14 8
v -1 14 8
v 1 14 8
v 2 14 8
v 3 14 8
v 4 14 8
v 5 14 8
v 6 14 8
v -6 14 -8
v -5 14 -8
v -4 14 -8
v -3 14 -8
v -2 14 -8
v -1 14 -8
v 1 14 -8
v 2 14 -8
v 3 14 -8
v 4 14 -8
v 5 14 -8
v 6 14 -8
v -5 14 -9
v 5 14 -9
v -8 23 12
v -6 23 12
v 6 23 12
v 8 23 12
v -8 23 -12
v -6 23 -12
v 6 23 -12
v 8 23 -12
v -6 24 12
v -4 24 12
v 4 24 12
v 6 24 12
v -6 24 -12
v -4 24 -12
v 4 24 -12
v 6 24 -12
v -4 25 12
v -2 25 12
v 2 25 12
v 4 25 12
v -4 25 -12
v -2 25 -12
v 2 25 -12
v 4 25 -12
v -2 26 12
v -1 26 12
v 1 26 12
v 2 26 12
v -2 26 -12
v -1 26 -12
v 1 26 -12
v 2 26 -12
v -1 27 12
v 1 27 12
v -1 27 -12
v 1 27 -12

# faces
f 3/1/1 2/1/1 1/1/1
f 4/1/1 2/1/1 3/1/1
f 9/2/1 6/2/1 5/2/1
f 10/2/1 6/2/1 9/2/1
f 11/2/1 8/2/1 7/2/1
f 12/2/1 8/2/1 11/2/1
f 16/2/1 14/2/1 13/2/1
f 17/2/1 14/2/1 16/2/1
f 19/2/1 16/2/1 15/2/1
f 19/2/1 18/2/1 17/2/1
f 19/2/1 17/2/1 16/2/1
f 20/2/1 18/2/1 19/2/1
f 21/2/1 19/2/1 15/2/1
f 22/2/1 19/2/1 21/2/1
f 23/2/1 18/2/1 20/2/1
f 24/2/1 18/2/1 23/2/1
f 27/1/1 26/1/1 25/1/1
f 28/1/1 26/1/1 27/1/1
f 31/2/1 30/2/1 29/2/1
f 32/2/1 30/2/1 31/2/1
f 35/1/1 34/1/1 33/1/1
f 36/1/1 34/1/1 35/1/1
f 39/2/1 38/2/1 37/2/1
f 40/2/1 38/2/1 39/2/1
f 43/1/1 42/1/1 41/1/1
f 44/1/1 42/1/1 43/1/1
f 47/1/1 46/1/1 45/1/1
f 48/1/1 46/1/1 47/1/1
f 51/2/1 50/2/1 49/2/1
f 52/2/1 50/2/1 51/2/1
f 55/1/1 54/1/1 53/1/1
f 56/1/1 54/1/1 55/1/1
f 59/2/1 58/2/1 57/2/1
f 60/2/1 58/2/1 59/2/1
f 63/1/1 62/1/1 61/1/1
f 64/1/1 62/1/1 63/1/1
f 69/2/1 66/2/1 65/2/1
f 70/2/1 66/2/1 69/2/1
f 71/2/1 68/2/1 67/2/1
f 72/2/1 68/2/1 71/2/1
f 77/2/1 74/2/1 73/2/1
f 78/2/1 74/2/1 77/2/1
f 79/2/1 76/2/1 75/2/1
f 80/2/1 76/2/1 79/2/1
f 84/2/1 82/2/1 81/2/1
f 85/2/1 82/2/1 84/2/1
f 88/2/1 84/2/1 83/2/1
f 89/2/1 84/2/1 88/2/1
f 90/2/1 86/2/1 85/2/1
f 91/2/1 86/2/1 90/2/1
f 93/1/1 91/1/1 90/1/1
f 93/1/1 92/1/1 91/1/1
f 93/1/1 90/1/1 89/1/1
f 93/1/1 89/1/1 88/1/1
f 93/1/1 88/1/1 87/1/1
f 94/1/1 92/1/1 93/1/1
f 95/2/2 96/2/2 99/2/2
f 99/2/2 96/2/2 100/2/2
f 97/2/2 98/2/2 101/2/2
f 101/2/2 98/2/2 102/2/2
f 103/2/2 104/2/2 106/2/2
f 106/2/2 104/2/2 107/2/2
f 105/2/2 106/2/2 110/2/2
f 110/2/2 106/2/2 111/2/2
f 107/2/2 108/2/2 112/2/2
f 112/2/2 108/2/2 113/2/2
f 112/1/2 113/1/2 115/1/2
f 113/1/2 114/1/2 115/1/2
f 111/1/2 112/1/2 115/1/2
f 110/1/2 111/1/2 115/1/2
f 109/1/2 110/1/2 115/1/2
f 115/1/2 114/1/2 116/1/2
f 117/2/2 118/2/2 121/2/2
f 121/2/2 118/2/2 122/2/2
f 119/2/2 120/2/2 123/2/2
f 123/2/2 120/2/2 124/2/2
f 125/2/2 126/2/2 127/2/2
f 127/2/2 126/2/2 128/2/2
f 129/1/2 130/1/2 131/1/2
f 131/1/2 130/1/2 132/1/2
f 133/2/2 134/2/2 135/2/2
f 135/2/2 134/2/2 136/2/2
f 137/1/2 138/1/2 139/1/2
f 139/1/2 138/1/2 140/1/2
f 141/1/2 142/1/2 143/1/2
f 143/1/2 142/1/2 144/1/2
f 145/2/2 146/2/2 147/2/2
f 147/2/2 146/2/2 148/2/2
f 149/1/2 150/1/2 151/1/2
f 151/1/2 150/1/2 152/1/2
f 153/2/2 154/2/2 155/2/2
f 155/2/2 154/2/2 156/2/2
f 157/1/2 158/1/2 159/1/2
f 159/1/2 158/1/2 160/1/2
f 161/2/2 162/2/2 164/2/2
f 164/2/2 162/2/2 165/2/2
f 163/2/2 164/2/2 167/2/2
f 165/2/2 166/2/2 167/2/2
f 164/2/2 165/2/2 167/2/2
f 167/2/2 166/2/2 168/2/2
f 163/2/2 167/2/2 169/2/2
f 169/2/2 167/2/2 170/2/2
f 168/2/2 166/2/2 171/2/2
f 171/2/2 166/2/2 172/2/2
f 173/1/2 174/1/2 175/1/2
f 175/1/2 174/1/2 176/1/2
f 177/2/2 178/2/2 181/2/2
f 181/2/2 178/2/2 182/2/2
f 179/2/2 180/2/2 183/2/2
f 183/2/2 180/2/2 184/2/2
f 185/1/2 186/1/2 187/1/2
f 187/1/2 186/1/2 188/1/2
f 191/1/3 190/1/3 189/1/3
f 193/1/3 191/1/3 189/1/3
f 193/1/3 192/1/3 191/1/3
f 194/1/3 192/1/3 193/1/3
f 195/1/3 192/1/3 194/1/3
f 197/1/3 195/1/3 194/1/3
f 197/1/3 196/1/3 195/1/3
f 198/1/3 196/1/3 197/1/3
f 199/1/3 196/1/3 198/1/3
f 201/1/3 199/1/3 198/1/3
f 201/1/3 200/1/3 199/1/3
f 202/1/3 200/1/3 201/1/3
f 203/1/3 200/1/3 202/1/3
f 206/1/3 204/1/3 203/1/3
f 206/1/3 203/1/3 202/1/3
f 207/1/3 204/1/3 206/1/3
f 208/1/3 204/1/3 207/1/3
f 209/1/3 206/1/3 205/1/3
f 209/1/3 207/1/3 206/1/3
f 210/1/3 207/1/3 209/1/3
f 212/1/3 209/1/3 205/1/3
f 213/1/3 209/1/3 212/1/3
f 213/1/3 212/1/3 211/1/3
f 214/1/3 209/1/3 213/1/3
f 216/1/3 213/1/3 211/1/3
f 217/1/3 213/1/3 216/1/3
f 217/1/3 216/1/3 215/1/3
f 218/1/3 213/1/3 217/1/3
f 219/1/3 217/1/3 215/1/3
f 220/1/3 217/1/3 219/1/3
f 223/2/3 222/2/3 221/2/3
f 225/2/3 223/2/3 221/2/3
f 225/2/3 224/2/3 223/2/3
f 226/2/3 224/2/3 225/2/3
f 227/2/3 224/2/3 226/2/3
f 228/2/3 224/2/3 227/2/3
f 229/2/3 227/2/3 226/2/3
f 230/2/3 227/2/3 229/2/3
f 232/2/3 227/2/3 230/2/3
f 234/2/3 232/2/3 231/2/3
f 235/2/3 227/2/3 232/2/3
f 235/2/3 232/2/3 234/2/3
f 237/2/3 234/2/3 233/2/3
f 237/2/3 236/2/3 235/2/3
f 237/2/3 235/2/3 234/2/3
f 238/2/3 236/2/3 237/2/3
f 239/2/3 237/2/3 233/2/3
f 240/2/3 237/2/3 239/2/3
f 243/2/3 242/2/3 241/2/3
f 244/2/3 242/2/3 243/2/3
f 247/2/3 243/2/3 241/2/3
f 248/2/3 243/2/3 247/2/3
f 250/2/3 246/2/3 245/2/3
f 251/2/3 246/2/3 250/2/3
f 252/2/3 243/2/3 248/2/3
f 253/2/3 243/2/3 252/2/3
f 254/2/3 250/2/3 249/2/3
f 255/2/3 250/2/3 254/2/3
f 256/2/3 254/2/3 249/2/3
f 258/2/3 256/2/3 249/2/3
f 258/2/3 257/2/3 256/2/3
f 259/2/3 257/2/3 258/2/3
f 260/2/3 258/2/3 249/2/3
f 262/2/3 260/2/3 249/2/3
f 262/2/3 261/2/3 260/2/3
f 263/2/3 261/2/3 262/2/3
f 264/2/3 262/2/3 249/2/3
f 266/2/3 264/2/3 249/2/3
f 266/2/3 265/2/3 264/2/3
f 267/2/3 265/2/3 266/2/3
f 270/2/3 266/2/3 249/2/3
f 273/2/3 269/2/3 268/2/3
f 274/2/3 271/2/3 270/2/3
f 274/2/3 270/2/3 249/2/3
f 275/2/3 271/2/3 274/2/3
f 277/2/3 273/2/3 272/2/3
f 277/2/3 269/2/3 273/2/3
f 279/2/3 276/2/3 275/2/3
f 280/2/3 276/2/3 279/2/3
f 281/2/3 278/2/3 277/2/3
f 281/2/3 277/2/3 272/2/3
f 282/2/3 278/2/3 281/2/3
f 283/2/4 284/2/4 285/2/4
f 285/2/4 284/2/4 286/2/4
f 283/2/4 285/2/4 289/2/4
f 289/2/4 285/2/4 290/2/4
f 287/2/4 288/2/4 292/2/4
f 292/2/4 288/2/4 293/2/4
f 290/2/4 285/2/4 294/2/4
f 294/2/4 285/2/4 295/2/4
f 291/2/4 292/2/4 296/2/4
f 296/2/4 292/2/4 297/2/4
f 291/2/4 296/2/4 298/2/4
f 291/2/4 298/2/4 300/2/4
f 298/2/4 299/2/4 300/2/4
f 300/2/4 299/2/4 301/2/4
f 291/2/4 300/2/4 302/2/4
f 291/2/4 302/2/4 304/2/4
f 302/2/4 303/2/4 304/2/4
f 304/2/4 303/2/4 305/2/4
f 291/2/4 304/2/4 306/2/4
f 291/2/4 306/2/4 308/2/4
f 306/2/4 307/2/4 308/2/4
f 308/2/4 307/2/4 309/2/4
f 291/2/4 308/2/4 312/2/4
f 310/2/4 311/2/4 315/2/4
f 312/2/4 313/2/4 316/2/4
f 291/2/4 312/2/4 316/2/4
f 316/2/4 313/2/4 317/2/4
f 314/2/4 315/2/4 319/2/4
f 315/2/4 311/2/4 319/2/4
f 317/2/4 318/2/4 321/2/4
f 321/2/4 318/2/4 322/2/4
f 319/2/4 320/2/4 323/2/4
f 314/2/4 319/2/4 323/2/4
f 323/2/4 320/2/4 324/2/4
f 325/2/4 326/2/4 327/2/4
f 325/2/4 327/2/4 329/2/4
f 327/2/4 328/2/4 329/2/4
f 329/2/4 328/2/4 330/2/4
f 330/2/4 328/2/4 331/2/4
f 331/2/4 328/2/4 332/2/4
f 330/2/4 331/2/4 333/2/4
f 333/2/4 331/2/4 334/2/4
f 334/2/4 331/2/4 336/2/4
f 335/2/4 336/2/4 338/2/4
f 336/2/4 331/2/4 339/2/4
f 338/2/4 336/2/4 339/2/4
f 337/2/4 338/2/4 341/2/4
f 339/2/4 340/2/4 341/2/4
f 338/2/4 339/2/4 341/2/4
f 341/2/4 340/2/4 342/2/4
f 337/2/4 341/2/4 343/2/4
f 343/2/4 341/2/4 344/2/4
f 345/1/4 346/1/4 347/1/4
f 345/1/4 347/1/4 349/1/4
f 347/1/4 348/1/4 349/1/4
f 349/1/4 348/1/4 350/1/4
f 350/1/4 348/1/4 351/1/4
f 350/1/4 351/1/4 353/1/4
f 351/1/4 352/1/4 353/1/4
f 353/1/4 352/1/4 354/1/4
f 354/1/4 352/1/4 355/1/4
f 354/1/4 355/1/4 357/1/4
f 355/1/4 356/1/4 357/1/4
f 357/1/4 356/1/4 358/1/4
f 358/1/4 356/1/4 359/1/4
f 359/1/4 360/1/4 362/1/4
f 358/1/4 359/1/4 362/1/4
f 362/1/4 360/1/4 363/1/4
f 363/1/4 360/1/4 364/1/4
f 361/1/4 362/1/4 365/1/4
f 362/1/4 363/1/4 365/1/4
f 365/1/4 363/1/4 366/1/4
f 361/1/4 365/1/4 368/1/4
f 368/1/4 365/1/4 369/1/4
f 367/1/4 368/1/4 369/1/4
f 369/1/4 365/1/4 370/1/4
f 367/1/4 369/1/4 372/1/4
f 372/1/4 369/1/4 373/1/4
f 371/1/4 372/1/4 373/1/4
f 373/1/4 369/1/4 374/1/4
f 371/1/4 373/1/4 375/1/4
f 375/1/4 373/1/4 376/1/4
f 381/2/5 378/2/5 377/2/5
f 382/2/5 378/2/5 381/2/5
f 383/2/5 380/2/5 379/2/5
f 384/2/5 380/2/5 383/2/5
f 389/2/5 386/2/5 385/2/5
f 390/2/5 386/2/5 389/2/5
f 391/2/5 388/2/5 387/2/5
f 392/2/5 388/2/5 391/2/5
f 397/2/5 394/2/5 393/2/5
f 398/2/5 394/2/5 397/2/5
f 399/2/5 396/2/5 395/2/5
f 400/2/5 396/2/5 399/2/5
f 405/2/5 402/2/5 401/2/5
f 406/2/5 402/2/5 405/2/5
f 407/2/5 404/2/5 403/2/5
f 408/2/5 404/2/5 407/2/5
f 412/2/5 410/2/5 409/2/5
f 413/2/5 410/2/5 412/2/5
f 415/2/5 412/2/5 411/2/5
f 415/2/5 414/2/5 413/2/5
f 415/2/5 413/2/5 412/2/5
f 416/2/5 414/2/5 415/2/5
f 417/2/5 414/2/5 416/2/5
f 418/2/5 414/2/5 417/2/5
f 419/2/5 417/2/5 416/2/5
f 420/2/5 417/2/5 419/2/5
f 429/2/5 422/2/5 421/2/5
f 430/2/5 422/2/5 429/2/5
f 431/2/5 424/2/5 423/2/5
f 432/2/5 424/2/5 431/2/5
f 433/2/5 426/2/5 425/2/5
f 434/2/5 426/2/5 433/2/5
f 435/2/5 428/2/5 427/2/5
f 436/2/5 428/2/5 435/2/5
f 441/1/5 438/1/5 437/1/5
f 442/1/5 438/1/5 441/1/5
f 443/1/5 440/1/5 439/1/5
f 444/1/5 440/1/5 443/1/5
f 445/1/5 441/1/5 437/1/5
f 448/1/5 440/1/5 444/1/5
f 449/1/5 446/1/5 445/1/5
f 449/1/5 445/1/5 437/1/5
f 450/1/5 446/1/5 449/1/5
f 451/1/5 448/1/5 447/1/5
f 452/1/5 440/1/5 448/1/5
f 452/1/5 448/1/5 451/1/5
f 453/1/5 449/1/5 437/1/5
f 456/1/5 440/1/5 452/1/5
f 457/1/5 454/1/5 453/1/5
f 457/1/5 453/1/5 437/1/5
f 458/1/5 454/1/5 457/1/5
f 459/1/5 456/1/5 455/1/5
f 460/1/5 440/1/5 456/1/5
f 460/1/5 456/1/5 459/1/5
f 465/1/5 462/1/5 461/1/5
f 466/1/5 462/1/5 465/1/5
f 467/1/5 464/1/5 463/1/5
f 468/1/5 464/1/5 467/1/5
f 473/1/5 470/1/5 469/1/5
f 474/1/5 470/1/5 473/1/5
f 475/1/5 472/1/5 471/1/5
f 476/1/5 472/1/5 475/1/5
f 479/1/5 478/1/5 477/1/5
f 480/1/5 478/1/5 479/1/5
f 481/2/6 482/2/6 483/2/6
f 483/2/6 482/2/6 484/2/6
f 485/2/6 486/2/6 489/2/6
f 489/2/6 486/2/6 490/2/6
f 487/2/6 488/2/6 491/2/6
f 491/2/6 488/2/6 492/2/6
f 493/2/6 494/2/6 497/2/6
f 497/2/6 494/2/6 498/2/6
f 495/2/6 496/2/6 499/2/6
f 499/2/6 496/2/6 500/2/6
f 501/2/6 502/2/6 504/2/6
f 504/2/6 502/2/6 505/2/6
f 505/2/6 502/2/6 506/2/6
f 506/2/6 502/2/6 507/2/6
f 507/2/6 502/2/6 508/2/6
f 508/2/6 502/2/6 509/2/6
f 509/2/6 502/2/6 510/2/6
f 510/2/6 502/2/6 511/2/6
f 511/2/6 502/2/6 512/2/6
f 512/2/6 502/2/6 513/2/6
f 503/2/6 504/2/6 515/2/6
f 515/2/6 504/2/6 516/2/6
f 505/2/6 506/2/6 517/2/6
f 517/2/6 506/2/6 518/2/6
f 507/2/6 508/2/6 519/2/6
f 519/2/6 508/2/6 520/2/6
f 509/2/6 510/2/6 521/2/6
f 521/2/6 510/2/6 522/2/6
f 511/2/6 512/2/6 523/2/6
f 523/2/6 512/2/6 524/2/6
f 513/2/6 514/2/6 525/2/6
f 525/2/6 514/2/6 526/2/6
f 523/2/6 524/2/6 527/2/6
f 521/2/6 522/2/6 527/2/6
f 524/2/6 525/2/6 527/2/6
f 522/2/6 523/2/6 527/2/6
f 519/2/6 520/2/6 527/2/6
f 520/2/6 521/2/6 527/2/6
f 517/2/6 518/2/6 527/2/6
f 518/2/6 519/2/6 527/2/6
f 516/2/6 517/2/6 527/2/6
f 527/2/6 525/2/6 528/2/6
f 529/1/6 530/1/6 533/1/6
f 533/1/6 530/1/6 534/1/6
f 531/1/6 532/1/6 535/1/6
f 535/1/6 532/1/6 536/1/6
f 537/1/6 538/1/6 541/1/6
f 541/1/6 538/1/6 542/1/6
f 539/1/6 540/1/6 543/1/6
f 543/1/6 540/1/6 544/1/6
f 545/1/6 546/1/6 549/1/6
f 549/1/6 546/1/6 550/1/6
f 547/1/6 548/1/6 551/1/6
f 551/1/6 548/1/6 552/1/6
f 553/1/6 554/1/6 557/1/6
f 557/1/6 554/1/6 558/1/6
f 555/1/6 556/1/6 559/1/6
f 559/1/6 556/1/6 560/1/6
f 561/1/6 562/1/6 563/1/6
f 563/1/6 562/1/6 564/1/6
