# MagicaVoxel @ Ephtracy

# group
g mathuoGAP2-20

# material
mtllib mathuoGAP2-20.mtl
usemtl palette

# normals
vn -1 0 0
vn 1 0 0
vn 0 0 1
vn 0 0 -1
vn 0 -1 0
vn 0 1 0

# texcoords
vt 0.822266 0.5
vt 0.873047 0.5
vt 0.896484 0.5
vt 0.900391 0.5
vt 0.916016 0.5
vt 0.927734 0.5
vt 0.978516 0.5

# verts
v -3 0 6
v -3 0 -11
v -3 1 6
v -3 1 5
v -3 1 4
v -3 1 -9
v -3 1 -10
v -3 1 -11
v -3 29 6
v -3 29 5
v -3 29 4
v -3 29 -9
v -3 29 -10
v -3 29 -11
v -3 30 6
v -3 30 -11
v -2 0 10
v -2 0 6
v -2 0 -11
v -2 0 -18
v -2 1 6
v -2 1 5
v -2 1 4
v -2 1 -9
v -2 1 -10
v -2 1 -11
v -2 2 3
v -2 2 -8
v -2 13 -10
v -2 13 -18
v -2 14 10
v -2 14 5
v -2 28 3
v -2 28 -8
v -2 29 4
v -2 29 -9
v -2 35 11
v -2 35 -19
v -2 36 11
v -2 36 -19
v -1 2 3
v -1 2 -8
v -1 13 -10
v -1 13 -18
v -1 14 9
v -1 14 5
v -1 15 9
v -1 15 8
v -1 16 9
v -1 16 8
v -1 17 9
v -1 17 8
v -1 19 9
v -1 19 8
v -1 28 3
v -1 28 -8
v -1 29 6
v -1 29 5
v -1 29 -10
v -1 29 -11
v -1 30 6
v -1 30 -11
v -1 35 9
v -1 35 -18
v -1 36 10
v -1 36 -18
v -1 37 10
v -1 37 -18
v 6 0 -1
v 6 0 -3
v 6 1 -1
v 6 1 -2
v 6 2 -2
v 6 2 -3
v 7 0 -0
v 7 0 -1
v 7 1 -0
v 7 1 -1
v 1 2 3
v 1 2 -8
v 1 14 9
v 1 14 6
v 1 14 5
v 1 14 -10
v 1 14 -18
v 1 17 8
v 1 17 7
v 1 18 7
v 1 18 6
v 1 20 -10
v 1 20 -13
v 1 21 9
v 1 21 8
v 1 21 -10
v 1 21 -13
v 1 24 8
v 1 24 6
v 1 25 7
v 1 25 6
v 1 27 9
v 1 27 8
v 1 28 8
v 1 28 7
v 1 29 9
v 1 29 8
v 1 29 3
v 1 29 -8
v 1 30 6
v 1 30 5
v 1 30 -10
v 1 30 -11
v 1 31 6
v 1 31 2
v 1 31 -7
v 1 31 -11
v 1 32 8
v 1 32 6
v 1 32 2
v 1 32 1
v 1 32 -3
v 1 32 -5
v 1 32 -6
v 1 32 -7
v 1 33 7
v 1 33 6
v 1 33 3
v 1 33 1
v 1 33 -3
v 1 33 -4
v 1 33 -5
v 1 33 -6
v 1 34 8
v 1 34 7
v 1 34 4
v 1 34 3
v 1 34 -2
v 1 34 -4
v 1 35 9
v 1 35 4
v 1 35 -2
v 1 35 -18
v 1 36 10
v 1 36 -18
v 1 37 10
v 1 37 -18
v 2 0 10
v 2 0 6
v 2 0 -11
v 2 0 -18
v 2 1 6
v 2 1 5
v 2 1 4
v 2 1 -9
v 2 1 -10
v 2 1 -11
v 2 2 3
v 2 2 -8
v 2 14 10
v 2 14 5
v 2 14 -10
v 2 14 -18
v 2 29 3
v 2 29 -8
v 2 30 4
v 2 30 -9
v 2 35 11
v 2 35 -19
v 2 36 11
v 2 36 -19
v 3 0 6
v 3 0 -11
v 3 1 6
v 3 1 5
v 3 1 4
v 3 1 -9
v 3 1 -10
v 3 1 -11
v 3 30 6
v 3 30 5
v 3 30 4
v 3 30 -9
v 3 30 -10
v 3 30 -11
v 3 31 6
v 3 31 -11
v 7 0 -1
v 7 0 -2
v 7 1 -1
v 7 1 -2
v 7 1 -3
v 7 2 -2
v 7 2 -3
v 8 0 -0
v 8 0 -1
v 8 0 -2
v 8 0 -3
v 8 1 -0
v 8 1 -1
v 8 1 -2
v 8 1 -3
v -2 35 11
v -2 36 11
v 2 35 11
v 2 36 11
v -2 0 10
v -2 14 10
v -1 36 10
v -1 37 10
v 1 36 10
v 1 37 10
v 2 0 10
v 2 14 10
v -1 14 9
v -1 15 9
v -1 16 9
v -1 17 9
v -1 19 9
v -1 35 9
v 0 14 9
v 0 15 9
v 0 16 9
v 0 17 9
v 0 19 9
v 0 21 9
v 0 27 9
v 0 29 9
v 1 14 9
v 1 21 9
v 1 27 9
v 1 29 9
v 1 35 9
v -3 0 6
v -3 1 6
v -3 29 6
v -3 30 6
v -2 0 6
v -2 1 6
v -2 29 6
v -2 30 6
v -1 29 6
v -1 30 6
v 1 30 6
v 1 31 6
v 2 0 6
v 2 1 6
v 3 0 6
v 3 1 6
v 3 30 6
v 3 31 6
v -3 1 5
v -3 29 5
v -2 1 5
v -2 14 5
v -2 29 5
v -1 14 5
v -1 29 5
v 1 14 5
v 1 30 5
v 2 1 5
v 2 14 5
v 3 1 5
v 3 30 5
v 7 0 -0
v 7 1 -0
v 8 0 -0
v 8 1 -0
v 6 0 -1
v 6 1 -1
v 7 0 -1
v 7 1 -1
v 6 1 -2
v 6 2 -2
v 7 0 -2
v 7 1 -2
v 7 2 -2
v 8 0 -2
v 8 1 -2
v -2 2 -8
v -2 28 -8
v -1 2 -8
v -1 28 -8
v 1 2 -8
v 1 29 -8
v 2 2 -8
v 2 29 -8
v -3 1 -9
v -3 29 -9
v -2 1 -9
v -2 29 -9
v 2 1 -9
v 2 30 -9
v 3 1 -9
v 3 30 -9
v -3 1 4
v -3 29 4
v -2 1 4
v -2 29 4
v 2 1 4
v 2 30 4
v 3 1 4
v 3 30 4
v -2 2 3
v -2 28 3
v -1 2 3
v -1 28 3
v 1 2 3
v 1 29 3
v 2 2 3
v 2 29 3
v 7 0 -1
v 7 1 -1
v 8 0 -1
v 8 1 -1
v 6 0 -3
v 6 2 -3
v 7 1 -3
v 7 2 -3
v 8 0 -3
v 8 1 -3
v -3 1 -10
v -3 29 -10
v -2 1 -10
v -2 13 -10
v -2 29 -10
v -1 13 -10
v -1 29 -10
v 1 14 -10
v 1 20 -10
v 1 21 -10
v 1 30 -10
v 2 1 -10
v 2 14 -10
v 3 1 -10
v 3 30 -10
v -3 0 -11
v -3 1 -11
v -3 29 -11
v -3 30 -11
v -2 0 -11
v -2 1 -11
v -2 29 -11
v -2 30 -11
v -1 29 -11
v -1 30 -11
v 1 30 -11
v 1 31 -11
v 2 0 -11
v 2 1 -11
v 3 0 -11
v 3 1 -11
v 3 30 -11
v 3 31 -11
v -2 0 -18
v -2 13 -18
v -1 0 -18
v -1 13 -18
v -1 35 -18
v -1 36 -18
v -1 37 -18
v 1 0 -18
v 1 14 -18
v 1 35 -18
v 1 36 -18
v 1 37 -18
v 2 0 -18
v 2 14 -18
v -2 35 -19
v -2 36 -19
v 2 35 -19
v 2 36 -19
v -2 0 10
v 2 0 10
v -1 0 9
v 1 0 9
v -3 0 6
v -2 0 6
v 1 0 6
v 2 0 6
v 3 0 6
v -2 0 4
v -1 0 4
v 7 0 -0
v 8 0 -0
v 6 0 -1
v 7 0 -1
v 8 0 -1
v 7 0 -2
v 8 0 -2
v 6 0 -3
v 8 0 -3
v -2 0 -9
v -1 0 -9
v -3 0 -11
v -2 0 -11
v 1 0 -11
v 2 0 -11
v 3 0 -11
v -2 0 -18
v -1 0 -18
v 1 0 -18
v 2 0 -18
v -2 28 3
v -1 28 3
v -2 28 -8
v -1 28 -8
v -3 29 6
v -2 29 6
v -1 29 6
v -3 29 5
v -2 29 5
v -1 29 5
v -3 29 4
v -2 29 4
v 1 29 3
v 2 29 3
v 1 29 -8
v 2 29 -8
v -3 29 -9
v -2 29 -9
v -3 29 -10
v -2 29 -10
v -1 29 -10
v -3 29 -11
v -2 29 -11
v -1 29 -11
v 1 30 6
v 3 30 6
v 1 30 5
v 3 30 5
v 2 30 4
v 3 30 4
v 2 30 -9
v 3 30 -9
v 1 30 -10
v 3 30 -10
v 1 30 -11
v 3 30 -11
v -2 35 11
v 2 35 11
v -1 35 9
v 1 35 9
v 1 35 4
v 1 35 -2
v -1 35 -18
v 1 35 -18
v -2 35 -19
v 2 35 -19
v -3 1 6
v -2 1 6
v 2 1 6
v 3 1 6
v -3 1 5
v -2 1 5
v 2 1 5
v 3 1 5
v -3 1 4
v -2 1 4
v 2 1 4
v 3 1 4
v 7 1 -0
v 8 1 -0
v 6 1 -1
v 7 1 -1
v 8 1 -1
v 6 1 -2
v 7 1 -2
v 8 1 -2
v 7 1 -3
v 8 1 -3
v -3 1 -9
v -2 1 -9
v 2 1 -9
v 3 1 -9
v -3 1 -10
v -2 1 -10
v 2 1 -10
v 3 1 -10
v -3 1 -11
v -2 1 -11
v 2 1 -11
v 3 1 -11
v -2 2 3
v -1 2 3
v 1 2 3
v 2 2 3
v 6 2 -2
v 7 2 -2
v 6 2 -3
v 7 2 -3
v -2 2 -8
v -1 2 -8
v 1 2 -8
v 2 2 -8
v -2 13 -10
v -1 13 -10
v -2 13 -18
v -1 13 -18
v -2 14 10
v 2 14 10
v -1 14 9
v 0 14 9
v 1 14 9
v 1 14 6
v -2 14 5
v -1 14 5
v 1 14 5
v 2 14 5
v 1 14 -10
v 2 14 -10
v 1 14 -18
v 2 14 -18
v -3 30 6
v -2 30 6
v -1 30 6
v -3 30 -11
v -2 30 -11
v -1 30 -11
v 1 31 6
v 3 31 6
v 1 31 2
v 1 31 -7
v 1 31 -11
v 3 31 -11
v -2 36 11
v 2 36 11
v -1 36 10
v 1 36 10
v -1 36 -18
v 1 36 -18
v -2 36 -19
v 2 36 -19
v -1 37 10
v 1 37 10
v -1 37 -18
v 1 37 -18

# faces
f 3/6/1 2/6/1 1/6/1
f 4/6/1 2/6/1 3/6/1
f 5/6/1 2/6/1 4/6/1
f 6/6/1 2/6/1 5/6/1
f 7/6/1 2/6/1 6/6/1
f 8/6/1 2/6/1 7/6/1
f 10/6/1 5/6/1 4/6/1
f 11/6/1 5/6/1 10/6/1
f 12/6/1 7/6/1 6/6/1
f 13/6/1 7/6/1 12/6/1
f 15/6/1 11/6/1 10/6/1
f 15/6/1 14/6/1 13/6/1
f 15/6/1 13/6/1 12/6/1
f 15/6/1 12/6/1 11/6/1
f 15/6/1 10/6/1 9/6/1
f 16/6/1 14/6/1 15/6/1
f 21/5/1 18/5/1 17/5/1
f 26/5/1 20/5/1 19/5/1
f 27/4/1 24/4/1 23/4/1
f 28/4/1 24/4/1 27/4/1
f 29/5/1 26/5/1 25/5/1
f 30/5/1 20/5/1 26/5/1
f 30/5/1 26/5/1 29/5/1
f 31/5/1 21/5/1 17/5/1
f 31/5/1 22/5/1 21/5/1
f 32/5/1 22/5/1 31/5/1
f 33/4/1 27/4/1 23/4/1
f 34/4/1 24/4/1 28/4/1
f 35/4/1 33/4/1 23/4/1
f 35/4/1 34/4/1 33/4/1
f 36/4/1 24/4/1 34/4/1
f 36/4/1 34/4/1 35/4/1
f 39/3/1 38/3/1 37/3/1
f 40/3/1 38/3/1 39/3/1
f 47/2/1 46/2/1 45/2/1
f 48/2/1 46/2/1 47/2/1
f 49/1/1 48/1/1 47/1/1
f 50/2/1 46/2/1 48/2/1
f 50/1/1 48/1/1 49/1/1
f 51/2/1 50/2/1 49/2/1
f 52/2/1 46/2/1 50/2/1
f 52/2/1 50/2/1 51/2/1
f 53/1/1 52/1/1 51/1/1
f 54/2/1 46/2/1 52/2/1
f 54/1/1 52/1/1 53/1/1
f 55/6/1 42/6/1 41/6/1
f 56/6/1 42/6/1 55/6/1
f 57/2/1 46/2/1 54/2/1
f 57/2/1 54/2/1 53/2/1
f 58/2/1 46/2/1 57/2/1
f 59/2/1 44/2/1 43/2/1
f 60/2/1 44/2/1 59/2/1
f 61/2/1 57/2/1 53/2/1
f 62/2/1 44/2/1 60/2/1
f 63/2/1 61/2/1 53/2/1
f 63/2/1 62/2/1 61/2/1
f 64/2/1 44/2/1 62/2/1
f 64/2/1 62/2/1 63/2/1
f 67/3/1 66/3/1 65/3/1
f 68/3/1 66/3/1 67/3/1
f 71/7/1 70/7/1 69/7/1
f 72/7/1 70/7/1 71/7/1
f 73/7/1 70/7/1 72/7/1
f 74/7/1 70/7/1 73/7/1
f 77/7/1 76/7/1 75/7/1
f 78/7/1 76/7/1 77/7/1
f 81/1/2 82/1/2 86/1/2
f 86/1/2 82/1/2 87/1/2
f 86/2/2 87/2/2 88/2/2
f 87/1/2 82/1/2 88/1/2
f 82/2/2 83/2/2 89/2/2
f 88/1/2 82/1/2 89/1/2
f 84/2/2 85/2/2 90/2/2
f 90/2/2 85/2/2 91/2/2
f 81/1/2 86/1/2 92/1/2
f 86/2/2 88/2/2 93/2/2
f 92/1/2 86/1/2 93/1/2
f 88/2/2 89/2/2 93/2/2
f 90/1/2 91/1/2 94/1/2
f 91/2/2 85/2/2 95/2/2
f 94/1/2 91/1/2 95/1/2
f 93/2/2 89/2/2 96/2/2
f 92/2/2 93/2/2 96/2/2
f 89/2/2 83/2/2 97/2/2
f 96/2/2 89/2/2 97/2/2
f 96/1/2 97/1/2 98/1/2
f 97/2/2 83/2/2 99/2/2
f 98/1/2 97/1/2 99/1/2
f 92/2/2 96/2/2 100/2/2
f 96/1/2 98/1/2 101/1/2
f 100/2/2 96/2/2 101/2/2
f 100/1/2 101/1/2 102/1/2
f 101/1/2 98/1/2 102/1/2
f 98/2/2 99/2/2 103/2/2
f 102/1/2 98/1/2 103/1/2
f 100/1/2 102/1/2 104/1/2
f 102/2/2 103/2/2 105/2/2
f 104/1/2 102/1/2 105/1/2
f 79/6/2 80/6/2 106/6/2
f 106/6/2 80/6/2 107/6/2
f 105/2/2 103/2/2 108/2/2
f 99/2/2 83/2/2 108/2/2
f 103/2/2 99/2/2 108/2/2
f 104/2/2 105/2/2 108/2/2
f 108/2/2 83/2/2 109/2/2
f 94/2/2 95/2/2 110/2/2
f 110/2/2 95/2/2 111/2/2
f 104/2/2 108/2/2 112/2/2
f 111/2/2 95/2/2 115/2/2
f 104/2/2 112/2/2 116/2/2
f 112/2/2 113/2/2 116/2/2
f 116/2/2 113/2/2 117/2/2
f 113/1/2 114/1/2 118/1/2
f 117/2/2 113/2/2 118/2/2
f 118/1/2 114/1/2 119/1/2
f 119/1/2 114/1/2 120/1/2
f 120/1/2 114/1/2 121/1/2
f 121/1/2 114/1/2 122/1/2
f 114/2/2 115/2/2 123/2/2
f 122/1/2 114/1/2 123/1/2
f 116/1/2 117/1/2 124/1/2
f 117/2/2 118/2/2 125/2/2
f 124/1/2 117/1/2 125/1/2
f 118/2/2 119/2/2 125/2/2
f 125/2/2 119/2/2 126/2/2
f 119/1/2 120/1/2 127/1/2
f 126/2/2 119/2/2 127/2/2
f 120/2/2 121/2/2 128/2/2
f 127/1/2 120/1/2 128/1/2
f 128/2/2 121/2/2 129/2/2
f 121/1/2 122/1/2 130/1/2
f 129/2/2 121/2/2 130/2/2
f 122/2/2 123/2/2 131/2/2
f 130/1/2 122/1/2 131/1/2
f 104/2/2 116/2/2 132/2/2
f 116/1/2 124/1/2 132/1/2
f 125/2/2 126/2/2 133/2/2
f 132/1/2 124/1/2 133/1/2
f 124/2/2 125/2/2 133/2/2
f 133/2/2 126/2/2 134/2/2
f 128/1/2 129/1/2 135/1/2
f 134/2/2 126/2/2 135/2/2
f 126/1/2 127/1/2 135/1/2
f 127/1/2 128/1/2 135/1/2
f 135/1/2 129/1/2 136/1/2
f 130/2/2 131/2/2 137/2/2
f 136/1/2 129/1/2 137/1/2
f 129/2/2 130/2/2 137/2/2
f 133/2/2 134/2/2 138/2/2
f 104/2/2 132/2/2 138/2/2
f 132/2/2 133/2/2 138/2/2
f 135/1/2 136/1/2 139/1/2
f 138/2/2 134/2/2 139/2/2
f 134/1/2 135/1/2 139/1/2
f 136/2/2 137/2/2 140/2/2
f 139/1/2 136/1/2 140/1/2
f 123/2/2 115/2/2 141/2/2
f 140/2/2 137/2/2 141/2/2
f 95/2/2 85/2/2 141/2/2
f 137/2/2 131/2/2 141/2/2
f 115/2/2 95/2/2 141/2/2
f 131/2/2 123/2/2 141/2/2
f 142/3/2 143/3/2 144/3/2
f 144/3/2 143/3/2 145/3/2
f 146/5/2 147/5/2 150/5/2
f 148/5/2 149/5/2 155/5/2
f 152/4/2 153/4/2 156/4/2
f 156/4/2 153/4/2 157/4/2
f 146/5/2 150/5/2 158/5/2
f 150/5/2 151/5/2 158/5/2
f 158/5/2 151/5/2 159/5/2
f 154/5/2 155/5/2 160/5/2
f 155/5/2 149/5/2 161/5/2
f 160/5/2 155/5/2 161/5/2
f 152/4/2 156/4/2 162/4/2
f 157/4/2 153/4/2 163/4/2
f 152/4/2 162/4/2 164/4/2
f 162/4/2 163/4/2 164/4/2
f 163/4/2 153/4/2 165/4/2
f 164/4/2 163/4/2 165/4/2
f 166/3/2 167/3/2 168/3/2
f 168/3/2 167/3/2 169/3/2
f 170/6/2 171/6/2 172/6/2
f 172/6/2 171/6/2 173/6/2
f 173/6/2 171/6/2 174/6/2
f 174/6/2 171/6/2 175/6/2
f 175/6/2 171/6/2 176/6/2
f 176/6/2 171/6/2 177/6/2
f 173/6/2 174/6/2 179/6/2
f 179/6/2 174/6/2 180/6/2
f 175/6/2 176/6/2 181/6/2
f 181/6/2 176/6/2 182/6/2
f 179/6/2 180/6/2 184/6/2
f 182/6/2 183/6/2 184/6/2
f 181/6/2 182/6/2 184/6/2
f 180/6/2 181/6/2 184/6/2
f 178/6/2 179/6/2 184/6/2
f 184/6/2 183/6/2 185/6/2
f 186/7/2 187/7/2 188/7/2
f 188/7/2 187/7/2 189/7/2
f 189/7/2 190/7/2 191/7/2
f 191/7/2 190/7/2 192/7/2
f 193/7/2 194/7/2 197/7/2
f 197/7/2 194/7/2 198/7/2
f 195/7/2 196/7/2 199/7/2
f 199/7/2 196/7/2 200/7/2
f 203/3/3 202/3/3 201/3/3
f 204/3/3 202/3/3 203/3/3
f 209/3/3 208/3/3 207/3/3
f 210/3/3 208/3/3 209/3/3
f 211/5/3 206/5/3 205/5/3
f 212/5/3 206/5/3 211/5/3
f 219/2/3 214/2/3 213/2/3
f 220/1/3 215/1/3 214/1/3
f 220/2/3 214/2/3 219/2/3
f 221/2/3 216/2/3 215/2/3
f 221/1/3 215/1/3 220/1/3
f 222/1/3 217/1/3 216/1/3
f 222/2/3 216/2/3 221/2/3
f 223/2/3 218/2/3 217/2/3
f 223/1/3 217/1/3 222/1/3
f 224/2/3 218/2/3 223/2/3
f 225/2/3 218/2/3 224/2/3
f 226/2/3 218/2/3 225/2/3
f 227/1/3 222/1/3 221/1/3
f 227/1/3 220/1/3 219/1/3
f 227/1/3 221/1/3 220/1/3
f 227/1/3 223/1/3 222/1/3
f 227/1/3 224/1/3 223/1/3
f 228/2/3 225/2/3 224/2/3
f 228/1/3 224/1/3 227/1/3
f 229/1/3 226/1/3 225/1/3
f 229/2/3 225/2/3 228/2/3
f 230/2/3 218/2/3 226/2/3
f 230/1/3 226/1/3 229/1/3
f 231/2/3 218/2/3 230/2/3
f 236/6/3 233/6/3 232/6/3
f 237/6/3 233/6/3 236/6/3
f 238/6/3 235/6/3 234/6/3
f 239/6/3 235/6/3 238/6/3
f 240/4/3 239/4/3 238/4/3
f 241/4/3 239/4/3 240/4/3
f 246/6/3 245/6/3 244/6/3
f 247/6/3 245/6/3 246/6/3
f 248/6/3 243/6/3 242/6/3
f 249/6/3 243/6/3 248/6/3
f 252/6/3 251/6/3 250/6/3
f 253/6/3 251/6/3 252/6/3
f 254/6/3 251/6/3 253/6/3
f 255/4/3 254/4/3 253/4/3
f 256/4/3 254/4/3 255/4/3
f 260/6/3 258/6/3 257/6/3
f 261/6/3 260/6/3 259/6/3
f 262/6/3 258/6/3 260/6/3
f 262/6/3 260/6/3 261/6/3
f 265/7/3 264/7/3 263/7/3
f 266/7/3 264/7/3 265/7/3
f 269/7/3 268/7/3 267/7/3
f 270/7/3 268/7/3 269/7/3
f 274/7/3 272/7/3 271/7/3
f 275/7/3 272/7/3 274/7/3
f 276/7/3 274/7/3 273/7/3
f 277/7/3 274/7/3 276/7/3
f 280/4/3 279/4/3 278/4/3
f 281/4/3 279/4/3 280/4/3
f 284/4/3 283/4/3 282/4/3
f 285/4/3 283/4/3 284/4/3
f 288/6/3 287/6/3 286/6/3
f 289/6/3 287/6/3 288/6/3
f 292/6/3 291/6/3 290/6/3
f 293/6/3 291/6/3 292/6/3
f 294/6/4 295/6/4 296/6/4
f 296/6/4 295/6/4 297/6/4
f 298/6/4 299/6/4 300/6/4
f 300/6/4 299/6/4 301/6/4
f 302/4/4 303/4/4 304/4/4
f 304/4/4 303/4/4 305/4/4
f 306/4/4 307/4/4 308/4/4
f 308/4/4 307/4/4 309/4/4
f 310/7/4 311/7/4 312/7/4
f 312/7/4 311/7/4 313/7/4
f 314/7/4 315/7/4 316/7/4
f 316/7/4 315/7/4 317/7/4
f 314/7/4 316/7/4 318/7/4
f 318/7/4 316/7/4 319/7/4
f 320/6/4 321/6/4 322/6/4
f 322/6/4 321/6/4 323/6/4
f 323/6/4 321/6/4 324/6/4
f 323/4/4 324/4/4 325/4/4
f 325/4/4 324/4/4 326/4/4
f 328/6/4 329/6/4 332/6/4
f 329/6/4 330/6/4 332/6/4
f 327/6/4 328/6/4 332/6/4
f 331/6/4 332/6/4 333/6/4
f 332/6/4 330/6/4 334/6/4
f 333/6/4 332/6/4 334/6/4
f 335/6/4 336/6/4 339/6/4
f 339/6/4 336/6/4 340/6/4
f 337/6/4 338/6/4 341/6/4
f 341/6/4 338/6/4 342/6/4
f 341/4/4 342/4/4 343/4/4
f 343/4/4 342/4/4 344/4/4
f 347/6/4 348/6/4 349/6/4
f 349/6/4 348/6/4 350/6/4
f 345/6/4 346/6/4 351/6/4
f 351/6/4 346/6/4 352/6/4
f 353/5/4 354/5/4 355/5/4
f 355/5/4 354/5/4 356/5/4
f 355/2/4 356/2/4 360/2/4
f 356/2/4 357/2/4 360/2/4
f 360/2/4 357/2/4 361/2/4
f 361/2/4 357/2/4 362/2/4
f 358/3/4 359/3/4 363/3/4
f 363/3/4 359/3/4 364/3/4
f 360/5/4 361/5/4 365/5/4
f 365/5/4 361/5/4 366/5/4
f 367/3/4 368/3/4 369/3/4
f 369/3/4 368/3/4 370/3/4
f 373/5/5 372/5/5 371/5/5
f 374/5/5 372/5/5 373/5/5
f 376/5/5 373/5/5 371/5/5
f 377/5/5 372/5/5 374/5/5
f 377/2/5 374/2/5 373/2/5
f 378/5/5 372/5/5 377/5/5
f 380/6/5 376/6/5 375/6/5
f 380/5/5 373/5/5 376/5/5
f 381/2/5 377/2/5 373/2/5
f 381/5/5 373/5/5 380/5/5
f 385/7/5 383/7/5 382/7/5
f 386/7/5 383/7/5 385/7/5
f 387/7/5 385/7/5 384/7/5
f 389/7/5 387/7/5 384/7/5
f 389/7/5 388/7/5 387/7/5
f 390/7/5 388/7/5 389/7/5
f 391/6/5 380/6/5 375/6/5
f 391/4/5 381/4/5 380/4/5
f 392/2/5 377/2/5 381/2/5
f 392/4/5 381/4/5 391/4/5
f 393/6/5 391/6/5 375/6/5
f 394/5/5 392/5/5 391/5/5
f 394/6/5 391/6/5 393/6/5
f 395/6/5 379/6/5 378/6/5
f 395/6/5 378/6/5 377/6/5
f 395/2/5 377/2/5 392/2/5
f 396/6/5 379/6/5 395/6/5
f 397/6/5 379/6/5 396/6/5
f 398/5/5 392/5/5 394/5/5
f 399/2/5 395/2/5 392/2/5
f 399/5/5 392/5/5 398/5/5
f 400/5/5 396/5/5 395/5/5
f 400/2/5 395/2/5 399/2/5
f 401/5/5 396/5/5 400/5/5
f 404/4/5 403/4/5 402/4/5
f 405/4/5 403/4/5 404/4/5
f 409/6/5 407/6/5 406/6/5
f 410/4/5 408/4/5 407/4/5
f 410/6/5 407/6/5 409/6/5
f 411/4/5 408/4/5 410/4/5
f 416/4/5 415/4/5 414/4/5
f 417/4/5 415/4/5 416/4/5
f 418/6/5 413/6/5 412/6/5
f 419/6/5 413/6/5 418/6/5
f 423/6/5 421/6/5 420/6/5
f 424/4/5 422/4/5 421/4/5
f 424/6/5 421/6/5 423/6/5
f 425/4/5 422/4/5 424/4/5
f 428/6/5 427/6/5 426/6/5
f 429/6/5 427/6/5 428/6/5
f 432/6/5 431/6/5 430/6/5
f 433/6/5 431/6/5 432/6/5
f 436/6/5 435/6/5 434/6/5
f 437/6/5 435/6/5 436/6/5
f 440/3/5 439/3/5 438/3/5
f 441/3/5 439/3/5 440/3/5
f 442/3/5 439/3/5 441/3/5
f 443/3/5 439/3/5 442/3/5
f 444/3/5 440/3/5 438/3/5
f 445/3/5 439/3/5 443/3/5
f 446/3/5 444/3/5 438/3/5
f 446/3/5 445/3/5 444/3/5
f 447/3/5 439/3/5 445/3/5
f 447/3/5 445/3/5 446/3/5
f 448/6/6 449/6/6 452/6/6
f 452/6/6 449/6/6 453/6/6
f 450/6/6 451/6/6 454/6/6
f 454/6/6 451/6/6 455/6/6
f 460/7/6 461/7/6 463/7/6
f 463/7/6 461/7/6 464/7/6
f 462/7/6 463/7/6 465/7/6
f 465/7/6 463/7/6 466/7/6
f 466/7/6 467/7/6 468/7/6
f 468/7/6 467/7/6 469/7/6
f 456/6/6 457/6/6 470/6/6
f 470/6/6 457/6/6 471/6/6
f 458/6/6 459/6/6 472/6/6
f 472/6/6 459/6/6 473/6/6
f 474/6/6 475/6/6 478/6/6
f 478/6/6 475/6/6 479/6/6
f 476/6/6 477/6/6 480/6/6
f 480/6/6 477/6/6 481/6/6
f 486/7/6 487/7/6 488/7/6
f 488/7/6 487/7/6 489/7/6
f 482/4/6 483/4/6 490/4/6
f 490/4/6 483/4/6 491/4/6
f 484/4/6 485/4/6 492/4/6
f 492/4/6 485/4/6 493/4/6
f 494/5/6 495/5/6 496/5/6
f 496/5/6 495/5/6 497/5/6
f 498/5/6 499/5/6 500/5/6
f 500/5/6 499/5/6 501/5/6
f 501/5/6 499/5/6 502/5/6
f 502/5/6 499/5/6 503/5/6
f 498/5/6 500/5/6 504/5/6
f 504/5/6 500/5/6 505/5/6
f 503/5/6 499/5/6 506/5/6
f 506/5/6 499/5/6 507/5/6
f 508/5/6 509/5/6 510/5/6
f 510/5/6 509/5/6 511/5/6
f 512/6/6 513/6/6 515/6/6
f 513/4/6 514/4/6 516/4/6
f 515/6/6 513/6/6 516/6/6
f 516/4/6 514/4/6 517/4/6
f 518/6/6 519/6/6 520/6/6
f 520/6/6 519/6/6 521/6/6
f 521/6/6 519/6/6 522/6/6
f 522/6/6 519/6/6 523/6/6
f 524/3/6 525/3/6 526/3/6
f 526/3/6 525/3/6 527/3/6
f 524/3/6 526/3/6 528/3/6
f 527/3/6 525/3/6 529/3/6
f 524/3/6 528/3/6 530/3/6
f 528/3/6 529/3/6 530/3/6
f 529/3/6 525/3/6 531/3/6
f 530/3/6 529/3/6 531/3/6
f 532/3/6 533/3/6 534/3/6
f 534/3/6 533/3/6 535/3/6
