# MagicaVoxel @ Ephtracy

# group
g mathuoGAP2-15

# material
mtllib mathuoGAP2-15.mtl
usemtl palette

# normals
vn -1 0 0
vn 1 0 0
vn 0 0 1
vn 0 0 -1
vn 0 -1 0
vn 0 1 0

# texcoords
vt 0.822266 0.5
vt 0.892578 0.5
vt 0.978516 0.5
vt 0.982422 0.5

# verts
v -63 0 30
v -63 0 -63
v -63 1 30
v -63 1 -63
v -63 2 30
v -63 2 -38
v -63 2 -63
v -63 10 30
v -63 10 -38
v -54 1 -50
v -54 1 -51
v -54 2 -40
v -54 2 -41
v -54 2 -50
v -54 2 -51
v -54 3 -40
v -54 3 -41
v -47 1 30
v -47 1 29
v -47 1 -23
v -47 1 -24
v -47 1 -35
v -47 1 -36
v -47 2 30
v -47 2 29
v -47 2 -23
v -47 2 -24
v -47 2 -35
v -47 2 -36
v -40 1 -40
v -40 1 -41
v -40 2 -40
v -40 2 -41
v -38 1 8
v -38 1 7
v -38 2 8
v -38 2 7
v -34 1 -44
v -34 1 -45
v -34 2 -44
v -34 2 -45
v -31 1 -34
v -31 1 -35
v -31 2 -34
v -31 2 -35
v -26 1 -36
v -26 1 -37
v -26 2 -36
v -26 2 -37
v -2 2 -62
v -2 2 -63
v -2 3 -62
v -2 3 -63
v -1 2 -59
v -1 2 -62
v -1 3 -59
v -1 3 -62
v 0 2 -38
v 0 2 -59
v 0 3 -38
v 0 3 -59
v 1 3 -38
v 1 3 -39
v 1 3 -59
v 1 3 -60
v 1 4 -52
v 1 4 -59
v 1 5 -53
v 1 5 -60
v 1 6 -46
v 1 6 -52
v 1 7 -47
v 1 7 -53
v 1 8 -40
v 1 8 -46
v 1 9 -41
v 1 9 -47
v 1 10 -38
v 1 10 -39
v 1 10 -40
v 1 11 -38
v 1 11 -41
v 2 3 -39
v 2 3 -59
v 2 4 -52
v 2 4 -59
v 2 6 -46
v 2 6 -52
v 2 8 -40
v 2 8 -46
v 2 10 -36
v 2 10 -38
v 2 10 -39
v 2 10 -40
v 2 11 -36
v 2 11 -38
v 4 10 -35
v 4 10 -36
v 4 11 -35
v 4 11 -36
v 24 1 -51
v 24 1 -52
v 24 2 -51
v 24 2 -52
v 32 1 -38
v 32 1 -39
v 32 2 -38
v 32 2 -39
v 33 1 -44
v 33 1 -45
v 33 2 -44
v 33 2 -45
v 42 1 -34
v 42 1 -35
v 42 2 -34
v 42 2 -35
v 50 1 -45
v 50 1 -46
v 50 2 -45
v 50 2 -46
v 52 1 -34
v 52 1 -35
v 52 2 -34
v 52 2 -35
v 58 2 -51
v 58 2 -52
v 58 3 -51
v 58 3 -52
v -55 1 -50
v -55 1 -51
v -55 2 -50
v -55 2 -51
v -53 2 -40
v -53 2 -41
v -53 3 -40
v -53 3 -41
v -48 1 30
v -48 1 29
v -48 1 -23
v -48 1 -24
v -48 1 -35
v -48 1 -36
v -48 2 30
v -48 2 29
v -48 2 -23
v -48 2 -24
v -48 2 -35
v -48 2 -36
v -41 1 -40
v -41 1 -41
v -41 2 -40
v -41 2 -41
v -39 1 8
v -39 1 7
v -39 2 8
v -39 2 7
v -35 1 -44
v -35 1 -45
v -35 2 -44
v -35 2 -45
v -32 1 -34
v -32 1 -35
v -32 2 -34
v -32 2 -35
v -27 1 -36
v -27 1 -37
v -27 2 -36
v -27 2 -37
v 23 1 -51
v 23 1 -52
v 23 2 -51
v 23 2 -52
v 31 1 -38
v 31 1 -39
v 31 2 -38
v 31 2 -39
v 32 1 -44
v 32 1 -45
v 32 2 -44
v 32 2 -45
v 41 1 -34
v 41 1 -35
v 41 2 -34
v 41 2 -35
v 48 10 -35
v 48 10 -36
v 48 11 -35
v 48 11 -36
v 49 1 -45
v 49 1 -46
v 49 2 -45
v 49 2 -46
v 50 3 -39
v 50 3 -59
v 50 4 -52
v 50 4 -59
v 50 6 -46
v 50 6 -52
v 50 8 -40
v 50 8 -46
v 50 10 -36
v 50 10 -38
v 50 10 -39
v 50 10 -40
v 50 11 -36
v 50 11 -38
v 51 1 -34
v 51 1 -35
v 51 2 -34
v 51 2 -35
v 51 3 -38
v 51 3 -39
v 51 3 -59
v 51 3 -60
v 51 4 -52
v 51 4 -59
v 51 5 -53
v 51 5 -60
v 51 6 -46
v 51 6 -52
v 51 7 -47
v 51 7 -53
v 51 8 -40
v 51 8 -46
v 51 9 -41
v 51 9 -47
v 51 10 -38
v 51 10 -39
v 51 10 -40
v 51 11 -38
v 51 11 -41
v 52 2 -38
v 52 2 -58
v 52 3 -38
v 52 3 -58
v 53 2 -58
v 53 2 -59
v 53 3 -58
v 53 3 -59
v 54 2 -59
v 54 2 -62
v 54 3 -59
v 54 3 -62
v 55 2 -62
v 55 2 -63
v 55 3 -62
v 55 3 -63
v 59 2 -51
v 59 2 -52
v 59 3 -51
v 59 3 -52
v 63 0 30
v 63 0 -63
v 63 1 30
v 63 1 -63
v 63 2 30
v 63 2 -38
v 63 2 -63
v 63 10 30
v 63 10 -38
v -63 0 30
v -63 1 30
v -63 2 30
v -63 10 30
v -48 1 30
v -48 2 30
v -47 1 30
v -47 2 30
v -18 1 30
v -18 2 30
v 20 1 30
v 20 2 30
v 55 1 30
v 55 2 30
v 56 1 30
v 56 2 30
v 63 0 30
v 63 1 30
v 63 2 30
v 63 10 30
v -48 1 29
v -48 2 29
v -47 1 29
v -47 2 29
v -39 1 7
v -39 2 7
v -38 1 7
v -38 2 7
v -48 1 -24
v -48 2 -24
v -47 1 -24
v -47 2 -24
v -32 1 -35
v -32 2 -35
v -31 1 -35
v -31 2 -35
v 4 10 -35
v 4 11 -35
v 41 1 -35
v 41 2 -35
v 42 1 -35
v 42 2 -35
v 48 10 -35
v 48 11 -35
v 51 1 -35
v 51 2 -35
v 52 1 -35
v 52 2 -35
v -48 1 -36
v -48 2 -36
v -47 1 -36
v -47 2 -36
v 2 10 -36
v 2 11 -36
v 4 10 -36
v 4 11 -36
v 48 10 -36
v 48 11 -36
v 50 10 -36
v 50 11 -36
v -27 1 -37
v -27 2 -37
v -26 1 -37
v -26 2 -37
v 1 10 -38
v 1 11 -38
v 2 10 -38
v 2 11 -38
v 50 10 -38
v 50 11 -38
v 51 10 -38
v 51 11 -38
v 31 1 -39
v 31 2 -39
v 32 1 -39
v 32 2 -39
v -54 2 -40
v -54 3 -40
v -53 2 -40
v -53 3 -40
v 1 8 -40
v 1 10 -40
v 2 8 -40
v 2 10 -40
v 50 8 -40
v 50 10 -40
v 51 8 -40
v 51 10 -40
v -41 1 -41
v -41 2 -41
v -40 1 -41
v -40 2 -41
v -35 1 -45
v -35 2 -45
v -34 1 -45
v -34 2 -45
v 32 1 -45
v 32 2 -45
v 33 1 -45
v 33 2 -45
v 1 6 -46
v 1 8 -46
v 2 6 -46
v 2 8 -46
v 49 1 -46
v 49 2 -46
v 50 1 -46
v 50 2 -46
v 50 6 -46
v 50 8 -46
v 51 6 -46
v 51 8 -46
v -55 1 -51
v -55 2 -51
v -54 1 -51
v -54 2 -51
v 58 2 -51
v 58 3 -51
v 59 2 -51
v 59 3 -51
v 1 4 -52
v 1 6 -52
v 2 4 -52
v 2 6 -52
v 23 1 -52
v 23 2 -52
v 24 1 -52
v 24 2 -52
v 50 4 -52
v 50 6 -52
v 51 4 -52
v 51 6 -52
v 52 2 -58
v 52 3 -58
v 53 2 -58
v 53 3 -58
v -1 2 -59
v -1 3 -59
v 0 2 -59
v 0 3 -59
v 1 3 -59
v 1 4 -59
v 2 3 -59
v 2 4 -59
v 50 3 -59
v 50 4 -59
v 51 3 -59
v 51 4 -59
v 53 2 -59
v 53 3 -59
v 54 2 -59
v 54 3 -59
v -2 2 -62
v -2 3 -62
v -1 2 -62
v -1 3 -62
v 54 2 -62
v 54 3 -62
v 55 2 -62
v 55 3 -62
v -39 1 8
v -39 2 8
v -38 1 8
v -38 2 8
v -48 1 -23
v -48 2 -23
v -47 1 -23
v -47 2 -23
v -32 1 -34
v -32 2 -34
v -31 1 -34
v -31 2 -34
v 41 1 -34
v 41 2 -34
v 42 1 -34
v 42 2 -34
v 51 1 -34
v 51 2 -34
v 52 1 -34
v 52 2 -34
v -48 1 -35
v -48 2 -35
v -47 1 -35
v -47 2 -35
v -27 1 -36
v -27 2 -36
v -26 1 -36
v -26 2 -36
v -63 2 -38
v -63 10 -38
v 0 2 -38
v 0 3 -38
v 1 3 -38
v 1 10 -38
v 31 1 -38
v 31 2 -38
v 32 1 -38
v 32 2 -38
v 51 3 -38
v 51 10 -38
v 52 2 -38
v 52 3 -38
v 63 2 -38
v 63 10 -38
v 1 3 -39
v 1 10 -39
v 2 3 -39
v 2 10 -39
v 50 3 -39
v 50 10 -39
v 51 3 -39
v 51 10 -39
v -41 1 -40
v -41 2 -40
v -40 1 -40
v -40 2 -40
v -54 2 -41
v -54 3 -41
v -53 2 -41
v -53 3 -41
v 1 9 -41
v 1 11 -41
v 51 9 -41
v 51 11 -41
v -35 1 -44
v -35 2 -44
v -34 1 -44
v -34 2 -44
v 32 1 -44
v 32 2 -44
v 33 1 -44
v 33 2 -44
v 49 1 -45
v 49 2 -45
v 50 1 -45
v 50 2 -45
v 1 7 -47
v 1 9 -47
v 51 7 -47
v 51 9 -47
v -55 1 -50
v -55 2 -50
v -54 1 -50
v -54 2 -50
v 23 1 -51
v 23 2 -51
v 24 1 -51
v 24 2 -51
v 58 2 -52
v 58 3 -52
v 59 2 -52
v 59 3 -52
v 1 5 -53
v 1 7 -53
v 51 5 -53
v 51 7 -53
v 1 3 -60
v 1 5 -60
v 51 3 -60
v 51 5 -60
v -63 0 -63
v -63 1 -63
v -63 2 -63
v -2 2 -63
v -2 3 -63
v 55 2 -63
v 55 3 -63
v 63 0 -63
v 63 1 -63
v 63 2 -63
v -63 0 30
v 63 0 30
v -15 0 -44
v -14 0 -44
v 16 0 -44
v 17 0 -44
v -15 0 -45
v -14 0 -45
v 16 0 -45
v 17 0 -45
v -63 0 -63
v 63 0 -63
v -48 2 30
v -47 2 30
v -48 2 29
v -47 2 29
v -39 2 8
v -38 2 8
v -39 2 7
v -38 2 7
v -48 2 -23
v -47 2 -23
v -48 2 -24
v -47 2 -24
v -32 2 -34
v -31 2 -34
v 41 2 -34
v 42 2 -34
v 51 2 -34
v 52 2 -34
v -48 2 -35
v -47 2 -35
v -32 2 -35
v -31 2 -35
v 41 2 -35
v 42 2 -35
v 51 2 -35
v 52 2 -35
v -48 2 -36
v -47 2 -36
v -27 2 -36
v -26 2 -36
v -27 2 -37
v -26 2 -37
v 31 2 -38
v 32 2 -38
v 31 2 -39
v 32 2 -39
v 32 2 -44
v 33 2 -44
v 32 2 -45
v 33 2 -45
v 49 2 -45
v 50 2 -45
v 49 2 -46
v 50 2 -46
v 23 2 -51
v 24 2 -51
v 23 2 -52
v 24 2 -52
v 1 4 -52
v 2 4 -52
v 50 4 -52
v 51 4 -52
v 1 4 -59
v 2 4 -59
v 50 4 -59
v 51 4 -59
v 1 6 -46
v 2 6 -46
v 50 6 -46
v 51 6 -46
v 1 6 -52
v 2 6 -52
v 50 6 -52
v 51 6 -52
v 1 8 -40
v 2 8 -40
v 50 8 -40
v 51 8 -40
v 1 8 -46
v 2 8 -46
v 50 8 -46
v 51 8 -46
v 1 10 -39
v 2 10 -39
v 50 10 -39
v 51 10 -39
v 1 10 -40
v 2 10 -40
v 50 10 -40
v 51 10 -40
v -48 1 30
v -47 1 30
v -48 1 29
v -47 1 29
v -39 1 8
v -38 1 8
v -39 1 7
v -38 1 7
v -48 1 -23
v -47 1 -23
v -48 1 -24
v -47 1 -24
v -32 1 -34
v -31 1 -34
v 41 1 -34
v 42 1 -34
v 51 1 -34
v 52 1 -34
v -48 1 -35
v -47 1 -35
v -32 1 -35
v -31 1 -35
v 41 1 -35
v 42 1 -35
v 51 1 -35
v 52 1 -35
v -48 1 -36
v -47 1 -36
v -27 1 -36
v -26 1 -36
v -27 1 -37
v -26 1 -37
v 31 1 -38
v 32 1 -38
v 31 1 -39
v 32 1 -39
v -41 1 -40
v -40 1 -40
v -41 1 -41
v -40 1 -41
v -35 1 -44
v -34 1 -44
v 32 1 -44
v 33 1 -44
v -35 1 -45
v -34 1 -45
v 32 1 -45
v 33 1 -45
v 49 1 -45
v 50 1 -45
v 49 1 -46
v 50 1 -46
v -55 1 -50
v -54 1 -50
v -55 1 -51
v -54 1 -51
v 23 1 -51
v 24 1 -51
v 23 1 -52
v 24 1 -52
v -63 2 -38
v 0 2 -38
v 52 2 -38
v 63 2 -38
v -54 2 -40
v -53 2 -40
v -41 2 -40
v -40 2 -40
v -21 2 -40
v -20 2 -40
v 57 2 -40
v 58 2 -40
v -54 2 -41
v -53 2 -41
v -41 2 -41
v -40 2 -41
v -21 2 -41
v -20 2 -41
v 57 2 -41
v 58 2 -41
v -35 2 -44
v -34 2 -44
v -35 2 -45
v -34 2 -45
v -27 2 -45
v -26 2 -45
v -59 2 -46
v -58 2 -46
v -27 2 -46
v -26 2 -46
v -59 2 -47
v -58 2 -47
v 53 2 -49
v 54 2 -49
v -55 2 -50
v -54 2 -50
v 53 2 -50
v 54 2 -50
v -55 2 -51
v -54 2 -51
v -48 2 -51
v -47 2 -51
v 58 2 -51
v 59 2 -51
v -48 2 -52
v -47 2 -52
v -22 2 -52
v -21 2 -52
v 58 2 -52
v 59 2 -52
v -22 2 -53
v -21 2 -53
v -30 2 -54
v -29 2 -54
v -30 2 -55
v -29 2 -55
v 52 2 -58
v 53 2 -58
v -1 2 -59
v 0 2 -59
v 53 2 -59
v 54 2 -59
v -2 2 -62
v -1 2 -62
v 54 2 -62
v 55 2 -62
v -63 2 -63
v -2 2 -63
v 55 2 -63
v 63 2 -63
v 0 3 -38
v 1 3 -38
v 51 3 -38
v 52 3 -38
v 1 3 -39
v 2 3 -39
v 50 3 -39
v 51 3 -39
v -54 3 -40
v -53 3 -40
v -54 3 -41
v -53 3 -41
v 58 3 -51
v 59 3 -51
v 58 3 -52
v 59 3 -52
v 52 3 -58
v 53 3 -58
v -1 3 -59
v 0 3 -59
v 1 3 -59
v 2 3 -59
v 50 3 -59
v 51 3 -59
v 53 3 -59
v 54 3 -59
v 1 3 -60
v 51 3 -60
v -2 3 -62
v -1 3 -62
v 54 3 -62
v 55 3 -62
v -2 3 -63
v 55 3 -63
v 1 5 -53
v 51 5 -53
v 1 5 -60
v 51 5 -60
v 1 7 -47
v 51 7 -47
v 1 7 -53
v 51 7 -53
v 1 9 -41
v 51 9 -41
v 1 9 -47
v 51 9 -47
v -63 10 30
v 63 10 30
v 4 10 -35
v 48 10 -35
v 2 10 -36
v 4 10 -36
v 48 10 -36
v 50 10 -36
v -63 10 -38
v 1 10 -38
v 2 10 -38
v 50 10 -38
v 51 10 -38
v 63 10 -38
v 4 11 -35
v 48 11 -35
v 2 11 -36
v 4 11 -36
v 48 11 -36
v 50 11 -36
v 1 11 -38
v 2 11 -38
v 50 11 -38
v 51 11 -38
v 1 11 -41
v 51 11 -41

# faces
f 3/3/1 2/3/1 1/3/1
f 4/3/1 2/3/1 3/3/1
f 5/4/1 4/4/1 3/4/1
f 6/4/1 4/4/1 5/4/1
f 7/4/1 4/4/1 6/4/1
f 8/3/1 6/3/1 5/3/1
f 9/3/1 6/3/1 8/3/1
f 14/4/1 11/4/1 10/4/1
f 15/4/1 11/4/1 14/4/1
f 16/3/1 13/3/1 12/3/1
f 17/3/1 13/3/1 16/3/1
f 24/4/1 19/4/1 18/4/1
f 25/4/1 19/4/1 24/4/1
f 26/4/1 21/4/1 20/4/1
f 27/4/1 21/4/1 26/4/1
f 28/4/1 23/4/1 22/4/1
f 29/4/1 23/4/1 28/4/1
f 32/4/1 31/4/1 30/4/1
f 33/4/1 31/4/1 32/4/1
f 36/4/1 35/4/1 34/4/1
f 37/4/1 35/4/1 36/4/1
f 40/4/1 39/4/1 38/4/1
f 41/4/1 39/4/1 40/4/1
f 44/4/1 43/4/1 42/4/1
f 45/4/1 43/4/1 44/4/1
f 48/4/1 47/4/1 46/4/1
f 49/4/1 47/4/1 48/4/1
f 52/2/1 51/2/1 50/2/1
f 53/2/1 51/2/1 52/2/1
f 56/2/1 55/2/1 54/2/1
f 57/2/1 55/2/1 56/2/1
f 60/2/1 59/2/1 58/2/1
f 61/2/1 59/2/1 60/2/1
f 67/2/1 65/2/1 64/2/1
f 68/2/1 67/2/1 66/2/1
f 69/2/1 65/2/1 67/2/1
f 69/2/1 67/2/1 68/2/1
f 71/2/1 68/2/1 66/2/1
f 72/2/1 71/2/1 70/2/1
f 73/2/1 68/2/1 71/2/1
f 73/2/1 71/2/1 72/2/1
f 75/2/1 72/2/1 70/2/1
f 76/2/1 75/2/1 74/2/1
f 77/2/1 72/2/1 75/2/1
f 77/2/1 75/2/1 76/2/1
f 78/2/1 63/2/1 62/2/1
f 79/2/1 63/2/1 78/2/1
f 80/2/1 76/2/1 74/2/1
f 81/2/1 79/2/1 78/2/1
f 81/2/1 80/2/1 79/2/1
f 82/2/1 76/2/1 80/2/1
f 82/2/1 80/2/1 81/2/1
f 85/2/1 84/2/1 83/2/1
f 86/2/1 84/2/1 85/2/1
f 87/2/1 85/2/1 83/2/1
f 88/2/1 85/2/1 87/2/1
f 89/2/1 87/2/1 83/2/1
f 90/2/1 87/2/1 89/2/1
f 93/2/1 89/2/1 83/2/1
f 94/2/1 89/2/1 93/2/1
f 95/2/1 92/2/1 91/2/1
f 96/2/1 92/2/1 95/2/1
f 99/2/1 98/2/1 97/2/1
f 100/2/1 98/2/1 99/2/1
f 103/4/1 102/4/1 101/4/1
f 104/4/1 102/4/1 103/4/1
f 107/4/1 106/4/1 105/4/1
f 108/4/1 106/4/1 107/4/1
f 111/4/1 110/4/1 109/4/1
f 112/4/1 110/4/1 111/4/1
f 115/4/1 114/4/1 113/4/1
f 116/4/1 114/4/1 115/4/1
f 119/4/1 118/4/1 117/4/1
f 120/4/1 118/4/1 119/4/1
f 123/4/1 122/4/1 121/4/1
f 124/4/1 122/4/1 123/4/1
f 127/3/1 126/3/1 125/3/1
f 128/3/1 126/3/1 127/3/1
f 129/4/2 130/4/2 131/4/2
f 131/4/2 130/4/2 132/4/2
f 133/3/2 134/3/2 135/3/2
f 135/3/2 134/3/2 136/3/2
f 137/4/2 138/4/2 143/4/2
f 143/4/2 138/4/2 144/4/2
f 139/4/2 140/4/2 145/4/2
f 145/4/2 140/4/2 146/4/2
f 141/4/2 142/4/2 147/4/2
f 147/4/2 142/4/2 148/4/2
f 149/4/2 150/4/2 151/4/2
f 151/4/2 150/4/2 152/4/2
f 153/4/2 154/4/2 155/4/2
f 155/4/2 154/4/2 156/4/2
f 157/4/2 158/4/2 159/4/2
f 159/4/2 158/4/2 160/4/2
f 161/4/2 162/4/2 163/4/2
f 163/4/2 162/4/2 164/4/2
f 165/4/2 166/4/2 167/4/2
f 167/4/2 166/4/2 168/4/2
f 169/4/2 170/4/2 171/4/2
f 171/4/2 170/4/2 172/4/2
f 173/4/2 174/4/2 175/4/2
f 175/4/2 174/4/2 176/4/2
f 177/4/2 178/4/2 179/4/2
f 179/4/2 178/4/2 180/4/2
f 181/4/2 182/4/2 183/4/2
f 183/4/2 182/4/2 184/4/2
f 185/2/2 186/2/2 187/2/2
f 187/2/2 186/2/2 188/2/2
f 189/4/2 190/4/2 191/4/2
f 191/4/2 190/4/2 192/4/2
f 193/2/2 194/2/2 195/2/2
f 195/2/2 194/2/2 196/2/2
f 193/2/2 195/2/2 197/2/2
f 197/2/2 195/2/2 198/2/2
f 193/2/2 197/2/2 199/2/2
f 199/2/2 197/2/2 200/2/2
f 193/2/2 199/2/2 203/2/2
f 203/2/2 199/2/2 204/2/2
f 201/2/2 202/2/2 205/2/2
f 205/2/2 202/2/2 206/2/2
f 207/4/2 208/4/2 209/4/2
f 209/4/2 208/4/2 210/4/2
f 213/2/2 214/2/2 216/2/2
f 215/2/2 216/2/2 217/2/2
f 216/2/2 214/2/2 218/2/2
f 217/2/2 216/2/2 218/2/2
f 215/2/2 217/2/2 220/2/2
f 219/2/2 220/2/2 221/2/2
f 220/2/2 217/2/2 222/2/2
f 221/2/2 220/2/2 222/2/2
f 219/2/2 221/2/2 224/2/2
f 223/2/2 224/2/2 225/2/2
f 224/2/2 221/2/2 226/2/2
f 225/2/2 224/2/2 226/2/2
f 211/2/2 212/2/2 227/2/2
f 227/2/2 212/2/2 228/2/2
f 223/2/2 225/2/2 229/2/2
f 227/2/2 228/2/2 230/2/2
f 228/2/2 229/2/2 230/2/2
f 229/2/2 225/2/2 231/2/2
f 230/2/2 229/2/2 231/2/2
f 232/2/2 233/2/2 234/2/2
f 234/2/2 233/2/2 235/2/2
f 236/2/2 237/2/2 238/2/2
f 238/2/2 237/2/2 239/2/2
f 240/2/2 241/2/2 242/2/2
f 242/2/2 241/2/2 243/2/2
f 244/2/2 245/2/2 246/2/2
f 246/2/2 245/2/2 247/2/2
f 248/3/2 249/3/2 250/3/2
f 250/3/2 249/3/2 251/3/2
f 252/3/2 253/3/2 254/3/2
f 254/3/2 253/3/2 255/3/2
f 254/4/2 255/4/2 256/4/2
f 256/4/2 255/4/2 257/4/2
f 257/4/2 255/4/2 258/4/2
f 256/3/2 257/3/2 259/3/2
f 259/3/2 257/3/2 260/3/2
f 265/3/3 262/3/3 261/3/3
f 265/4/3 263/4/3 262/4/3
f 266/3/3 264/3/3 263/3/3
f 266/4/3 263/4/3 265/4/3
f 267/3/3 265/3/3 261/3/3
f 268/3/3 264/3/3 266/3/3
f 269/3/3 267/3/3 261/3/3
f 269/4/3 268/4/3 267/4/3
f 270/3/3 264/3/3 268/3/3
f 270/4/3 268/4/3 269/4/3
f 271/3/3 269/3/3 261/3/3
f 271/1/3 270/1/3 269/1/3
f 272/3/3 264/3/3 270/3/3
f 272/1/3 270/1/3 271/1/3
f 273/3/3 271/3/3 261/3/3
f 273/4/3 272/4/3 271/4/3
f 274/3/3 264/3/3 272/3/3
f 274/4/3 272/4/3 273/4/3
f 275/3/3 273/3/3 261/3/3
f 275/3/3 274/3/3 273/3/3
f 276/3/3 264/3/3 274/3/3
f 276/3/3 274/3/3 275/3/3
f 277/3/3 275/3/3 261/3/3
f 278/4/3 276/4/3 275/4/3
f 278/3/3 275/3/3 277/3/3
f 279/3/3 264/3/3 276/3/3
f 279/4/3 276/4/3 278/4/3
f 280/3/3 264/3/3 279/3/3
f 283/4/3 282/4/3 281/4/3
f 284/4/3 282/4/3 283/4/3
f 287/4/3 286/4/3 285/4/3
f 288/4/3 286/4/3 287/4/3
f 291/4/3 290/4/3 289/4/3
f 292/4/3 290/4/3 291/4/3
f 295/4/3 294/4/3 293/4/3
f 296/4/3 294/4/3 295/4/3
f 301/4/3 300/4/3 299/4/3
f 302/4/3 300/4/3 301/4/3
f 303/2/3 298/2/3 297/2/3
f 304/2/3 298/2/3 303/2/3
f 307/4/3 306/4/3 305/4/3
f 308/4/3 306/4/3 307/4/3
f 311/4/3 310/4/3 309/4/3
f 312/4/3 310/4/3 311/4/3
f 315/2/3 314/2/3 313/2/3
f 316/2/3 314/2/3 315/2/3
f 319/2/3 318/2/3 317/2/3
f 320/2/3 318/2/3 319/2/3
f 323/4/3 322/4/3 321/4/3
f 324/4/3 322/4/3 323/4/3
f 327/2/3 326/2/3 325/2/3
f 328/2/3 326/2/3 327/2/3
f 331/2/3 330/2/3 329/2/3
f 332/2/3 330/2/3 331/2/3
f 335/4/3 334/4/3 333/4/3
f 336/4/3 334/4/3 335/4/3
f 339/3/3 338/3/3 337/3/3
f 340/3/3 338/3/3 339/3/3
f 343/2/3 342/2/3 341/2/3
f 344/2/3 342/2/3 343/2/3
f 347/2/3 346/2/3 345/2/3
f 348/2/3 346/2/3 347/2/3
f 351/4/3 350/4/3 349/4/3
f 352/4/3 350/4/3 351/4/3
f 355/4/3 354/4/3 353/4/3
f 356/4/3 354/4/3 355/4/3
f 359/4/3 358/4/3 357/4/3
f 360/4/3 358/4/3 359/4/3
f 363/2/3 362/2/3 361/2/3
f 364/2/3 362/2/3 363/2/3
f 367/4/3 366/4/3 365/4/3
f 368/4/3 366/4/3 367/4/3
f 371/2/3 370/2/3 369/2/3
f 372/2/3 370/2/3 371/2/3
f 375/4/3 374/4/3 373/4/3
f 376/4/3 374/4/3 375/4/3
f 379/3/3 378/3/3 377/3/3
f 380/3/3 378/3/3 379/3/3
f 383/2/3 382/2/3 381/2/3
f 384/2/3 382/2/3 383/2/3
f 387/4/3 386/4/3 385/4/3
f 388/4/3 386/4/3 387/4/3
f 391/2/3 390/2/3 389/2/3
f 392/2/3 390/2/3 391/2/3
f 395/2/3 394/2/3 393/2/3
f 396/2/3 394/2/3 395/2/3
f 399/2/3 398/2/3 397/2/3
f 400/2/3 398/2/3 399/2/3
f 403/2/3 402/2/3 401/2/3
f 404/2/3 402/2/3 403/2/3
f 407/2/3 406/2/3 405/2/3
f 408/2/3 406/2/3 407/2/3
f 411/2/3 410/2/3 409/2/3
f 412/2/3 410/2/3 411/2/3
f 415/2/3 414/2/3 413/2/3
f 416/2/3 414/2/3 415/2/3
f 419/2/3 418/2/3 417/2/3
f 420/2/3 418/2/3 419/2/3
f 421/4/4 422/4/4 423/4/4
f 423/4/4 422/4/4 424/4/4
f 425/4/4 426/4/4 427/4/4
f 427/4/4 426/4/4 428/4/4
f 429/4/4 430/4/4 431/4/4
f 431/4/4 430/4/4 432/4/4
f 433/4/4 434/4/4 435/4/4
f 435/4/4 434/4/4 436/4/4
f 437/4/4 438/4/4 439/4/4
f 439/4/4 438/4/4 440/4/4
f 441/4/4 442/4/4 443/4/4
f 443/4/4 442/4/4 444/4/4
f 445/4/4 446/4/4 447/4/4
f 447/4/4 446/4/4 448/4/4
f 449/3/4 450/3/4 451/3/4
f 451/3/4 450/3/4 452/3/4
f 452/3/4 450/3/4 453/3/4
f 453/3/4 450/3/4 454/3/4
f 455/4/4 456/4/4 457/4/4
f 457/4/4 456/4/4 458/4/4
f 459/3/4 460/3/4 462/3/4
f 461/3/4 462/3/4 463/3/4
f 462/3/4 460/3/4 464/3/4
f 463/3/4 462/3/4 464/3/4
f 465/2/4 466/2/4 467/2/4
f 467/2/4 466/2/4 468/2/4
f 469/2/4 470/2/4 471/2/4
f 471/2/4 470/2/4 472/2/4
f 473/4/4 474/4/4 475/4/4
f 475/4/4 474/4/4 476/4/4
f 477/3/4 478/3/4 479/3/4
f 479/3/4 478/3/4 480/3/4
f 481/2/4 482/2/4 483/2/4
f 483/2/4 482/2/4 484/2/4
f 485/4/4 486/4/4 487/4/4
f 487/4/4 486/4/4 488/4/4
f 489/4/4 490/4/4 491/4/4
f 491/4/4 490/4/4 492/4/4
f 493/4/4 494/4/4 495/4/4
f 495/4/4 494/4/4 496/4/4
f 497/2/4 498/2/4 499/2/4
f 499/2/4 498/2/4 500/2/4
f 501/4/4 502/4/4 503/4/4
f 503/4/4 502/4/4 504/4/4
f 505/4/4 506/4/4 507/4/4
f 507/4/4 506/4/4 508/4/4
f 509/3/4 510/3/4 511/3/4
f 511/3/4 510/3/4 512/3/4
f 513/2/4 514/2/4 515/2/4
f 515/2/4 514/2/4 516/2/4
f 517/2/4 518/2/4 519/2/4
f 519/2/4 518/2/4 520/2/4
f 522/4/4 523/4/4 524/4/4
f 522/4/4 524/4/4 526/4/4
f 524/2/4 525/2/4 526/2/4
f 526/2/4 525/2/4 527/2/4
f 521/3/4 522/3/4 528/3/4
f 522/4/4 526/4/4 529/4/4
f 528/3/4 522/3/4 529/3/4
f 529/4/4 526/4/4 530/4/4
f 533/3/5 532/3/5 531/3/5
f 534/3/5 532/3/5 533/3/5
f 535/3/5 532/3/5 534/3/5
f 536/3/5 532/3/5 535/3/5
f 537/3/5 533/3/5 531/3/5
f 537/1/5 534/1/5 533/1/5
f 538/3/5 535/3/5 534/3/5
f 538/1/5 534/1/5 537/1/5
f 539/1/5 536/1/5 535/1/5
f 539/3/5 535/3/5 538/3/5
f 540/3/5 532/3/5 536/3/5
f 540/1/5 536/1/5 539/1/5
f 541/3/5 539/3/5 538/3/5
f 541/3/5 538/3/5 537/3/5
f 541/3/5 540/3/5 539/3/5
f 541/3/5 537/3/5 531/3/5
f 542/3/5 532/3/5 540/3/5
f 542/3/5 540/3/5 541/3/5
f 545/3/5 544/3/5 543/3/5
f 546/3/5 544/3/5 545/3/5
f 549/3/5 548/3/5 547/3/5
f 550/3/5 548/3/5 549/3/5
f 553/3/5 552/3/5 551/3/5
f 554/3/5 552/3/5 553/3/5
f 563/3/5 556/3/5 555/3/5
f 564/3/5 556/3/5 563/3/5
f 565/3/5 558/3/5 557/3/5
f 566/3/5 558/3/5 565/3/5
f 567/3/5 560/3/5 559/3/5
f 568/3/5 560/3/5 567/3/5
f 569/3/5 562/3/5 561/3/5
f 570/3/5 562/3/5 569/3/5
f 573/3/5 572/3/5 571/3/5
f 574/3/5 572/3/5 573/3/5
f 577/2/5 576/2/5 575/2/5
f 578/2/5 576/2/5 577/2/5
f 581/2/5 580/2/5 579/2/5
f 582/2/5 580/2/5 581/2/5
f 585/2/5 584/2/5 583/2/5
f 586/2/5 584/2/5 585/2/5
f 589/2/5 588/2/5 587/2/5
f 590/2/5 588/2/5 589/2/5
f 595/2/5 592/2/5 591/2/5
f 596/2/5 592/2/5 595/2/5
f 597/2/5 594/2/5 593/2/5
f 598/2/5 594/2/5 597/2/5
f 603/2/5 600/2/5 599/2/5
f 604/2/5 600/2/5 603/2/5
f 605/2/5 602/2/5 601/2/5
f 606/2/5 602/2/5 605/2/5
f 611/2/5 608/2/5 607/2/5
f 612/2/5 608/2/5 611/2/5
f 613/2/5 610/2/5 609/2/5
f 614/2/5 610/2/5 613/2/5
f 619/2/5 616/2/5 615/2/5
f 620/2/5 616/2/5 619/2/5
f 621/2/5 618/2/5 617/2/5
f 622/2/5 618/2/5 621/2/5
f 623/3/6 624/3/6 625/3/6
f 625/3/6 624/3/6 626/3/6
f 627/3/6 628/3/6 629/3/6
f 629/3/6 628/3/6 630/3/6
f 631/3/6 632/3/6 633/3/6
f 633/3/6 632/3/6 634/3/6
f 635/3/6 636/3/6 643/3/6
f 643/3/6 636/3/6 644/3/6
f 637/3/6 638/3/6 645/3/6
f 645/3/6 638/3/6 646/3/6
f 639/3/6 640/3/6 647/3/6
f 647/3/6 640/3/6 648/3/6
f 641/3/6 642/3/6 649/3/6
f 649/3/6 642/3/6 650/3/6
f 651/3/6 652/3/6 653/3/6
f 653/3/6 652/3/6 654/3/6
f 655/3/6 656/3/6 657/3/6
f 657/3/6 656/3/6 658/3/6
f 659/3/6 660/3/6 661/3/6
f 661/3/6 660/3/6 662/3/6
f 663/3/6 664/3/6 667/3/6
f 667/3/6 664/3/6 668/3/6
f 665/3/6 666/3/6 669/3/6
f 669/3/6 666/3/6 670/3/6
f 671/3/6 672/3/6 673/3/6
f 673/3/6 672/3/6 674/3/6
f 675/3/6 676/3/6 677/3/6
f 677/3/6 676/3/6 678/3/6
f 679/3/6 680/3/6 681/3/6
f 681/3/6 680/3/6 682/3/6
f 683/4/6 684/4/6 687/4/6
f 687/4/6 684/4/6 688/4/6
f 688/4/6 684/4/6 689/4/6
f 689/4/6 684/4/6 690/4/6
f 690/4/6 684/4/6 691/4/6
f 691/4/6 684/4/6 692/4/6
f 685/4/6 686/4/6 693/4/6
f 693/4/6 686/4/6 694/4/6
f 683/4/6 687/4/6 695/4/6
f 688/4/6 689/4/6 696/4/6
f 696/4/6 689/4/6 697/4/6
f 690/4/6 691/4/6 698/4/6
f 691/3/6 692/3/6 699/3/6
f 698/4/6 691/4/6 699/4/6
f 692/4/6 684/4/6 700/4/6
f 699/3/6 692/3/6 700/3/6
f 693/3/6 694/3/6 701/3/6
f 685/4/6 693/4/6 701/4/6
f 694/4/6 686/4/6 702/4/6
f 701/3/6 694/3/6 702/3/6
f 698/4/6 699/4/6 703/4/6
f 699/4/6 700/4/6 703/4/6
f 696/4/6 697/4/6 703/4/6
f 697/4/6 698/4/6 703/4/6
f 695/4/6 696/4/6 703/4/6
f 703/4/6 700/4/6 704/4/6
f 695/4/6 703/4/6 705/4/6
f 704/4/6 700/4/6 706/4/6
f 706/4/6 700/4/6 707/4/6
f 707/4/6 700/4/6 708/4/6
f 683/4/6 695/4/6 709/4/6
f 695/4/6 705/4/6 709/4/6
f 705/4/6 706/4/6 709/4/6
f 706/4/6 707/4/6 709/4/6
f 709/4/6 707/4/6 710/4/6
f 707/3/6 708/3/6 711/3/6
f 710/4/6 707/4/6 711/4/6
f 708/4/6 700/4/6 712/4/6
f 711/3/6 708/3/6 712/3/6
f 709/3/6 710/3/6 713/3/6
f 683/4/6 709/4/6 713/4/6
f 710/4/6 711/4/6 714/4/6
f 713/3/6 710/3/6 714/3/6
f 711/4/6 712/4/6 714/4/6
f 685/4/6 701/4/6 715/4/6
f 701/4/6 702/4/6 715/4/6
f 715/4/6 702/4/6 716/4/6
f 714/4/6 712/4/6 717/4/6
f 713/4/6 714/4/6 717/4/6
f 717/4/6 712/4/6 718/4/6
f 715/3/6 716/3/6 719/3/6
f 685/4/6 715/4/6 719/4/6
f 716/4/6 702/4/6 720/4/6
f 719/3/6 716/3/6 720/3/6
f 713/4/6 717/4/6 721/4/6
f 718/4/6 712/4/6 722/4/6
f 722/4/6 712/4/6 723/4/6
f 723/4/6 712/4/6 724/4/6
f 702/4/6 686/4/6 725/4/6
f 720/4/6 702/4/6 725/4/6
f 719/4/6 720/4/6 725/4/6
f 725/4/6 686/4/6 726/4/6
f 723/3/6 724/3/6 727/3/6
f 722/4/6 723/4/6 727/4/6
f 721/4/6 722/4/6 727/4/6
f 724/4/6 712/4/6 728/4/6
f 727/3/6 724/3/6 728/3/6
f 712/4/6 700/4/6 729/4/6
f 728/4/6 712/4/6 729/4/6
f 729/4/6 700/4/6 730/4/6
f 719/4/6 725/4/6 731/4/6
f 726/4/6 686/4/6 732/4/6
f 727/4/6 728/4/6 733/4/6
f 728/4/6 729/4/6 733/4/6
f 729/3/6 730/3/6 733/3/6
f 730/4/6 700/4/6 734/4/6
f 733/3/6 730/3/6 734/3/6
f 727/4/6 733/4/6 735/4/6
f 733/4/6 734/4/6 735/4/6
f 735/4/6 734/4/6 736/4/6
f 727/4/6 735/4/6 737/4/6
f 735/3/6 736/3/6 737/3/6
f 736/4/6 734/4/6 738/4/6
f 737/3/6 736/3/6 738/3/6
f 685/4/6 719/4/6 739/4/6
f 731/4/6 732/4/6 739/4/6
f 719/4/6 731/4/6 739/4/6
f 739/4/6 732/4/6 740/4/6
f 738/4/6 734/4/6 741/4/6
f 700/4/6 684/4/6 741/4/6
f 737/4/6 738/4/6 741/4/6
f 734/4/6 700/4/6 741/4/6
f 741/4/6 684/4/6 742/4/6
f 740/4/6 732/4/6 743/4/6
f 743/4/6 732/4/6 744/4/6
f 737/4/6 741/4/6 745/4/6
f 745/4/6 741/4/6 746/4/6
f 744/4/6 732/4/6 747/4/6
f 747/4/6 732/4/6 748/4/6
f 721/4/6 727/4/6 749/4/6
f 683/4/6 713/4/6 749/4/6
f 737/4/6 745/4/6 749/4/6
f 713/4/6 721/4/6 749/4/6
f 727/4/6 737/4/6 749/4/6
f 749/4/6 745/4/6 750/4/6
f 748/4/6 732/4/6 751/4/6
f 732/4/6 686/4/6 752/4/6
f 751/4/6 732/4/6 752/4/6
f 753/2/6 754/2/6 757/2/6
f 755/2/6 756/2/6 760/2/6
f 761/3/6 762/3/6 763/3/6
f 763/3/6 762/3/6 764/3/6
f 765/3/6 766/3/6 767/3/6
f 767/3/6 766/3/6 768/3/6
f 760/2/6 756/2/6 769/2/6
f 759/2/6 760/2/6 769/2/6
f 757/2/6 758/2/6 772/2/6
f 753/2/6 757/2/6 772/2/6
f 772/2/6 758/2/6 773/2/6
f 773/2/6 758/2/6 774/2/6
f 769/2/6 770/2/6 775/2/6
f 759/2/6 769/2/6 775/2/6
f 775/2/6 770/2/6 776/2/6
f 776/2/6 770/2/6 777/2/6
f 772/2/6 773/2/6 779/2/6
f 771/2/6 772/2/6 779/2/6
f 777/2/6 778/2/6 780/2/6
f 776/2/6 777/2/6 780/2/6
f 771/2/6 779/2/6 782/2/6
f 779/2/6 780/2/6 782/2/6
f 780/2/6 778/2/6 783/2/6
f 782/2/6 780/2/6 783/2/6
f 781/2/6 782/2/6 785/2/6
f 783/2/6 784/2/6 785/2/6
f 782/2/6 783/2/6 785/2/6
f 785/2/6 784/2/6 786/2/6
f 787/2/6 788/2/6 789/2/6
f 789/2/6 788/2/6 790/2/6
f 791/2/6 792/2/6 793/2/6
f 793/2/6 792/2/6 794/2/6
f 795/2/6 796/2/6 797/2/6
f 797/2/6 796/2/6 798/2/6
f 799/3/6 800/3/6 801/3/6
f 801/3/6 800/3/6 802/3/6
f 799/3/6 801/3/6 803/3/6
f 803/3/6 801/3/6 804/3/6
f 802/3/6 800/3/6 805/3/6
f 805/3/6 800/3/6 806/3/6
f 799/3/6 803/3/6 807/3/6
f 807/3/6 803/3/6 808/3/6
f 808/3/6 803/3/6 809/3/6
f 806/3/6 800/3/6 810/3/6
f 810/3/6 800/3/6 811/3/6
f 811/3/6 800/3/6 812/3/6
f 813/2/6 814/2/6 816/2/6
f 816/2/6 814/2/6 817/2/6
f 815/2/6 816/2/6 820/2/6
f 817/2/6 818/2/6 820/2/6
f 816/2/6 817/2/6 820/2/6
f 820/2/6 818/2/6 821/2/6
f 819/2/6 820/2/6 823/2/6
f 821/2/6 822/2/6 823/2/6
f 820/2/6 821/2/6 823/2/6
f 823/2/6 822/2/6 824/2/6
