# MagicaVoxel @ Ephtracy

# group
g mapkari-17

# material
mtllib mapkari-17.mtl
usemtl palette

# normals
vn -1 0 0
vn 1 0 0
vn 0 0 1
vn 0 0 -1
vn 0 -1 0
vn 0 1 0

# texcoords
vt 0.853516 0.5
vt 0.892578 0.5

# verts
v -9 36 15
v -9 36 -9
v -9 48 15
v -9 48 -9
v -6 0 5
v -6 0 1
v -6 12 5
v -6 12 1
v -4 0 1
v -4 0 -4
v -4 12 4
v -4 12 1
v -4 36 4
v -4 36 -4
v -1 31 11
v -1 31 4
v -1 33 9
v -1 33 4
v -1 36 11
v -1 36 9
v 2 0 -4
v 2 0 -5
v 2 3 -4
v 2 3 -5
v 12 32 3
v 12 32 1
v 12 37 3
v 12 37 1
v -1 0 5
v -1 0 4
v -1 12 5
v -1 12 4
v 1 31 11
v 1 31 4
v 1 33 9
v 1 33 4
v 1 36 11
v 1 36 9
v 4 0 4
v 4 0 -2
v 4 3 -2
v 4 3 -4
v 4 30 3
v 4 30 1
v 4 32 3
v 4 32 1
v 4 36 4
v 4 36 -4
v 5 0 -2
v 5 0 -5
v 5 3 -2
v 5 3 -5
v 10 36 15
v 10 36 -9
v 10 37 8
v 10 37 -4
v 10 46 8
v 10 46 -4
v 10 48 15
v 10 48 -9
v 14 30 3
v 14 30 1
v 14 37 3
v 14 37 1
v 16 37 8
v 16 37 -4
v 16 46 8
v 16 46 -4
v -9 36 15
v -9 48 15
v 10 36 15
v 10 48 15
v -1 31 11
v -1 36 11
v 1 31 11
v 1 36 11
v 10 37 8
v 10 46 8
v 16 37 8
v 16 46 8
v -6 0 5
v -6 12 5
v -1 0 5
v -1 12 5
v -4 12 4
v -4 36 4
v -1 0 4
v -1 12 4
v -1 31 4
v -1 33 4
v 1 31 4
v 1 33 4
v 4 0 4
v 4 36 4
v 4 30 3
v 4 32 3
v 12 32 3
v 12 37 3
v 14 30 3
v 14 37 3
v 4 0 -2
v 4 3 -2
v 5 0 -2
v 5 3 -2
v -1 33 9
v -1 36 9
v 1 33 9
v 1 36 9
v -6 0 1
v -6 12 1
v -4 0 1
v -4 12 1
v 4 30 1
v 4 32 1
v 12 32 1
v 12 37 1
v 14 30 1
v 14 37 1
v -4 0 -4
v -4 36 -4
v 2 0 -4
v 2 3 -4
v 4 3 -4
v 4 36 -4
v 10 37 -4
v 10 46 -4
v 16 37 -4
v 16 46 -4
v 2 0 -5
v 2 3 -5
v 5 0 -5
v 5 3 -5
v -9 36 -9
v -9 48 -9
v 10 36 -9
v 10 48 -9
v -6 0 5
v -1 0 5
v -1 0 4
v 4 0 4
v -6 0 1
v -4 0 1
v 4 0 -2
v 5 0 -2
v -4 0 -4
v 2 0 -4
v 2 0 -5
v 5 0 -5
v 4 30 3
v 14 30 3
v 4 30 1
v 14 30 1
v -1 31 11
v 1 31 11
v -1 31 4
v 1 31 4
v -9 36 15
v 10 36 15
v -1 36 11
v 1 36 11
v -1 36 9
v 1 36 9
v -4 36 4
v 4 36 4
v -4 36 -4
v 4 36 -4
v -9 36 -9
v 10 36 -9
v 10 37 8
v 16 37 8
v 12 37 3
v 14 37 3
v 12 37 1
v 14 37 1
v 10 37 -4
v 16 37 -4
v 4 3 -2
v 5 3 -2
v 2 3 -4
v 4 3 -4
v 2 3 -5
v 5 3 -5
v -6 12 5
v -1 12 5
v -4 12 4
v -1 12 4
v -6 12 1
v -4 12 1
v 4 32 3
v 12 32 3
v 4 32 1
v 12 32 1
v -1 33 9
v 1 33 9
v -1 33 4
v 1 33 4
v 10 46 8
v 16 46 8
v 10 46 -4
v 16 46 -4
v -9 48 15
v 10 48 15
v -9 48 -9
v 10 48 -9

# faces
f 3/1/1 2/1/1 1/1/1
f 4/1/1 2/1/1 3/1/1
f 7/2/1 6/2/1 5/2/1
f 8/2/1 6/2/1 7/2/1
f 12/2/1 10/2/1 9/2/1
f 13/2/1 12/2/1 11/2/1
f 14/2/1 10/2/1 12/2/1
f 14/2/1 12/2/1 13/2/1
f 17/2/1 16/2/1 15/2/1
f 18/2/1 16/2/1 17/2/1
f 19/2/1 17/2/1 15/2/1
f 20/2/1 17/2/1 19/2/1
f 23/2/1 22/2/1 21/2/1
f 24/2/1 22/2/1 23/2/1
f 27/2/1 26/2/1 25/2/1
f 28/2/1 26/2/1 27/2/1
f 29/2/2 30/2/2 31/2/2
f 31/2/2 30/2/2 32/2/2
f 33/2/2 34/2/2 35/2/2
f 35/2/2 34/2/2 36/2/2
f 33/2/2 35/2/2 37/2/2
f 37/2/2 35/2/2 38/2/2
f 39/2/2 40/2/2 41/2/2
f 39/2/2 41/2/2 43/2/2
f 41/2/2 42/2/2 43/2/2
f 43/2/2 42/2/2 44/2/2
f 39/2/2 43/2/2 45/2/2
f 44/2/2 42/2/2 46/2/2
f 39/2/2 45/2/2 47/2/2
f 45/2/2 46/2/2 47/2/2
f 46/2/2 42/2/2 48/2/2
f 47/2/2 46/2/2 48/2/2
f 49/2/2 50/2/2 51/2/2
f 51/2/2 50/2/2 52/2/2
f 53/1/2 54/1/2 55/1/2
f 55/1/2 54/1/2 56/1/2
f 53/1/2 55/1/2 57/1/2
f 56/1/2 54/1/2 58/1/2
f 53/1/2 57/1/2 59/1/2
f 57/1/2 58/1/2 59/1/2
f 58/1/2 54/1/2 60/1/2
f 59/1/2 58/1/2 60/1/2
f 61/2/2 62/2/2 63/2/2
f 63/2/2 62/2/2 64/2/2
f 65/1/2 66/1/2 67/1/2
f 67/1/2 66/1/2 68/1/2
f 71/1/3 70/1/3 69/1/3
f 72/1/3 70/1/3 71/1/3
f 75/2/3 74/2/3 73/2/3
f 76/2/3 74/2/3 75/2/3
f 79/1/3 78/1/3 77/1/3
f 80/1/3 78/1/3 79/1/3
f 83/2/3 82/2/3 81/2/3
f 84/2/3 82/2/3 83/2/3
f 88/2/3 86/2/3 85/2/3
f 89/2/3 86/2/3 88/2/3
f 90/2/3 86/2/3 89/2/3
f 91/2/3 88/2/3 87/2/3
f 91/2/3 89/2/3 88/2/3
f 92/2/3 86/2/3 90/2/3
f 93/2/3 91/2/3 87/2/3
f 93/2/3 92/2/3 91/2/3
f 94/2/3 86/2/3 92/2/3
f 94/2/3 92/2/3 93/2/3
f 97/2/3 96/2/3 95/2/3
f 99/2/3 97/2/3 95/2/3
f 99/2/3 98/2/3 97/2/3
f 100/2/3 98/2/3 99/2/3
f 103/2/3 102/2/3 101/2/3
f 104/2/3 102/2/3 103/2/3
f 105/2/4 106/2/4 107/2/4
f 107/2/4 106/2/4 108/2/4
f 109/2/4 110/2/4 111/2/4
f 111/2/4 110/2/4 112/2/4
f 113/2/4 114/2/4 115/2/4
f 113/2/4 115/2/4 117/2/4
f 115/2/4 116/2/4 117/2/4
f 117/2/4 116/2/4 118/2/4
f 119/2/4 120/2/4 121/2/4
f 121/2/4 120/2/4 122/2/4
f 122/2/4 120/2/4 123/2/4
f 123/2/4 120/2/4 124/2/4
f 125/1/4 126/1/4 127/1/4
f 127/1/4 126/1/4 128/1/4
f 129/2/4 130/2/4 131/2/4
f 131/2/4 130/2/4 132/2/4
f 133/1/4 134/1/4 135/1/4
f 135/1/4 134/1/4 136/1/4
f 139/2/5 138/2/5 137/2/5
f 141/2/5 139/2/5 137/2/5
f 141/2/5 140/2/5 139/2/5
f 142/2/5 140/2/5 141/2/5
f 143/2/5 140/2/5 142/2/5
f 145/2/5 143/2/5 142/2/5
f 145/2/5 144/2/5 143/2/5
f 146/2/5 144/2/5 145/2/5
f 147/2/5 144/2/5 146/2/5
f 148/2/5 144/2/5 147/2/5
f 151/2/5 150/2/5 149/2/5
f 152/2/5 150/2/5 151/2/5
f 155/2/5 154/2/5 153/2/5
f 156/2/5 154/2/5 155/2/5
f 159/1/5 158/1/5 157/1/5
f 160/1/5 158/1/5 159/1/5
f 161/1/5 159/1/5 157/1/5
f 162/1/5 158/1/5 160/1/5
f 163/1/5 161/1/5 157/1/5
f 163/1/5 162/1/5 161/1/5
f 164/1/5 158/1/5 162/1/5
f 164/1/5 162/1/5 163/1/5
f 165/1/5 163/1/5 157/1/5
f 166/1/5 158/1/5 164/1/5
f 167/1/5 165/1/5 157/1/5
f 167/1/5 166/1/5 165/1/5
f 168/1/5 158/1/5 166/1/5
f 168/1/5 166/1/5 167/1/5
f 171/1/5 170/1/5 169/1/5
f 172/1/5 170/1/5 171/1/5
f 173/1/5 171/1/5 169/1/5
f 174/1/5 170/1/5 172/1/5
f 175/1/5 173/1/5 169/1/5
f 175/1/5 174/1/5 173/1/5
f 176/1/5 170/1/5 174/1/5
f 176/1/5 174/1/5 175/1/5
f 177/2/6 178/2/6 180/2/6
f 179/2/6 180/2/6 181/2/6
f 180/2/6 178/2/6 182/2/6
f 181/2/6 180/2/6 182/2/6
f 183/2/6 184/2/6 185/2/6
f 185/2/6 184/2/6 186/2/6
f 183/2/6 185/2/6 187/2/6
f 187/2/6 185/2/6 188/2/6
f 189/2/6 190/2/6 191/2/6
f 191/2/6 190/2/6 192/2/6
f 193/2/6 194/2/6 195/2/6
f 195/2/6 194/2/6 196/2/6
f 197/1/6 198/1/6 199/1/6
f 199/1/6 198/1/6 200/1/6
f 201/1/6 202/1/6 203/1/6
f 203/1/6 202/1/6 204/1/6
