# MagicaVoxel @ Ephtracy

# group
g mapkari-14

# material
mtllib mapkari-14.mtl
usemtl palette

# normals
vn -1 0 0
vn 1 0 0
vn 0 0 1
vn 0 0 -1
vn 0 -1 0
vn 0 1 0

# texcoords
vt 0.876953 0.5
vt 0.896484 0.5
vt 0.978516 0.5

# verts
v -3 0 18
v -3 0 11
v -3 0 -11
v -3 0 -18
v -3 5 18
v -3 5 11
v -3 5 -11
v -3 5 -18
v -2 47 24
v -2 47 -24
v -2 49 21
v -2 49 -21
v -2 51 24
v -2 51 21
v -2 51 -21
v -2 51 -24
v -1 5 16
v -1 5 13
v -1 5 -13
v -1 5 -16
v -1 46 23
v -1 46 16
v -1 46 13
v -1 46 -13
v -1 46 -16
v -1 46 -23
v -1 47 23
v -1 47 -23
v 0 40 20
v 0 40 16
v 0 40 13
v 0 40 -13
v 0 40 -16
v 0 40 -20
v 0 41 20
v 0 41 16
v 0 41 13
v 0 41 1
v 0 41 -1
v 0 41 -13
v 0 41 -16
v 0 41 -20
v 0 46 1
v 0 46 -1
v 1 40 20
v 1 40 16
v 1 40 13
v 1 40 -13
v 1 40 -16
v 1 40 -20
v 1 41 20
v 1 41 16
v 1 41 13
v 1 41 1
v 1 41 -1
v 1 41 -13
v 1 41 -16
v 1 41 -20
v 1 46 1
v 1 46 -1
v 2 5 16
v 2 5 13
v 2 5 -13
v 2 5 -16
v 2 46 23
v 2 46 16
v 2 46 13
v 2 46 -13
v 2 46 -16
v 2 46 -23
v 2 47 23
v 2 47 -23
v 3 47 24
v 3 47 -24
v 3 49 21
v 3 49 -21
v 3 51 24
v 3 51 21
v 3 51 -21
v 3 51 -24
v 4 0 18
v 4 0 11
v 4 0 -11
v 4 0 -18
v 4 5 18
v 4 5 11
v 4 5 -11
v 4 5 -18
v -2 47 24
v -2 51 24
v 3 47 24
v 3 51 24
v -1 46 23
v -1 47 23
v 2 46 23
v 2 47 23
v 0 40 20
v 0 41 20
v 1 40 20
v 1 41 20
v -3 0 18
v -3 5 18
v 4 0 18
v 4 5 18
v -1 5 16
v -1 46 16
v 0 40 16
v 0 41 16
v 1 40 16
v 1 41 16
v 2 5 16
v 2 46 16
v 0 41 1
v 0 46 1
v 1 41 1
v 1 46 1
v -3 0 -11
v -3 5 -11
v 4 0 -11
v 4 5 -11
v -1 5 -13
v -1 46 -13
v 0 40 -13
v 0 41 -13
v 1 40 -13
v 1 41 -13
v 2 5 -13
v 2 46 -13
v -2 49 -21
v -2 51 -21
v 3 49 -21
v 3 51 -21
v -2 49 21
v -2 51 21
v 3 49 21
v 3 51 21
v -1 5 13
v -1 46 13
v 0 40 13
v 0 41 13
v 1 40 13
v 1 41 13
v 2 5 13
v 2 46 13
v -3 0 11
v -3 5 11
v 4 0 11
v 4 5 11
v 0 41 -1
v 0 46 -1
v 1 41 -1
v 1 46 -1
v -1 5 -16
v -1 46 -16
v 0 40 -16
v 0 41 -16
v 1 40 -16
v 1 41 -16
v 2 5 -16
v 2 46 -16
v -3 0 -18
v -3 5 -18
v 4 0 -18
v 4 5 -18
v 0 40 -20
v 0 41 -20
v 1 40 -20
v 1 41 -20
v -1 46 -23
v -1 47 -23
v 2 46 -23
v 2 47 -23
v -2 47 -24
v -2 51 -24
v 3 47 -24
v 3 51 -24
v -3 0 18
v 4 0 18
v -1 0 16
v 2 0 16
v -1 0 13
v 2 0 13
v -3 0 11
v 4 0 11
v -3 0 -11
v 4 0 -11
v -1 0 -13
v 2 0 -13
v -1 0 -16
v 2 0 -16
v -3 0 -18
v 4 0 -18
v 0 40 20
v 1 40 20
v 0 40 16
v 1 40 16
v 0 40 13
v 1 40 13
v 0 40 -13
v 1 40 -13
v 0 40 -16
v 1 40 -16
v 0 40 -20
v 1 40 -20
v -1 46 23
v 2 46 23
v -1 46 16
v 2 46 16
v -1 46 13
v 2 46 13
v 0 46 1
v 1 46 1
v 0 46 -1
v 1 46 -1
v -1 46 -13
v 2 46 -13
v -1 46 -16
v 2 46 -16
v -1 46 -23
v 2 46 -23
v -2 47 24
v 3 47 24
v -1 47 23
v 2 47 23
v -1 47 -23
v 2 47 -23
v -2 47 -24
v 3 47 -24
v -3 5 18
v 4 5 18
v -1 5 16
v 2 5 16
v -1 5 13
v 2 5 13
v -3 5 11
v 4 5 11
v -3 5 -11
v 4 5 -11
v -1 5 -13
v 2 5 -13
v -1 5 -16
v 2 5 -16
v -3 5 -18
v 4 5 -18
v 0 41 20
v 1 41 20
v 0 41 16
v 1 41 16
v 0 41 13
v 1 41 13
v 0 41 1
v 1 41 1
v 0 41 -1
v 1 41 -1
v 0 41 -13
v 1 41 -13
v 0 41 -16
v 1 41 -16
v 0 41 -20
v 1 41 -20
v -2 49 21
v 3 49 21
v -2 49 -21
v 3 49 -21
v -2 51 24
v 3 51 24
v -2 51 21
v 3 51 21
v -2 51 -21
v 3 51 -21
v -2 51 -24
v 3 51 -24

# faces
f 5/3/1 2/3/1 1/3/1
f 6/3/1 2/3/1 5/3/1
f 7/3/1 4/3/1 3/3/1
f 8/3/1 4/3/1 7/3/1
f 11/2/1 10/2/1 9/2/1
f 12/2/1 10/2/1 11/2/1
f 13/2/1 11/2/1 9/2/1
f 14/2/1 11/2/1 13/2/1
f 15/2/1 10/2/1 12/2/1
f 16/2/1 10/2/1 15/2/1
f 22/1/1 18/1/1 17/1/1
f 23/1/1 18/1/1 22/1/1
f 24/1/1 20/1/1 19/1/1
f 25/1/1 20/1/1 24/1/1
f 27/1/1 23/1/1 22/1/1
f 27/1/1 26/1/1 25/1/1
f 27/1/1 25/1/1 24/1/1
f 27/1/1 24/1/1 23/1/1
f 27/1/1 22/1/1 21/1/1
f 28/1/1 26/1/1 27/1/1
f 35/1/1 30/1/1 29/1/1
f 36/1/1 30/1/1 35/1/1
f 37/1/1 32/1/1 31/1/1
f 38/1/1 32/1/1 37/1/1
f 39/1/1 32/1/1 38/1/1
f 40/1/1 32/1/1 39/1/1
f 41/1/1 34/1/1 33/1/1
f 42/1/1 34/1/1 41/1/1
f 43/1/1 39/1/1 38/1/1
f 44/1/1 39/1/1 43/1/1
f 45/1/2 46/1/2 51/1/2
f 51/1/2 46/1/2 52/1/2
f 47/1/2 48/1/2 53/1/2
f 53/1/2 48/1/2 54/1/2
f 54/1/2 48/1/2 55/1/2
f 55/1/2 48/1/2 56/1/2
f 49/1/2 50/1/2 57/1/2
f 57/1/2 50/1/2 58/1/2
f 54/1/2 55/1/2 59/1/2
f 59/1/2 55/1/2 60/1/2
f 61/1/2 62/1/2 66/1/2
f 66/1/2 62/1/2 67/1/2
f 63/1/2 64/1/2 68/1/2
f 68/1/2 64/1/2 69/1/2
f 66/1/2 67/1/2 71/1/2
f 69/1/2 70/1/2 71/1/2
f 68/1/2 69/1/2 71/1/2
f 67/1/2 68/1/2 71/1/2
f 65/1/2 66/1/2 71/1/2
f 71/1/2 70/1/2 72/1/2
f 73/2/2 74/2/2 75/2/2
f 75/2/2 74/2/2 76/2/2
f 73/2/2 75/2/2 77/2/2
f 77/2/2 75/2/2 78/2/2
f 76/2/2 74/2/2 79/2/2
f 79/2/2 74/2/2 80/2/2
f 81/3/2 82/3/2 85/3/2
f 85/3/2 82/3/2 86/3/2
f 83/3/2 84/3/2 87/3/2
f 87/3/2 84/3/2 88/3/2
f 91/2/3 90/2/3 89/2/3
f 92/2/3 90/2/3 91/2/3
f 95/1/3 94/1/3 93/1/3
f 96/1/3 94/1/3 95/1/3
f 99/1/3 98/1/3 97/1/3
f 100/1/3 98/1/3 99/1/3
f 103/3/3 102/3/3 101/3/3
f 104/3/3 102/3/3 103/3/3
f 107/1/3 106/1/3 105/1/3
f 108/1/3 106/1/3 107/1/3
f 109/1/3 107/1/3 105/1/3
f 110/1/3 106/1/3 108/1/3
f 111/1/3 109/1/3 105/1/3
f 111/1/3 110/1/3 109/1/3
f 112/1/3 106/1/3 110/1/3
f 112/1/3 110/1/3 111/1/3
f 115/1/3 114/1/3 113/1/3
f 116/1/3 114/1/3 115/1/3
f 119/3/3 118/3/3 117/3/3
f 120/3/3 118/3/3 119/3/3
f 123/1/3 122/1/3 121/1/3
f 124/1/3 122/1/3 123/1/3
f 125/1/3 123/1/3 121/1/3
f 126/1/3 122/1/3 124/1/3
f 127/1/3 125/1/3 121/1/3
f 127/1/3 126/1/3 125/1/3
f 128/1/3 122/1/3 126/1/3
f 128/1/3 126/1/3 127/1/3
f 131/2/3 130/2/3 129/2/3
f 132/2/3 130/2/3 131/2/3
f 133/2/4 134/2/4 135/2/4
f 135/2/4 134/2/4 136/2/4
f 137/1/4 138/1/4 139/1/4
f 139/1/4 138/1/4 140/1/4
f 137/1/4 139/1/4 141/1/4
f 140/1/4 138/1/4 142/1/4
f 137/1/4 141/1/4 143/1/4
f 141/1/4 142/1/4 143/1/4
f 142/1/4 138/1/4 144/1/4
f 143/1/4 142/1/4 144/1/4
f 145/3/4 146/3/4 147/3/4
f 147/3/4 146/3/4 148/3/4
f 149/1/4 150/1/4 151/1/4
f 151/1/4 150/1/4 152/1/4
f 153/1/4 154/1/4 155/1/4
f 155/1/4 154/1/4 156/1/4
f 153/1/4 155/1/4 157/1/4
f 156/1/4 154/1/4 158/1/4
f 153/1/4 157/1/4 159/1/4
f 157/1/4 158/1/4 159/1/4
f 158/1/4 154/1/4 160/1/4
f 159/1/4 158/1/4 160/1/4
f 161/3/4 162/3/4 163/3/4
f 163/3/4 162/3/4 164/3/4
f 165/1/4 166/1/4 167/1/4
f 167/1/4 166/1/4 168/1/4
f 169/1/4 170/1/4 171/1/4
f 171/1/4 170/1/4 172/1/4
f 173/2/4 174/2/4 175/2/4
f 175/2/4 174/2/4 176/2/4
f 179/3/5 178/3/5 177/3/5
f 180/3/5 178/3/5 179/3/5
f 181/3/5 179/3/5 177/3/5
f 181/2/5 180/2/5 179/2/5
f 182/3/5 178/3/5 180/3/5
f 182/2/5 180/2/5 181/2/5
f 183/3/5 181/3/5 177/3/5
f 183/3/5 182/3/5 181/3/5
f 184/3/5 178/3/5 182/3/5
f 184/3/5 182/3/5 183/3/5
f 187/3/5 186/3/5 185/3/5
f 188/3/5 186/3/5 187/3/5
f 189/3/5 187/3/5 185/3/5
f 189/2/5 188/2/5 187/2/5
f 190/3/5 186/3/5 188/3/5
f 190/2/5 188/2/5 189/2/5
f 191/3/5 189/3/5 185/3/5
f 191/3/5 190/3/5 189/3/5
f 192/3/5 186/3/5 190/3/5
f 192/3/5 190/3/5 191/3/5
f 195/1/5 194/1/5 193/1/5
f 196/1/5 194/1/5 195/1/5
f 199/1/5 198/1/5 197/1/5
f 200/1/5 198/1/5 199/1/5
f 203/1/5 202/1/5 201/1/5
f 204/1/5 202/1/5 203/1/5
f 207/1/5 206/1/5 205/1/5
f 208/1/5 206/1/5 207/1/5
f 211/1/5 210/1/5 209/1/5
f 212/1/5 210/1/5 211/1/5
f 213/1/5 211/1/5 209/1/5
f 214/1/5 210/1/5 212/1/5
f 215/1/5 213/1/5 209/1/5
f 215/1/5 214/1/5 213/1/5
f 216/1/5 210/1/5 214/1/5
f 216/1/5 214/1/5 215/1/5
f 219/1/5 218/1/5 217/1/5
f 220/1/5 218/1/5 219/1/5
f 223/2/5 222/2/5 221/2/5
f 224/2/5 222/2/5 223/2/5
f 225/2/5 223/2/5 221/2/5
f 226/2/5 222/2/5 224/2/5
f 227/2/5 225/2/5 221/2/5
f 227/2/5 226/2/5 225/2/5
f 228/2/5 222/2/5 226/2/5
f 228/2/5 226/2/5 227/2/5
f 229/3/6 230/3/6 231/3/6
f 231/3/6 230/3/6 232/3/6
f 229/3/6 231/3/6 233/3/6
f 232/3/6 230/3/6 234/3/6
f 229/3/6 233/3/6 235/3/6
f 233/3/6 234/3/6 235/3/6
f 234/3/6 230/3/6 236/3/6
f 235/3/6 234/3/6 236/3/6
f 237/3/6 238/3/6 239/3/6
f 239/3/6 238/3/6 240/3/6
f 237/3/6 239/3/6 241/3/6
f 240/3/6 238/3/6 242/3/6
f 237/3/6 241/3/6 243/3/6
f 241/3/6 242/3/6 243/3/6
f 242/3/6 238/3/6 244/3/6
f 243/3/6 242/3/6 244/3/6
f 245/1/6 246/1/6 247/1/6
f 247/1/6 246/1/6 248/1/6
f 249/1/6 250/1/6 251/1/6
f 251/1/6 250/1/6 252/1/6
f 253/1/6 254/1/6 255/1/6
f 255/1/6 254/1/6 256/1/6
f 257/1/6 258/1/6 259/1/6
f 259/1/6 258/1/6 260/1/6
f 261/2/6 262/2/6 263/2/6
f 263/2/6 262/2/6 264/2/6
f 265/2/6 266/2/6 267/2/6
f 267/2/6 266/2/6 268/2/6
f 269/2/6 270/2/6 271/2/6
f 271/2/6 270/2/6 272/2/6
