# MagicaVoxel @ Ephtracy

# group
g mapkari-16

# material
mtllib mapkari-16.mtl
usemtl palette

# normals
vn -1 0 0
vn 1 0 0
vn 0 0 1
vn 0 0 -1
vn 0 -1 0
vn 0 1 0

# texcoords
vt 0.876953 0.5
vt 0.884766 0.5
vt 0.896484 0.5

# verts
v -24 32 15
v -24 32 -21
v -24 33 15
v -24 33 -21
v -24 34 15
v -24 34 -21
v -22 34 15
v -22 34 -21
v -22 35 15
v -22 35 -21
v -19 35 15
v -19 35 -21
v -19 36 15
v -19 36 -21
v -18 0 12
v -18 0 -21
v -18 32 15
v -18 32 14
v -18 32 12
v -18 33 15
v -18 33 14
v -18 33 -21
v -17 36 15
v -17 36 -21
v -17 37 15
v -17 37 -21
v -15 37 15
v -15 37 -21
v -15 38 15
v -15 38 -21
v -13 38 15
v -13 38 -21
v -13 39 15
v -13 39 -21
v -11 39 15
v -11 39 -21
v -11 40 15
v -11 40 -21
v -9 40 15
v -9 40 -21
v -9 41 15
v -9 41 -21
v -7 41 15
v -7 41 -21
v -7 42 15
v -7 42 -21
v -5 42 15
v -5 42 -21
v -5 43 15
v -5 43 -21
v -3 43 15
v -3 43 -21
v -3 44 15
v -3 44 -21
v -1 34 -19
v -1 34 -21
v -1 41 -20
v -1 41 -21
v -1 42 -19
v -1 42 -20
v -1 44 15
v -1 44 -21
v -1 45 15
v -1 45 -21
v 1 42 15
v 1 42 -19
v 1 43 15
v 1 43 -19
v 3 40 -20
v 3 40 -21
v 3 41 15
v 3 41 -20
v 3 41 -21
v 3 42 15
v 3 42 -20
v 5 39 -20
v 5 39 -21
v 5 40 15
v 5 40 -20
v 5 40 -21
v 5 41 15
v 5 41 -20
v 7 38 -20
v 7 38 -21
v 7 39 15
v 7 39 -20
v 7 39 -21
v 7 40 15
v 7 40 -20
v 9 37 -20
v 9 37 -21
v 9 38 15
v 9 38 -20
v 9 38 -21
v 9 39 15
v 9 39 -20
v 11 37 15
v 11 37 -20
v 11 38 15
v 11 38 -20
v 13 36 15
v 13 36 -21
v 13 37 15
v 13 37 -21
v 15 35 15
v 15 35 -21
v 15 36 15
v 15 36 -21
v 16 0 12
v 16 0 -19
v 16 32 15
v 16 32 14
v 16 32 12
v 16 34 15
v 16 34 14
v 16 34 -19
v 17 34 15
v 17 34 14
v 17 34 -21
v 17 35 15
v 17 35 -21
v 22 32 15
v 22 32 -21
v 22 33 15
v 22 33 -21
v -22 32 15
v -22 32 -21
v -22 33 15
v -22 33 -21
v -17 34 15
v -17 34 14
v -17 34 -21
v -17 35 15
v -17 35 -21
v -16 0 12
v -16 0 -19
v -16 32 15
v -16 32 14
v -16 32 12
v -16 34 15
v -16 34 14
v -16 34 -19
v -15 35 15
v -15 35 -21
v -15 36 15
v -15 36 -21
v -13 36 15
v -13 36 -21
v -13 37 15
v -13 37 -21
v -11 37 15
v -11 37 -20
v -11 38 15
v -11 38 -20
v -9 37 -20
v -9 37 -21
v -9 38 15
v -9 38 -20
v -9 38 -21
v -9 39 15
v -9 39 -20
v -7 38 -20
v -7 38 -21
v -7 39 15
v -7 39 -20
v -7 39 -21
v -7 40 15
v -7 40 -20
v -5 39 -20
v -5 39 -21
v -5 40 15
v -5 40 -20
v -5 40 -21
v -5 41 15
v -5 41 -20
v -3 40 -20
v -3 40 -21
v -3 41 15
v -3 41 -20
v -3 41 -21
v -3 42 15
v -3 42 -20
v -1 42 15
v -1 42 -19
v -1 43 15
v -1 43 -19
v 1 34 -19
v 1 34 -21
v 1 41 -20
v 1 41 -21
v 1 42 -19
v 1 42 -20
v 1 44 15
v 1 44 -21
v 1 45 15
v 1 45 -21
v 3 43 15
v 3 43 -21
v 3 44 15
v 3 44 -21
v 5 42 15
v 5 42 -21
v 5 43 15
v 5 43 -21
v 7 41 15
v 7 41 -21
v 7 42 15
v 7 42 -21
v 9 40 15
v 9 40 -21
v 9 41 15
v 9 41 -21
v 11 39 15
v 11 39 -21
v 11 40 15
v 11 40 -21
v 13 38 15
v 13 38 -21
v 13 39 15
v 13 39 -21
v 15 37 15
v 15 37 -21
v 15 38 15
v 15 38 -21
v 17 36 15
v 17 36 -21
v 17 37 15
v 17 37 -21
v 18 0 12
v 18 0 -21
v 18 32 15
v 18 32 14
v 18 32 12
v 18 33 15
v 18 33 14
v 18 33 -21
v 19 35 15
v 19 35 -21
v 19 36 15
v 19 36 -21
v 22 34 15
v 22 34 -21
v 22 35 15
v 22 35 -21
v 24 32 15
v 24 32 -21
v 24 33 15
v 24 33 -21
v 24 34 15
v 24 34 -21
v -24 32 15
v -24 33 15
v -24 34 15
v -22 32 15
v -22 33 15
v -22 34 15
v -22 35 15
v -19 34 15
v -19 35 15
v -19 36 15
v -18 32 15
v -18 33 15
v -18 34 15
v -17 34 15
v -17 35 15
v -17 36 15
v -17 37 15
v -16 32 15
v -16 34 15
v -15 35 15
v -15 36 15
v -15 37 15
v -15 38 15
v -13 36 15
v -13 37 15
v -13 38 15
v -13 39 15
v -11 37 15
v -11 38 15
v -11 39 15
v -11 40 15
v -9 38 15
v -9 39 15
v -9 40 15
v -9 41 15
v -7 39 15
v -7 40 15
v -7 41 15
v -7 42 15
v -5 40 15
v -5 41 15
v -5 42 15
v -5 43 15
v -3 41 15
v -3 42 15
v -3 43 15
v -3 44 15
v -1 42 15
v -1 43 15
v -1 44 15
v -1 45 15
v 1 42 15
v 1 43 15
v 1 44 15
v 1 45 15
v 3 41 15
v 3 42 15
v 3 43 15
v 3 44 15
v 5 40 15
v 5 41 15
v 5 42 15
v 5 43 15
v 7 39 15
v 7 40 15
v 7 41 15
v 7 42 15
v 9 38 15
v 9 39 15
v 9 40 15
v 9 41 15
v 11 37 15
v 11 38 15
v 11 39 15
v 11 40 15
v 13 36 15
v 13 37 15
v 13 38 15
v 13 39 15
v 15 35 15
v 15 36 15
v 15 37 15
v 15 38 15
v 16 32 15
v 16 34 15
v 17 34 15
v 17 35 15
v 17 36 15
v 17 37 15
v 18 32 15
v 18 33 15
v 18 34 15
v 19 34 15
v 19 35 15
v 19 36 15
v 22 32 15
v 22 33 15
v 22 34 15
v 22 35 15
v 24 32 15
v 24 33 15
v 24 34 15
v -18 0 12
v -18 32 12
v -16 0 12
v -16 32 12
v 16 0 12
v 16 32 12
v 18 0 12
v 18 32 12
v -16 0 -19
v -16 34 -19
v -1 34 -19
v -1 42 -19
v -1 43 -19
v 1 34 -19
v 1 42 -19
v 1 43 -19
v 16 0 -19
v 16 34 -19
v -11 37 -20
v -11 38 -20
v -9 37 -20
v -9 38 -20
v -9 39 -20
v -7 38 -20
v -7 39 -20
v -7 40 -20
v -5 39 -20
v -5 40 -20
v -5 41 -20
v -3 40 -20
v -3 41 -20
v -3 42 -20
v -1 41 -20
v -1 42 -20
v 1 41 -20
v 1 42 -20
v 3 40 -20
v 3 41 -20
v 3 42 -20
v 5 39 -20
v 5 40 -20
v 5 41 -20
v 7 38 -20
v 7 39 -20
v 7 40 -20
v 9 37 -20
v 9 38 -20
v 9 39 -20
v 11 37 -20
v 11 38 -20
v -24 32 -21
v -24 33 -21
v -24 34 -21
v -22 32 -21
v -22 33 -21
v -22 34 -21
v -22 35 -21
v -19 34 -21
v -19 35 -21
v -19 36 -21
v -18 0 -21
v -18 33 -21
v -17 34 -21
v -17 35 -21
v -17 36 -21
v -17 37 -21
v -15 35 -21
v -15 36 -21
v -15 37 -21
v -15 38 -21
v -13 36 -21
v -13 37 -21
v -13 38 -21
v -13 39 -21
v -11 38 -21
v -11 39 -21
v -11 40 -21
v -9 37 -21
v -9 38 -21
v -9 39 -21
v -9 40 -21
v -9 41 -21
v -7 38 -21
v -7 39 -21
v -7 40 -21
v -7 41 -21
v -7 42 -21
v -5 39 -21
v -5 40 -21
v -5 41 -21
v -5 42 -21
v -5 43 -21
v -3 40 -21
v -3 41 -21
v -3 42 -21
v -3 43 -21
v -3 44 -21
v -1 34 -21
v -1 41 -21
v -1 44 -21
v -1 45 -21
v 1 34 -21
v 1 41 -21
v 1 44 -21
v 1 45 -21
v 3 40 -21
v 3 41 -21
v 3 42 -21
v 3 43 -21
v 3 44 -21
v 5 39 -21
v 5 40 -21
v 5 41 -21
v 5 42 -21
v 5 43 -21
v 7 38 -21
v 7 39 -21
v 7 40 -21
v 7 41 -21
v 7 42 -21
v 9 37 -21
v 9 38 -21
v 9 39 -21
v 9 40 -21
v 9 41 -21
v 11 38 -21
v 11 39 -21
v 11 40 -21
v 13 36 -21
v 13 37 -21
v 13 38 -21
v 13 39 -21
v 15 35 -21
v 15 36 -21
v 15 37 -21
v 15 38 -21
v 17 34 -21
v 17 35 -21
v 17 36 -21
v 17 37 -21
v 18 0 -21
v 18 33 -21
v 19 34 -21
v 19 35 -21
v 19 36 -21
v 22 32 -21
v 22 33 -21
v 22 34 -21
v 22 35 -21
v 24 32 -21
v 24 33 -21
v 24 34 -21
v -18 0 12
v -16 0 12
v 16 0 12
v 18 0 12
v -16 0 -19
v 16 0 -19
v -18 0 -21
v 18 0 -21
v -24 32 15
v -22 32 15
v -18 32 15
v -16 32 15
v 16 32 15
v 18 32 15
v 22 32 15
v 24 32 15
v -18 32 14
v -16 32 14
v 16 32 14
v 18 32 14
v -18 32 12
v -16 32 12
v 16 32 12
v 18 32 12
v -24 32 -21
v -22 32 -21
v 22 32 -21
v 24 32 -21
v -22 33 15
v -18 33 15
v 18 33 15
v 22 33 15
v -18 33 14
v 18 33 14
v -22 33 -21
v -18 33 -21
v 18 33 -21
v 22 33 -21
v -17 35 15
v -15 35 15
v 15 35 15
v 17 35 15
v -17 35 -21
v -15 35 -21
v 15 35 -21
v 17 35 -21
v -15 36 15
v -13 36 15
v 13 36 15
v 15 36 15
v -15 36 -21
v -13 36 -21
v 13 36 -21
v 15 36 -21
v -13 37 15
v -11 37 15
v 11 37 15
v 13 37 15
v -11 37 -20
v -9 37 -20
v 9 37 -20
v 11 37 -20
v -13 37 -21
v -9 37 -21
v 9 37 -21
v 13 37 -21
v -11 38 15
v -9 38 15
v 9 38 15
v 11 38 15
v -11 38 -20
v -9 38 -20
v -7 38 -20
v 7 38 -20
v 9 38 -20
v 11 38 -20
v -9 38 -21
v -7 38 -21
v 7 38 -21
v 9 38 -21
v -9 39 15
v -7 39 15
v 7 39 15
v 9 39 15
v -9 39 -20
v -7 39 -20
v -5 39 -20
v 5 39 -20
v 7 39 -20
v 9 39 -20
v -7 39 -21
v -5 39 -21
v 5 39 -21
v 7 39 -21
v -7 40 15
v -5 40 15
v 5 40 15
v 7 40 15
v -7 40 -20
v -5 40 -20
v -3 40 -20
v 3 40 -20
v 5 40 -20
v 7 40 -20
v -5 40 -21
v -3 40 -21
v 3 40 -21
v 5 40 -21
v -5 41 15
v -3 41 15
v 3 41 15
v 5 41 15
v -5 41 -20
v -3 41 -20
v -1 41 -20
v 1 41 -20
v 3 41 -20
v 5 41 -20
v -3 41 -21
v -1 41 -21
v 1 41 -21
v 3 41 -21
v -3 42 15
v -1 42 15
v 1 42 15
v 3 42 15
v -1 42 -19
v 1 42 -19
v -3 42 -20
v -1 42 -20
v 1 42 -20
v 3 42 -20
v -1 43 15
v 1 43 15
v -1 43 -19
v 1 43 -19
v -24 34 15
v -22 34 15
v -17 34 15
v -16 34 15
v 16 34 15
v 17 34 15
v 22 34 15
v 24 34 15
v -17 34 14
v -16 34 14
v 16 34 14
v 17 34 14
v -16 34 -19
v -1 34 -19
v 1 34 -19
v 16 34 -19
v -24 34 -21
v -22 34 -21
v -17 34 -21
v -1 34 -21
v 1 34 -21
v 17 34 -21
v 22 34 -21
v 24 34 -21
v -22 35 15
v -19 35 15
v 19 35 15
v 22 35 15
v -22 35 -21
v -19 35 -21
v 19 35 -21
v 22 35 -21
v -19 36 15
v -17 36 15
v 17 36 15
v 19 36 15
v -19 36 -21
v -17 36 -21
v 17 36 -21
v 19 36 -21
v -17 37 15
v -15 37 15
v 15 37 15
v 17 37 15
v -17 37 -21
v -15 37 -21
v 15 37 -21
v 17 37 -21
v -15 38 15
v -13 38 15
v 13 38 15
v 15 38 15
v -15 38 -21
v -13 38 -21
v 13 38 -21
v 15 38 -21
v -13 39 15
v -11 39 15
v 11 39 15
v 13 39 15
v -13 39 -21
v -11 39 -21
v 11 39 -21
v 13 39 -21
v -11 40 15
v -9 40 15
v 9 40 15
v 11 40 15
v -11 40 -21
v -9 40 -21
v 9 40 -21
v 11 40 -21
v -9 41 15
v -7 41 15
v 7 41 15
v 9 41 15
v -9 41 -21
v -7 41 -21
v 7 41 -21
v 9 41 -21
v -7 42 15
v -5 42 15
v 5 42 15
v 7 42 15
v -7 42 -21
v -5 42 -21
v 5 42 -21
v 7 42 -21
v -5 43 15
v -3 43 15
v 3 43 15
v 5 43 15
v -5 43 -21
v -3 43 -21
v 3 43 -21
v 5 43 -21
v -3 44 15
v -1 44 15
v 1 44 15
v 3 44 15
v -3 44 -21
v -1 44 -21
v 1 44 -21
v 3 44 -21
v -1 45 15
v 1 45 15
v -1 45 -21
v 1 45 -21

# faces
f 3/1/1 2/1/1 1/1/1
f 4/1/1 2/1/1 3/1/1
f 5/3/1 4/3/1 3/3/1
f 6/3/1 4/3/1 5/3/1
f 9/3/1 8/3/1 7/3/1
f 10/3/1 8/3/1 9/3/1
f 13/3/1 12/3/1 11/3/1
f 14/3/1 12/3/1 13/3/1
f 19/1/1 16/1/1 15/1/1
f 20/2/1 18/2/1 17/2/1
f 21/1/1 19/1/1 18/1/1
f 21/2/1 18/2/1 20/2/1
f 22/1/1 16/1/1 19/1/1
f 22/1/1 19/1/1 21/1/1
f 25/3/1 24/3/1 23/3/1
f 26/3/1 24/3/1 25/3/1
f 29/3/1 28/3/1 27/3/1
f 30/3/1 28/3/1 29/3/1
f 33/3/1 32/3/1 31/3/1
f 34/3/1 32/3/1 33/3/1
f 37/3/1 36/3/1 35/3/1
f 38/3/1 36/3/1 37/3/1
f 41/3/1 40/3/1 39/3/1
f 42/3/1 40/3/1 41/3/1
f 45/3/1 44/3/1 43/3/1
f 46/3/1 44/3/1 45/3/1
f 49/3/1 48/3/1 47/3/1
f 50/3/1 48/3/1 49/3/1
f 53/3/1 52/3/1 51/3/1
f 54/3/1 52/3/1 53/3/1
f 57/1/1 56/1/1 55/1/1
f 58/1/1 56/1/1 57/1/1
f 59/1/1 57/1/1 55/1/1
f 60/1/1 57/1/1 59/1/1
f 63/3/1 62/3/1 61/3/1
f 64/3/1 62/3/1 63/3/1
f 67/1/1 66/1/1 65/1/1
f 68/1/1 66/1/1 67/1/1
f 72/1/1 70/1/1 69/1/1
f 73/1/1 70/1/1 72/1/1
f 74/1/1 72/1/1 71/1/1
f 75/1/1 72/1/1 74/1/1
f 79/1/1 77/1/1 76/1/1
f 80/1/1 77/1/1 79/1/1
f 81/1/1 79/1/1 78/1/1
f 82/1/1 79/1/1 81/1/1
f 86/1/1 84/1/1 83/1/1
f 87/1/1 84/1/1 86/1/1
f 88/1/1 86/1/1 85/1/1
f 89/1/1 86/1/1 88/1/1
f 93/1/1 91/1/1 90/1/1
f 94/1/1 91/1/1 93/1/1
f 95/1/1 93/1/1 92/1/1
f 96/1/1 93/1/1 95/1/1
f 99/1/1 98/1/1 97/1/1
f 100/1/1 98/1/1 99/1/1
f 103/1/1 102/1/1 101/1/1
f 104/1/1 102/1/1 103/1/1
f 107/1/1 106/1/1 105/1/1
f 108/1/1 106/1/1 107/1/1
f 113/1/1 110/1/1 109/1/1
f 114/2/1 112/2/1 111/2/1
f 115/1/1 113/1/1 112/1/1
f 115/2/1 112/2/1 114/2/1
f 116/1/1 110/1/1 113/1/1
f 116/1/1 113/1/1 115/1/1
f 120/1/1 118/1/1 117/1/1
f 120/1/1 119/1/1 118/1/1
f 121/1/1 119/1/1 120/1/1
f 124/1/1 123/1/1 122/1/1
f 125/1/1 123/1/1 124/1/1
f 126/1/2 127/1/2 128/1/2
f 128/1/2 127/1/2 129/1/2
f 130/1/2 131/1/2 133/1/2
f 131/1/2 132/1/2 133/1/2
f 133/1/2 132/1/2 134/1/2
f 135/1/2 136/1/2 139/1/2
f 137/2/2 138/2/2 140/2/2
f 138/1/2 139/1/2 141/1/2
f 140/2/2 138/2/2 141/2/2
f 139/1/2 136/1/2 142/1/2
f 141/1/2 139/1/2 142/1/2
f 143/1/2 144/1/2 145/1/2
f 145/1/2 144/1/2 146/1/2
f 147/1/2 148/1/2 149/1/2
f 149/1/2 148/1/2 150/1/2
f 151/1/2 152/1/2 153/1/2
f 153/1/2 152/1/2 154/1/2
f 155/1/2 156/1/2 158/1/2
f 158/1/2 156/1/2 159/1/2
f 157/1/2 158/1/2 160/1/2
f 160/1/2 158/1/2 161/1/2
f 162/1/2 163/1/2 165/1/2
f 165/1/2 163/1/2 166/1/2
f 164/1/2 165/1/2 167/1/2
f 167/1/2 165/1/2 168/1/2
f 169/1/2 170/1/2 172/1/2
f 172/1/2 170/1/2 173/1/2
f 171/1/2 172/1/2 174/1/2
f 174/1/2 172/1/2 175/1/2
f 176/1/2 177/1/2 179/1/2
f 179/1/2 177/1/2 180/1/2
f 178/1/2 179/1/2 181/1/2
f 181/1/2 179/1/2 182/1/2
f 183/1/2 184/1/2 185/1/2
f 185/1/2 184/1/2 186/1/2
f 187/1/2 188/1/2 189/1/2
f 189/1/2 188/1/2 190/1/2
f 187/1/2 189/1/2 191/1/2
f 191/1/2 189/1/2 192/1/2
f 193/3/2 194/3/2 195/3/2
f 195/3/2 194/3/2 196/3/2
f 197/3/2 198/3/2 199/3/2
f 199/3/2 198/3/2 200/3/2
f 201/3/2 202/3/2 203/3/2
f 203/3/2 202/3/2 204/3/2
f 205/3/2 206/3/2 207/3/2
f 207/3/2 206/3/2 208/3/2
f 209/3/2 210/3/2 211/3/2
f 211/3/2 210/3/2 212/3/2
f 213/3/2 214/3/2 215/3/2
f 215/3/2 214/3/2 216/3/2
f 217/3/2 218/3/2 219/3/2
f 219/3/2 218/3/2 220/3/2
f 221/3/2 222/3/2 223/3/2
f 223/3/2 222/3/2 224/3/2
f 225/3/2 226/3/2 227/3/2
f 227/3/2 226/3/2 228/3/2
f 229/1/2 230/1/2 233/1/2
f 231/2/2 232/2/2 234/2/2
f 232/1/2 233/1/2 235/1/2
f 234/2/2 232/2/2 235/2/2
f 233/1/2 230/1/2 236/1/2
f 235/1/2 233/1/2 236/1/2
f 237/3/2 238/3/2 239/3/2
f 239/3/2 238/3/2 240/3/2
f 241/3/2 242/3/2 243/3/2
f 243/3/2 242/3/2 244/3/2
f 245/1/2 246/1/2 247/1/2
f 247/1/2 246/1/2 248/1/2
f 247/3/2 248/3/2 249/3/2
f 249/3/2 248/3/2 250/3/2
f 254/1/3 252/1/3 251/1/3
f 255/3/3 253/3/3 252/3/3
f 255/1/3 252/1/3 254/1/3
f 256/3/3 253/3/3 255/3/3
f 258/3/3 257/3/3 256/3/3
f 258/1/3 256/1/3 255/1/3
f 259/3/3 257/3/3 258/3/3
f 262/1/3 258/1/3 255/1/3
f 262/1/3 259/1/3 258/1/3
f 263/1/3 259/1/3 262/1/3
f 264/2/3 262/2/3 261/2/3
f 264/1/3 259/1/3 263/1/3
f 264/2/3 263/2/3 262/2/3
f 265/3/3 260/3/3 259/3/3
f 265/1/3 259/1/3 264/1/3
f 266/3/3 260/3/3 265/3/3
f 268/2/3 264/2/3 261/2/3
f 269/2/3 264/2/3 268/2/3
f 270/1/3 266/1/3 265/1/3
f 271/3/3 267/3/3 266/3/3
f 271/1/3 266/1/3 270/1/3
f 272/3/3 267/3/3 271/3/3
f 274/1/3 272/1/3 271/1/3
f 275/3/3 273/3/3 272/3/3
f 275/1/3 272/1/3 274/1/3
f 276/3/3 273/3/3 275/3/3
f 278/1/3 276/1/3 275/1/3
f 279/3/3 277/3/3 276/3/3
f 279/1/3 276/1/3 278/1/3
f 280/3/3 277/3/3 279/3/3
f 282/1/3 280/1/3 279/1/3
f 283/3/3 281/3/3 280/3/3
f 283/1/3 280/1/3 282/1/3
f 284/3/3 281/3/3 283/3/3
f 286/1/3 284/1/3 283/1/3
f 287/3/3 285/3/3 284/3/3
f 287/1/3 284/1/3 286/1/3
f 288/3/3 285/3/3 287/3/3
f 290/1/3 288/1/3 287/1/3
f 291/3/3 289/3/3 288/3/3
f 291/1/3 288/1/3 290/1/3
f 292/3/3 289/3/3 291/3/3
f 294/1/3 292/1/3 291/1/3
f 295/3/3 293/3/3 292/3/3
f 295/1/3 292/1/3 294/1/3
f 296/3/3 293/3/3 295/3/3
f 298/1/3 296/1/3 295/1/3
f 299/3/3 297/3/3 296/3/3
f 299/1/3 296/1/3 298/1/3
f 300/3/3 297/3/3 299/3/3
f 303/1/3 300/1/3 299/1/3
f 304/3/3 301/3/3 300/3/3
f 304/1/3 300/1/3 303/1/3
f 305/3/3 301/3/3 304/3/3
f 307/1/3 303/1/3 302/1/3
f 308/3/3 304/3/3 303/3/3
f 308/1/3 303/1/3 307/1/3
f 309/3/3 304/3/3 308/3/3
f 311/1/3 307/1/3 306/1/3
f 312/3/3 308/3/3 307/3/3
f 312/1/3 307/1/3 311/1/3
f 313/3/3 308/3/3 312/3/3
f 315/1/3 311/1/3 310/1/3
f 316/3/3 312/3/3 311/3/3
f 316/1/3 311/1/3 315/1/3
f 317/3/3 312/3/3 316/3/3
f 319/1/3 315/1/3 314/1/3
f 320/3/3 316/3/3 315/3/3
f 320/1/3 315/1/3 319/1/3
f 321/3/3 316/3/3 320/3/3
f 323/1/3 319/1/3 318/1/3
f 324/3/3 320/3/3 319/3/3
f 324/1/3 319/1/3 323/1/3
f 325/3/3 320/3/3 324/3/3
f 327/1/3 323/1/3 322/1/3
f 328/3/3 324/3/3 323/3/3
f 328/1/3 323/1/3 327/1/3
f 329/3/3 324/3/3 328/3/3
f 331/1/3 327/1/3 326/1/3
f 332/3/3 328/3/3 327/3/3
f 332/1/3 327/1/3 331/1/3
f 333/3/3 328/3/3 332/3/3
f 336/2/3 335/2/3 334/2/3
f 337/1/3 331/1/3 330/1/3
f 338/3/3 332/3/3 331/3/3
f 338/1/3 331/1/3 337/1/3
f 339/3/3 332/3/3 338/3/3
f 340/2/3 336/2/3 334/2/3
f 341/2/3 336/2/3 340/2/3
f 342/1/3 337/1/3 336/1/3
f 342/2/3 336/2/3 341/2/3
f 343/1/3 337/1/3 342/1/3
f 343/1/3 342/1/3 341/1/3
f 344/3/3 338/3/3 337/3/3
f 344/1/3 337/1/3 343/1/3
f 345/3/3 338/3/3 344/3/3
f 347/1/3 343/1/3 341/1/3
f 348/3/3 344/3/3 343/3/3
f 348/1/3 343/1/3 347/1/3
f 349/3/3 344/3/3 348/3/3
f 350/1/3 347/1/3 346/1/3
f 351/3/3 348/3/3 347/3/3
f 351/1/3 347/1/3 350/1/3
f 352/3/3 348/3/3 351/3/3
f 355/1/3 354/1/3 353/1/3
f 356/1/3 354/1/3 355/1/3
f 359/1/3 358/1/3 357/1/3
f 360/1/3 358/1/3 359/1/3
f 363/1/3 362/1/3 361/1/3
f 366/1/3 363/1/3 361/1/3
f 366/1/3 365/1/3 364/1/3
f 366/1/3 364/1/3 363/1/3
f 367/1/3 365/1/3 366/1/3
f 368/1/3 365/1/3 367/1/3
f 369/1/3 366/1/3 361/1/3
f 370/1/3 366/1/3 369/1/3
f 373/1/3 372/1/3 371/1/3
f 374/1/3 372/1/3 373/1/3
f 376/1/3 375/1/3 374/1/3
f 377/1/3 375/1/3 376/1/3
f 379/1/3 378/1/3 377/1/3
f 380/1/3 378/1/3 379/1/3
f 382/1/3 381/1/3 380/1/3
f 383/1/3 381/1/3 382/1/3
f 385/1/3 384/1/3 383/1/3
f 386/1/3 384/1/3 385/1/3
f 390/1/3 388/1/3 387/1/3
f 391/1/3 388/1/3 390/1/3
f 393/1/3 390/1/3 389/1/3
f 394/1/3 390/1/3 393/1/3
f 396/1/3 393/1/3 392/1/3
f 397/1/3 393/1/3 396/1/3
f 399/1/3 396/1/3 395/1/3
f 400/1/3 396/1/3 399/1/3
f 401/1/3 399/1/3 398/1/3
f 402/1/3 399/1/3 401/1/3
f 403/1/4 404/1/4 406/1/4
f 404/3/4 405/3/4 407/3/4
f 406/1/4 404/1/4 407/1/4
f 407/3/4 405/3/4 408/3/4
f 408/3/4 409/3/4 410/3/4
f 407/1/4 408/1/4 410/1/4
f 410/3/4 409/3/4 411/3/4
f 407/1/4 410/1/4 414/1/4
f 410/1/4 411/1/4 414/1/4
f 414/1/4 411/1/4 415/1/4
f 413/1/4 414/1/4 415/1/4
f 411/3/4 412/3/4 416/3/4
f 415/1/4 411/1/4 416/1/4
f 416/3/4 412/3/4 417/3/4
f 416/1/4 417/1/4 419/1/4
f 417/3/4 418/3/4 420/3/4
f 419/1/4 417/1/4 420/1/4
f 420/3/4 418/3/4 421/3/4
f 420/1/4 421/1/4 423/1/4
f 421/3/4 422/3/4 424/3/4
f 423/1/4 421/1/4 424/1/4
f 424/3/4 422/3/4 425/3/4
f 425/3/4 426/3/4 427/3/4
f 424/1/4 425/1/4 427/1/4
f 427/3/4 426/3/4 428/3/4
f 424/1/4 427/1/4 430/1/4
f 427/1/4 428/1/4 430/1/4
f 430/1/4 428/1/4 431/1/4
f 428/3/4 429/3/4 432/3/4
f 431/1/4 428/1/4 432/1/4
f 432/3/4 429/3/4 433/3/4
f 431/1/4 432/1/4 435/1/4
f 432/1/4 433/1/4 435/1/4
f 435/1/4 433/1/4 436/1/4
f 433/3/4 434/3/4 437/3/4
f 436/1/4 433/1/4 437/1/4
f 437/3/4 434/3/4 438/3/4
f 436/1/4 437/1/4 440/1/4
f 437/1/4 438/1/4 440/1/4
f 440/1/4 438/1/4 441/1/4
f 438/3/4 439/3/4 442/3/4
f 441/1/4 438/1/4 442/1/4
f 442/3/4 439/3/4 443/3/4
f 441/1/4 442/1/4 445/1/4
f 442/1/4 443/1/4 445/1/4
f 445/1/4 443/1/4 446/1/4
f 443/3/4 444/3/4 447/3/4
f 446/1/4 443/1/4 447/1/4
f 447/3/4 444/3/4 448/3/4
f 413/1/4 415/1/4 450/1/4
f 447/1/4 448/1/4 451/1/4
f 446/1/4 447/1/4 451/1/4
f 448/3/4 449/3/4 452/3/4
f 450/1/4 451/1/4 454/1/4
f 413/1/4 450/1/4 454/1/4
f 451/1/4 448/1/4 455/1/4
f 454/1/4 451/1/4 455/1/4
f 452/3/4 453/3/4 456/3/4
f 448/3/4 452/3/4 456/3/4
f 456/3/4 453/3/4 457/3/4
f 455/1/4 448/1/4 459/1/4
f 459/1/4 448/1/4 460/1/4
f 448/3/4 456/3/4 461/3/4
f 460/1/4 448/1/4 461/1/4
f 461/3/4 456/3/4 462/3/4
f 459/1/4 460/1/4 464/1/4
f 458/1/4 459/1/4 464/1/4
f 464/1/4 460/1/4 465/1/4
f 460/3/4 461/3/4 466/3/4
f 465/1/4 460/1/4 466/1/4
f 466/3/4 461/3/4 467/3/4
f 464/1/4 465/1/4 469/1/4
f 463/1/4 464/1/4 469/1/4
f 469/1/4 465/1/4 470/1/4
f 465/3/4 466/3/4 471/3/4
f 470/1/4 465/1/4 471/1/4
f 471/3/4 466/3/4 472/3/4
f 469/1/4 470/1/4 474/1/4
f 468/1/4 469/1/4 474/1/4
f 474/1/4 470/1/4 475/1/4
f 470/3/4 471/3/4 476/3/4
f 475/1/4 470/1/4 476/1/4
f 476/3/4 471/3/4 477/3/4
f 474/1/4 475/1/4 478/1/4
f 473/1/4 474/1/4 478/1/4
f 475/3/4 476/3/4 479/3/4
f 478/1/4 475/1/4 479/1/4
f 479/3/4 476/3/4 480/3/4
f 473/1/4 478/1/4 482/1/4
f 478/3/4 479/3/4 483/3/4
f 482/1/4 478/1/4 483/1/4
f 483/3/4 479/3/4 484/3/4
f 481/1/4 482/1/4 486/1/4
f 482/3/4 483/3/4 487/3/4
f 486/1/4 482/1/4 487/1/4
f 487/3/4 483/3/4 488/3/4
f 413/1/4 454/1/4 489/1/4
f 485/1/4 486/1/4 490/1/4
f 486/3/4 487/3/4 491/3/4
f 490/1/4 486/1/4 491/1/4
f 491/3/4 487/3/4 492/3/4
f 413/1/4 489/1/4 493/1/4
f 489/1/4 490/1/4 493/1/4
f 493/1/4 490/1/4 494/1/4
f 494/1/4 490/1/4 495/1/4
f 490/3/4 491/3/4 496/3/4
f 495/1/4 490/1/4 496/1/4
f 496/3/4 491/3/4 497/3/4
f 494/1/4 495/1/4 499/1/4
f 495/3/4 496/3/4 500/3/4
f 499/1/4 495/1/4 500/1/4
f 500/3/4 496/3/4 501/3/4
f 498/1/4 499/1/4 502/1/4
f 499/3/4 500/3/4 503/3/4
f 502/1/4 499/1/4 503/1/4
f 503/3/4 500/3/4 504/3/4
f 509/1/5 506/1/5 505/1/5
f 510/1/5 508/1/5 507/1/5
f 511/1/5 509/1/5 505/1/5
f 511/1/5 510/1/5 509/1/5
f 512/1/5 508/1/5 510/1/5
f 512/1/5 510/1/5 511/1/5
f 521/2/5 516/2/5 515/2/5
f 522/2/5 516/2/5 521/2/5
f 523/2/5 518/2/5 517/2/5
f 524/2/5 518/2/5 523/2/5
f 525/1/5 522/1/5 521/1/5
f 526/1/5 522/1/5 525/1/5
f 527/1/5 524/1/5 523/1/5
f 528/1/5 524/1/5 527/1/5
f 529/1/5 514/1/5 513/1/5
f 530/1/5 514/1/5 529/1/5
f 531/1/5 520/1/5 519/1/5
f 532/1/5 520/1/5 531/1/5
f 537/1/5 534/1/5 533/1/5
f 538/1/5 536/1/5 535/1/5
f 539/1/5 537/1/5 533/1/5
f 540/1/5 537/1/5 539/1/5
f 541/1/5 536/1/5 538/1/5
f 542/1/5 536/1/5 541/1/5
f 547/1/5 544/1/5 543/1/5
f 548/1/5 544/1/5 547/1/5
f 549/1/5 546/1/5 545/1/5
f 550/1/5 546/1/5 549/1/5
f 555/1/5 552/1/5 551/1/5
f 556/1/5 552/1/5 555/1/5
f 557/1/5 554/1/5 553/1/5
f 558/1/5 554/1/5 557/1/5
f 563/1/5 560/1/5 559/1/5
f 566/1/5 562/1/5 561/1/5
f 567/1/5 564/1/5 563/1/5
f 567/1/5 563/1/5 559/1/5
f 568/1/5 564/1/5 567/1/5
f 569/1/5 566/1/5 565/1/5
f 570/1/5 562/1/5 566/1/5
f 570/1/5 566/1/5 569/1/5
f 575/1/5 572/1/5 571/1/5
f 576/1/5 572/1/5 575/1/5
f 579/1/5 574/1/5 573/1/5
f 580/1/5 574/1/5 579/1/5
f 581/1/5 577/1/5 576/1/5
f 582/1/5 577/1/5 581/1/5
f 583/1/5 579/1/5 578/1/5
f 584/1/5 579/1/5 583/1/5
f 589/1/5 586/1/5 585/1/5
f 590/1/5 586/1/5 589/1/5
f 593/1/5 588/1/5 587/1/5
f 594/1/5 588/1/5 593/1/5
f 595/1/5 591/1/5 590/1/5
f 596/1/5 591/1/5 595/1/5
f 597/1/5 593/1/5 592/1/5
f 598/1/5 593/1/5 597/1/5
f 603/1/5 600/1/5 599/1/5
f 604/1/5 600/1/5 603/1/5
f 607/1/5 602/1/5 601/1/5
f 608/1/5 602/1/5 607/1/5
f 609/1/5 605/1/5 604/1/5
f 610/1/5 605/1/5 609/1/5
f 611/1/5 607/1/5 606/1/5
f 612/1/5 607/1/5 611/1/5
f 617/1/5 614/1/5 613/1/5
f 618/1/5 614/1/5 617/1/5
f 621/1/5 616/1/5 615/1/5
f 622/1/5 616/1/5 621/1/5
f 623/1/5 619/1/5 618/1/5
f 624/1/5 619/1/5 623/1/5
f 625/1/5 621/1/5 620/1/5
f 626/1/5 621/1/5 625/1/5
f 631/1/5 628/1/5 627/1/5
f 632/1/5 630/1/5 629/1/5
f 633/1/5 631/1/5 627/1/5
f 634/1/5 631/1/5 633/1/5
f 635/1/5 630/1/5 632/1/5
f 636/1/5 630/1/5 635/1/5
f 639/1/5 638/1/5 637/1/5
f 640/1/5 638/1/5 639/1/5
f 643/2/6 644/2/6 649/2/6
f 649/2/6 644/2/6 650/2/6
f 645/2/6 646/2/6 651/2/6
f 651/2/6 646/2/6 652/2/6
f 649/1/6 650/1/6 653/1/6
f 651/1/6 652/1/6 656/1/6
f 641/3/6 642/3/6 657/3/6
f 657/3/6 642/3/6 658/3/6
f 653/1/6 654/1/6 659/1/6
f 649/1/6 653/1/6 659/1/6
f 659/1/6 654/1/6 660/1/6
f 655/1/6 656/1/6 661/1/6
f 656/1/6 652/1/6 662/1/6
f 661/1/6 656/1/6 662/1/6
f 647/3/6 648/3/6 663/3/6
f 663/3/6 648/3/6 664/3/6
f 665/3/6 666/3/6 669/3/6
f 669/3/6 666/3/6 670/3/6
f 667/3/6 668/3/6 671/3/6
f 671/3/6 668/3/6 672/3/6
f 673/3/6 674/3/6 677/3/6
f 677/3/6 674/3/6 678/3/6
f 675/3/6 676/3/6 679/3/6
f 679/3/6 676/3/6 680/3/6
f 681/3/6 682/3/6 685/3/6
f 685/3/6 682/3/6 686/3/6
f 683/3/6 684/3/6 687/3/6
f 687/3/6 684/3/6 688/3/6
f 689/3/6 690/3/6 693/3/6
f 693/3/6 690/3/6 694/3/6
f 691/3/6 692/3/6 695/3/6
f 695/3/6 692/3/6 696/3/6
f 697/3/6 698/3/6 701/3/6
f 701/3/6 698/3/6 702/3/6
f 699/3/6 700/3/6 703/3/6
f 703/3/6 700/3/6 704/3/6
f 705/3/6 706/3/6 709/3/6
f 709/3/6 706/3/6 710/3/6
f 707/3/6 708/3/6 711/3/6
f 711/3/6 708/3/6 712/3/6
f 713/3/6 714/3/6 717/3/6
f 717/3/6 714/3/6 718/3/6
f 715/3/6 716/3/6 719/3/6
f 719/3/6 716/3/6 720/3/6
f 721/3/6 722/3/6 725/3/6
f 725/3/6 722/3/6 726/3/6
f 723/3/6 724/3/6 727/3/6
f 727/3/6 724/3/6 728/3/6
f 729/3/6 730/3/6 733/3/6
f 733/3/6 730/3/6 734/3/6
f 731/3/6 732/3/6 735/3/6
f 735/3/6 732/3/6 736/3/6
f 737/3/6 738/3/6 741/3/6
f 741/3/6 738/3/6 742/3/6
f 739/3/6 740/3/6 743/3/6
f 743/3/6 740/3/6 744/3/6
f 745/3/6 746/3/6 747/3/6
f 747/3/6 746/3/6 748/3/6
